<svg width="177" height="97" viewBox="0 0 177 97" fill="none" xmlns="http://www.w3.org/2000/svg">
<rect width="177" height="97" rx="8" fill="#2F3136"/>
<path d="M58.3455 22.2109L58.1295 20.7949H55.3695V13.9309H53.7735V22.2109H58.3455ZM64.3441 19.3069C64.3441 17.4229 63.1921 16.2949 61.6081 16.2949C60.0361 16.2949 58.8841 17.4349 58.8841 19.3189C58.8841 21.2029 60.0241 22.3309 61.5961 22.3309C63.1801 22.3309 64.3441 21.1909 64.3441 19.3069ZM62.9401 19.3189C62.9401 20.3989 62.4841 21.1549 61.5961 21.1549C60.7561 21.1549 60.2881 20.3749 60.2881 19.3069C60.2881 18.2389 60.7441 17.4709 61.5961 17.4709C62.4601 17.4709 62.9401 18.2509 62.9401 19.3189ZM70.4563 22.2109V18.0349C70.4563 16.9549 69.8803 16.2949 68.8003 16.2949C68.0203 16.2949 67.4083 16.7149 66.8683 17.2309L66.7363 16.4149H65.5123V22.2109H66.9523V18.2989C67.3723 17.8549 67.8283 17.5669 68.2723 17.5669C68.8003 17.5669 69.0163 17.9149 69.0163 18.4189V22.2109H70.4563ZM74.203 17.2909C74.899 17.2909 75.259 17.7949 75.355 18.6949H73.039C73.147 17.7589 73.627 17.2909 74.203 17.2909ZM76.747 21.6229L76.579 20.4949C75.943 20.9389 75.331 21.2149 74.587 21.2149C73.699 21.2149 73.087 20.7229 73.027 19.5949H76.747C76.747 19.5109 76.759 19.3669 76.759 19.2469C76.759 17.6029 75.979 16.2949 74.239 16.2949C72.727 16.2949 71.599 17.4349 71.599 19.3189C71.599 21.4069 72.811 22.3309 74.431 22.3309C75.367 22.3309 76.123 22.0549 76.747 21.6229ZM91.4808 13.9309H89.8728L88.3728 19.7749L86.6568 13.9309H85.0488L83.3328 19.7749L81.7848 13.8469L80.1048 14.1469L82.4208 22.2349H83.9208L85.7568 16.1869L87.5928 22.2349H89.1048L91.4808 13.9309ZM95.0475 20.6149C94.6515 20.9989 94.1835 21.2389 93.6915 21.2389C93.2475 21.2389 92.9835 20.9869 92.9835 20.5669C92.9835 20.0149 93.3795 19.5229 95.0475 19.3189V20.6149ZM96.4875 22.2109V18.2389C96.4875 16.8469 95.7435 16.2949 94.2435 16.2949C93.3195 16.2949 92.6115 16.4989 91.9395 16.7629L92.1195 17.9149C92.7435 17.6389 93.3795 17.4469 94.0515 17.4469C94.6875 17.4469 95.0475 17.6869 95.0475 18.3109V18.4789C92.7075 18.7069 91.5555 19.3189 91.5555 20.7229C91.5555 21.7309 92.2155 22.3309 93.1995 22.3309C94.0635 22.3309 94.6635 21.9469 95.1315 21.4549L95.2515 22.2109H96.4875ZM102.859 22.2109V18.0349C102.859 16.9549 102.283 16.2949 101.203 16.2949C100.423 16.2949 99.8106 16.7149 99.2706 17.2309L99.1386 16.4149H97.9146V22.2109H99.3546V18.2989C99.7746 17.8549 100.231 17.5669 100.675 17.5669C101.203 17.5669 101.419 17.9149 101.419 18.4189V22.2109H102.859ZM105.465 19.3909C105.465 18.1189 106.005 17.5069 106.761 17.5069C107.253 17.5069 107.529 17.5909 107.889 17.7589V20.2429C107.505 20.7349 107.097 21.0469 106.569 21.0469C105.933 21.0469 105.465 20.5189 105.465 19.3909ZM104.013 19.4749C104.013 21.4309 104.985 22.3309 106.197 22.3309C107.001 22.3309 107.565 21.8989 107.973 21.4069L108.093 22.2109H109.329V13.5469L107.889 13.7749V16.5709C107.541 16.4509 107.097 16.3549 106.545 16.3549C105.201 16.3549 104.013 17.3149 104.013 19.4749ZM113.098 17.2909C113.794 17.2909 114.154 17.7949 114.25 18.6949H111.934C112.042 17.7589 112.522 17.2909 113.098 17.2909ZM115.642 21.6229L115.474 20.4949C114.838 20.9389 114.226 21.2149 113.482 21.2149C112.594 21.2149 111.982 20.7229 111.922 19.5949H115.642C115.642 19.5109 115.654 19.3669 115.654 19.2469C115.654 17.6029 114.874 16.2949 113.134 16.2949C111.622 16.2949 110.494 17.4349 110.494 19.3189C110.494 21.4069 111.706 22.3309 113.326 22.3309C114.262 22.3309 115.018 22.0549 115.642 21.6229ZM120.309 17.7229L120.081 16.2949C119.181 16.3429 118.605 16.9069 118.221 17.5789L118.041 16.4149H116.817V22.2109H118.257V18.8869C118.677 18.2629 119.409 17.7829 120.309 17.7229ZM123.375 17.2909C124.071 17.2909 124.431 17.7949 124.527 18.6949H122.211C122.319 17.7589 122.799 17.2909 123.375 17.2909ZM125.919 21.6229L125.751 20.4949C125.115 20.9389 124.503 21.2149 123.759 21.2149C122.871 21.2149 122.259 20.7229 122.199 19.5949H125.919C125.919 19.5109 125.931 19.3669 125.931 19.2469C125.931 17.6029 125.151 16.2949 123.411 16.2949C121.899 16.2949 120.771 17.4349 120.771 19.3189C120.771 21.4069 121.983 22.3309 123.603 22.3309C124.539 22.3309 125.295 22.0549 125.919 21.6229ZM130.586 17.7229L130.358 16.2949C129.458 16.3429 128.882 16.9069 128.498 17.5789L128.318 16.4149H127.094V22.2109H128.534V18.8869C128.954 18.2629 129.686 17.7829 130.586 17.7229Z" fill="white"/>
<path d="M58.7055 37.7338C58.7055 35.8498 57.5775 34.7458 56.0415 34.7458C54.5175 34.7458 53.4135 35.8498 53.4135 37.7338C53.4135 39.6178 54.5175 40.7098 56.0415 40.7098C57.5775 40.7098 58.7055 39.6178 58.7055 37.7338ZM57.6255 37.7338C57.6255 38.9338 57.0975 39.8218 56.0415 39.8218C55.0335 39.8218 54.4935 38.9098 54.4935 37.7338C54.4935 36.5338 55.0095 35.6338 56.0415 35.6338C57.0735 35.6338 57.6255 36.5578 57.6255 37.7338ZM68.1896 40.5898V36.4258C68.1896 35.3938 67.6616 34.7458 66.5696 34.7458C65.7656 34.7458 65.0696 35.2018 64.5536 35.6938C64.3376 35.1058 63.8816 34.7458 63.0416 34.7458C62.2376 34.7458 61.5896 35.2018 61.0496 35.6938L60.9176 34.8658H60.0656V40.5898H61.1336V36.6298C61.6496 36.0778 62.1896 35.7058 62.7536 35.7058C63.3776 35.7058 63.5936 36.1018 63.5936 36.6898V40.5898H64.6616V36.6298C65.1776 36.0778 65.7176 35.7058 66.2816 35.7058C66.9056 35.7058 67.1216 36.1018 67.1216 36.6898V40.5898H68.1896ZM72.9827 36.7258C72.9827 37.4098 72.5267 37.9498 71.7947 37.9498C71.0867 37.9498 70.6307 37.4338 70.6307 36.7738C70.6307 36.0778 71.0747 35.5258 71.7947 35.5258C72.5027 35.5258 72.9827 36.0418 72.9827 36.7258ZM74.6867 41.0098C74.6867 40.1218 73.9307 39.7378 72.7187 39.5218L72.3107 39.4498C71.3027 39.2698 71.0987 39.2218 71.0987 39.0178C71.0987 38.9098 71.2187 38.7778 71.3867 38.6698C71.5307 38.6938 71.6747 38.7058 71.8187 38.7058C72.9827 38.7058 74.0147 37.9618 74.0147 36.7378C74.0147 36.4138 73.9427 36.1138 73.7867 35.8498L74.8787 35.7418L74.7227 34.7818L73.2707 35.2258C72.8747 34.9138 72.3707 34.7458 71.7947 34.7458C70.6307 34.7458 69.5987 35.5018 69.5987 36.7378C69.5987 37.5178 70.0307 38.1178 70.6667 38.4418C70.2827 38.6698 70.0667 38.9458 70.0667 39.2218C70.0667 39.4378 70.1747 39.6418 70.4267 39.8218C69.6227 40.2538 69.2147 40.7098 69.2147 41.2978C69.2147 42.3058 70.4027 42.7738 71.8907 42.7738C73.3787 42.7738 74.6867 42.2098 74.6867 41.0098ZM71.9387 42.0058C70.8227 42.0058 70.2347 41.6698 70.2347 41.2138C70.2347 40.8178 70.5347 40.4818 71.2067 40.1458C71.4347 40.1938 71.6027 40.2298 71.9147 40.2898L72.5987 40.4098C73.4147 40.5538 73.6787 40.7938 73.6787 41.1418C73.6787 41.6218 73.0547 42.0058 71.9387 42.0058ZM83.2023 40.5898V36.4258C83.2023 35.3938 82.6263 34.7458 81.5463 34.7458C80.7303 34.7458 80.0583 35.2018 79.5183 35.6938L79.3863 34.8658H78.5343V40.5898H79.6023V36.6298C80.1183 36.0778 80.6943 35.7058 81.2583 35.7058C81.8823 35.7058 82.1343 36.1018 82.1343 36.6898V40.5898H83.2023ZM86.1585 33.0418C86.1585 32.6698 85.8585 32.3578 85.4865 32.3578C85.1145 32.3578 84.8025 32.6698 84.8025 33.0418C84.8025 33.4138 85.1145 33.7138 85.4865 33.7138C85.8585 33.7138 86.1585 33.4138 86.1585 33.0418ZM86.0145 40.5898V34.8658H84.9465V40.5898H86.0145ZM92.0764 40.1218L91.9204 39.1378C91.3564 39.6178 90.7924 39.7738 90.2164 39.7738C89.2564 39.7738 88.5364 39.1138 88.5364 37.7218C88.5364 36.4018 89.1964 35.6818 90.1804 35.6818C90.8404 35.6818 91.3684 35.9218 91.8604 36.3178L92.0164 35.2738C91.6324 34.9978 91.0204 34.7458 90.1924 34.7458C88.6564 34.7458 87.4564 35.7898 87.4564 37.7338C87.4564 39.6418 88.5844 40.7098 90.1204 40.7098C90.9364 40.7098 91.5484 40.5178 92.0764 40.1218ZM95.4605 35.5858C96.2885 35.5858 96.6965 36.1138 96.8285 37.0378H94.0685C94.2365 36.0658 94.8005 35.5858 95.4605 35.5858ZM97.8965 39.9418L97.7405 38.9818C97.1165 39.4738 96.5165 39.7978 95.6885 39.7978C94.6925 39.7978 94.0685 39.1738 94.0205 37.8418H97.9085V37.6138C97.9085 36.0298 97.1405 34.7458 95.4725 34.7458C94.0325 34.7458 92.9525 35.8738 92.9525 37.7098C92.9525 39.8098 94.1165 40.7098 95.6045 40.7098C96.5525 40.7098 97.2845 40.4218 97.8965 39.9418ZM104.086 35.5858C104.914 35.5858 105.322 36.1138 105.454 37.0378H102.694C102.862 36.0658 103.426 35.5858 104.086 35.5858ZM106.522 39.9418L106.366 38.9818C105.742 39.4738 105.142 39.7978 104.314 39.7978C103.318 39.7978 102.694 39.1738 102.646 37.8418H106.534V37.6138C106.534 36.0298 105.766 34.7458 104.098 34.7458C102.658 34.7458 101.578 35.8738 101.578 37.7098C101.578 39.8098 102.742 40.7098 104.23 40.7098C105.178 40.7098 105.91 40.4218 106.522 39.9418ZM116.014 40.5898V36.4258C116.014 35.3938 115.486 34.7458 114.394 34.7458C113.59 34.7458 112.894 35.2018 112.378 35.6938C112.162 35.1058 111.706 34.7458 110.866 34.7458C110.062 34.7458 109.414 35.2018 108.874 35.6938L108.742 34.8658H107.89V40.5898H108.958V36.6298C109.474 36.0778 110.014 35.7058 110.578 35.7058C111.202 35.7058 111.418 36.1018 111.418 36.6898V40.5898H112.486V36.6298C113.002 36.0778 113.542 35.7058 114.106 35.7058C114.73 35.7058 114.946 36.1018 114.946 36.6898V40.5898H116.014ZM122.643 37.7338C122.643 35.8498 121.515 34.7458 119.979 34.7458C118.455 34.7458 117.351 35.8498 117.351 37.7338C117.351 39.6178 118.455 40.7098 119.979 40.7098C121.515 40.7098 122.643 39.6178 122.643 37.7338ZM121.563 37.7338C121.563 38.9338 121.035 39.8218 119.979 39.8218C118.971 39.8218 118.431 38.9098 118.431 37.7338C118.431 36.5338 118.947 35.6338 119.979 35.6338C121.011 35.6338 121.563 36.5578 121.563 37.7338ZM125.299 33.0418C125.299 32.6698 124.999 32.3578 124.627 32.3578C124.255 32.3578 123.943 32.6698 123.943 33.0418C123.943 33.4138 124.255 33.7138 124.627 33.7138C124.999 33.7138 125.299 33.4138 125.299 33.0418ZM125.155 41.3098V34.8658H124.087V41.2138C124.087 41.6458 123.859 41.8378 123.487 41.8378C123.319 41.8378 123.115 41.8258 122.983 41.7898L123.139 42.7378C123.223 42.7618 123.451 42.7738 123.631 42.7738C124.543 42.7738 125.155 42.3418 125.155 41.3098ZM128.217 33.0418C128.217 32.6698 127.917 32.3578 127.545 32.3578C127.173 32.3578 126.861 32.6698 126.861 33.0418C126.861 33.4138 127.173 33.7138 127.545 33.7138C127.917 33.7138 128.217 33.4138 128.217 33.0418ZM128.073 40.5898V34.8658H127.005V40.5898H128.073Z" fill="#DCDDDE"/>
<mask id="mask0" mask-type="alpha" maskUnits="userSpaceOnUse" x="134" y="29" width="15" height="15">
<rect x="134.277" y="29.6113" width="14.2414" height="14.2947" fill="#C4C4C4"/>
</mask>
<g mask="url(#mask0)">
<path d="M135.846 30.4173C136.465 30.0084 138.05 29.796 138.643 30.0511C139.257 30.3148 139.331 31.7734 139.672 32.3886C139.967 32.9232 139.91 33.5213 139.519 33.9632C139.51 34.0205 139.486 34.0791 139.436 34.1353C138.828 34.831 138.183 35.5146 137.477 36.1127C137.065 36.4618 136.044 36.5802 135.481 36.3983C134.157 35.9735 134.444 33.2955 134.63 32.2482C134.735 31.6587 135.305 30.7749 135.846 30.4173Z" fill="#754A4A"/>
<path d="M136.271 30.845C136.89 30.4361 138.474 30.2237 139.068 30.4789C139.682 30.7425 139.756 32.2011 140.097 32.8163C140.392 33.3509 140.335 33.949 139.943 34.3909C139.935 34.4483 139.911 34.5069 139.861 34.563C139.253 35.2588 138.608 35.9423 137.902 36.5404C137.489 36.8895 136.469 37.0079 135.906 36.826C134.582 36.4013 134.322 34.7608 134.508 33.7135C134.612 33.1239 135.73 31.2027 136.271 30.845Z" fill="#483039"/>
<mask id="mask1" mask-type="alpha" maskUnits="userSpaceOnUse" x="134" y="29" width="15" height="15">
<path d="M134.508 43.722H148.614C148.614 42.1352 148.499 40.8157 148.592 39.0226C148.717 36.6278 148.3 34.272 147.416 32.6657C146.56 31.1131 145.413 30.3758 144.303 30.0109C142.705 29.486 141.036 29.536 139.428 29.8485C137.771 30.1708 136.241 30.5394 135.284 33.514C134.383 36.3116 134.508 43.722 134.508 43.722Z" fill="#E3BF7A"/>
</mask>
<g mask="url(#mask1)">
<path d="M134.508 43.722H148.614C148.614 42.1352 148.499 40.8157 148.592 39.0226C148.717 36.6278 148.3 34.272 147.416 32.6657C146.56 31.1131 145.413 30.3758 144.303 30.0109C142.705 29.486 141.036 29.536 139.428 29.8485C137.771 30.1708 136.241 30.5394 135.284 33.514C134.383 36.3116 134.508 43.722 134.508 43.722Z" fill="#E3BF7A"/>
<path d="M145.251 42.304C143.894 42.5603 142.467 42.47 141.1 42.4847C138.792 42.5079 136.254 42.2528 134.509 40.0215C134.504 40.7477 134.519 41.474 134.509 42.2003C135.302 42.73 136.285 43.0925 137.112 43.3391C138.754 43.8298 140.463 43.8786 142.163 43.903C143.802 43.9262 145.496 43.8798 147.048 43.2866C147.667 43.0498 148.182 42.6824 148.622 42.2332V39.8555C147.609 40.9711 146.57 42.055 145.251 42.304Z" fill="#DA5C58"/>
<path d="M146.06 28.7086C144.484 28.0043 140.695 29.4044 139.149 29.5557C138.471 29.6228 137.705 29.6973 137.162 30.2356C136.821 30.5749 136.623 31.0449 136.389 31.4818C135.551 33.0442 134.083 34.5273 134.3 36.479C134.321 36.667 134.359 36.8623 134.48 37.0075C134.601 37.154 134.789 37.226 134.974 37.2712C135.471 37.392 136.008 37.3432 136.477 37.1357C137.373 36.7402 137.685 36.3936 138.674 36.6902C139.477 36.9306 140.215 37.3139 140.952 37.7069C142.344 38.4503 143.747 39.2864 145.374 39.295C146.064 39.2986 146.781 39.107 147.281 38.6297C147.62 38.3063 147.838 37.8742 147.985 37.4286C148.432 36.0689 148.233 34.5211 147.501 33.292C146.743 32.0152 147.489 29.347 146.06 28.7086Z" fill="#F4DD92"/>
<path d="M138.847 34.5102C138.808 34.1099 138.746 33.7962 138.511 33.4544C138.305 33.1529 138.014 32.9015 137.66 32.7965C136.881 32.5634 136.033 32.5426 135.418 33.1383C134.929 33.6106 134.708 34.3247 134.815 34.9924C134.895 35.4904 135.065 36.0226 135.472 36.346C135.92 36.7025 136.601 36.91 137.17 36.8855C137.885 36.8538 138.459 36.307 138.723 35.6698C138.854 35.3512 138.925 34.9924 138.866 34.6506C138.857 34.603 138.852 34.5566 138.847 34.5102Z" fill="white"/>
<path d="M135.174 33.6283C134.078 34.506 135.171 36.4565 136.477 35.7632C136.904 35.5362 137.164 35.0687 137.192 34.5926C137.253 33.5612 135.94 33.0156 135.174 33.6283Z" fill="#222034"/>
<path d="M135.275 33.731C134.909 34.0447 135.274 34.7417 135.71 34.4939C135.853 34.4133 135.94 34.2461 135.95 34.0752C135.971 33.7066 135.531 33.5113 135.275 33.731Z" fill="white"/>
<path d="M144.962 38.687C145.022 40.1932 144.406 41.5103 143.104 42.1438C141.658 42.8456 138.121 43.5023 136.733 42.8346C135.482 42.2329 136.655 41.127 136.455 39.7929C136.311 38.8457 135.803 38.167 135.618 37.5714C134.694 34.6065 139.569 35.4817 141.867 35.4182C142.329 35.4048 142.776 35.4792 143.206 35.6575C144.466 36.1799 144.907 37.3211 144.962 38.687Z" fill="#B88A7D"/>
<mask id="mask2" mask-type="alpha" maskUnits="userSpaceOnUse" x="136" y="37" width="7" height="6">
<path d="M141.172 40.9407C141.741 40.5147 142.714 39.7591 142.558 38.6911C142.367 37.3838 140.581 37.2727 139.941 37.2727C138.986 37.2727 138.766 37.2508 137.891 37.2569C137.638 37.2581 136.574 37.1824 136.423 37.4156C136.27 37.6511 136.251 37.75 136.76 38.5019C136.959 38.7961 137.046 39.1268 137.054 39.4857C137.063 39.8446 137.039 40.2083 136.988 40.5623C136.911 41.1042 136.639 41.7853 137.146 42.0807C137.719 42.414 138.669 42.1869 139.243 41.9977C139.926 41.7719 140.568 41.3911 141.172 40.9407Z" fill="#633630"/>
</mask>
<g mask="url(#mask2)">
<path d="M141.172 40.9407C141.741 40.5147 142.714 39.7591 142.558 38.6911C142.367 37.3838 140.581 37.2727 139.941 37.2727C138.986 37.2727 138.766 37.2508 137.891 37.2569C137.638 37.2581 136.574 37.1824 136.423 37.4156C136.27 37.6511 136.251 37.75 136.76 38.5019C136.959 38.7961 137.046 39.1268 137.054 39.4857C137.063 39.8446 137.039 40.2083 136.988 40.5623C136.911 41.1042 136.639 41.7853 137.146 42.0807C137.719 42.414 138.669 42.1869 139.243 41.9977C139.926 41.7719 140.568 41.3911 141.172 40.9407Z" fill="#633630"/>
<path d="M142.502 40.1847C141.349 39.3168 137.824 39.0825 136.86 40.5191C136.621 40.8743 136.596 41.3601 136.811 41.7104C136.812 41.7471 136.817 41.7849 136.827 41.8252C137.248 43.4974 140.584 41.6702 141.421 41.2198C141.759 41.0379 142.766 40.3824 142.502 40.1847Z" fill="#D04A69"/>
</g>
<path d="M144.075 34.5102C144.037 34.1099 143.975 33.7962 143.74 33.4544C143.533 33.1529 143.242 32.9015 142.889 32.7965C142.109 32.5634 141.262 32.5426 140.646 33.1383C140.157 33.6106 139.936 34.3247 140.043 34.9924C140.123 35.4904 140.294 36.0226 140.701 36.346C141.148 36.7025 141.829 36.91 142.399 36.8855C143.114 36.8538 143.688 36.307 143.951 35.6698C144.083 35.3512 144.153 34.9924 144.095 34.6506C144.085 34.603 144.08 34.5566 144.075 34.5102Z" fill="white"/>
<path d="M140.408 33.6293C139.313 34.5069 140.406 36.4575 141.712 35.7642C142.139 35.5371 142.399 35.0696 142.427 34.5936C142.488 33.5622 141.174 33.0166 140.408 33.6293Z" fill="#222034"/>
<path d="M140.641 33.732C140.275 34.0457 140.64 34.7426 141.077 34.4949C141.219 34.4143 141.307 34.2471 141.316 34.0762C141.337 33.7076 140.897 33.5123 140.641 33.732Z" fill="white"/>
<path d="M141.814 31.5445C141.378 31.3395 140.906 31.3407 140.478 31.5726C140.313 31.6617 140.275 31.8143 140.31 31.9534C140.317 32.1085 140.414 32.2769 140.574 32.2989C140.966 32.355 141.347 32.3392 141.727 32.2134C141.998 32.1231 142.117 31.6874 141.814 31.5445Z" fill="#B88A7D"/>
<path d="M137.922 31.5445C137.486 31.3395 137.014 31.3407 136.586 31.5726C136.422 31.6617 136.383 31.8143 136.418 31.9534C136.426 32.1085 136.523 32.2769 136.682 32.2989C137.075 32.355 137.456 32.3392 137.835 32.2134C138.106 32.1231 138.225 31.6874 137.922 31.5445Z" fill="#B88A7D"/>
<path d="M138.686 35.335C138.258 35.3106 137.183 35.3131 136.975 35.8013C136.748 36.3372 137.482 36.79 137.919 36.8596C137.959 36.8657 138.003 36.8706 138.048 36.873C138.081 36.9731 138.09 37.0561 138.081 37.1721C138.071 37.2966 138.216 37.4089 138.335 37.3979C138.48 37.3844 138.556 37.2819 138.566 37.1489C138.573 37.0463 138.563 36.9426 138.542 36.8413C138.702 36.8169 138.859 36.7815 138.985 36.7412C139.287 36.646 139.635 36.48 139.739 36.1614C139.942 35.5438 139.119 35.3607 138.686 35.335Z" fill="#483039"/>
<path d="M139.969 39.2763C139.159 39.3349 138.664 39.9245 138.218 40.5421C137.988 40.8607 138.515 41.1658 138.743 40.8497C139.046 40.431 139.408 39.9281 139.969 39.8866C140.357 39.8586 140.361 39.2483 139.969 39.2763Z" fill="#9C3D53"/>
</g>
<path d="M149.23 33.3379C149.046 32.4127 148.62 31.5095 147.969 30.8223C147.214 30.0228 146.241 29.9813 145.182 29.9691C144.805 29.9654 144.4 29.991 144.1 30.2205C143.644 30.5684 143.61 31.2983 143.93 31.7756C144.923 33.2537 146.069 34.8808 147.821 35.5143C148.247 35.6681 148.987 35.8439 149.235 35.2726C149.466 34.7355 149.341 33.8933 149.23 33.3379Z" fill="#483039"/>
<path d="M148.258 31.3886C148.106 30.9981 147.755 30.6184 147.22 30.3279C146.597 29.991 145.796 29.9727 144.924 29.9679C144.613 29.9666 144.279 29.9776 144.031 30.0741C143.656 30.2205 143.606 31.0701 143.87 31.2715C144.688 31.8952 145.652 32.0392 147.096 32.3065C147.447 32.3712 148.057 32.4457 148.261 32.204C148.454 31.9782 148.35 31.623 148.258 31.3886Z" fill="#754A4A"/>
</g>
<ellipse cx="27.466" cy="27.5688" rx="17.2931" ry="17.3579" fill="#EDF6F3"/>
<g clip-path="url(#clip0)">
<path d="M27.4658 38.8007C26.1432 38.8007 24.9001 38.3091 23.965 37.417C23.9479 37.4007 23.9479 37.3743 23.965 37.3579C23.9821 37.3416 24.0097 37.3416 24.0269 37.3579C24.9453 38.2342 26.1665 38.7169 27.4653 38.7169C28.7642 38.7169 29.9854 38.2342 30.9038 37.3579C30.9209 37.3416 30.9485 37.3416 30.9657 37.3579C30.9828 37.3743 30.9828 37.4007 30.9657 37.417C30.0314 38.3096 28.7879 38.8007 27.4658 38.8007Z" fill="#333333"/>
<path d="M26.0827 23.3857L25.3455 29.7535C24.4661 29.9159 23.8018 30.654 23.8018 31.5407C23.8018 32.5463 24.6565 33.3618 25.7106 33.3618C25.7597 33.3618 25.808 33.3593 25.8562 33.356C26.195 33.863 26.7891 34.1992 27.4658 34.1992C28.1424 34.1992 28.7366 33.863 29.0758 33.356C29.1236 33.3593 29.1723 33.3618 29.221 33.3618C30.275 33.3618 31.1298 32.5463 31.1298 31.5407C31.1298 30.654 30.4655 29.9159 29.5861 29.7535L28.8493 23.3857" fill="#333333"/>
<path d="M27.4657 34.2407C26.8044 34.2407 26.1963 33.9267 25.8334 33.3992C25.7882 33.4022 25.7487 33.4034 25.7105 33.4034C24.6337 33.4034 23.7578 32.5678 23.7578 31.5404C23.7578 30.6604 24.4068 29.8989 25.3055 29.718L26.0392 23.3808C26.0418 23.3578 26.0637 23.3415 26.0874 23.344C26.1116 23.3465 26.1287 23.3674 26.126 23.3901L25.3889 29.7574C25.3867 29.7758 25.3726 29.7904 25.3537 29.7938C24.4796 29.9554 23.8456 30.6897 23.8456 31.54C23.8456 32.5209 24.6819 33.3193 25.7105 33.3193C25.7531 33.3193 25.7983 33.3176 25.8527 33.3134C25.8689 33.3122 25.8843 33.3197 25.893 33.3327C26.2379 33.8484 26.8259 34.1566 27.4657 34.1566C28.1055 34.1566 28.6935 33.8484 29.0384 33.3327C29.0472 33.3197 29.0625 33.3122 29.0788 33.3134C29.1332 33.3172 29.1784 33.3193 29.2209 33.3193C30.2491 33.3193 31.0859 32.5213 31.0859 31.54C31.0859 30.6897 30.4513 29.955 29.5772 29.7938C29.5584 29.7904 29.5439 29.7754 29.5421 29.7574L28.8049 23.3901C28.8023 23.367 28.8194 23.3465 28.8436 23.344C28.8681 23.3415 28.8892 23.3582 28.8918 23.3808L29.6251 29.718C30.5237 29.8989 31.1727 30.6604 31.1727 31.5404C31.1727 32.5678 30.2969 33.4034 29.2201 33.4034C29.1823 33.4034 29.1428 33.4022 29.0972 33.3992C28.7352 33.9267 28.127 34.2407 27.4657 34.2407Z" fill="#333333"/>
<path d="M26.0827 22.5488L25.3455 28.9166C24.4661 29.079 23.8018 29.8175 23.8018 30.7038C23.8018 31.7094 24.6565 32.5249 25.7106 32.5249C25.7597 32.5249 25.808 32.5224 25.8562 32.5191C26.195 33.0261 26.7891 33.3622 27.4658 33.3622C28.1424 33.3622 28.7366 33.0261 29.0758 32.5191C29.1236 32.5224 29.1723 32.5249 29.221 32.5249C30.275 32.5249 31.1298 31.7094 31.1298 30.7038C31.1298 29.8171 30.4655 29.079 29.5861 28.9166L28.8493 22.5488" fill="#7FD6C7"/>
<path d="M27.4657 33.4038C26.8044 33.4038 26.1963 33.0898 25.8334 32.5623C25.7882 32.5653 25.7487 32.5665 25.7105 32.5665C24.6337 32.5665 23.7578 31.7309 23.7578 30.7035C23.7578 29.8235 24.4068 29.062 25.3055 28.8811L26.0392 22.5439C26.0418 22.5209 26.0637 22.5046 26.0874 22.5071C26.1116 22.5096 26.1287 22.5305 26.126 22.5531L25.3889 28.9204C25.3867 28.9389 25.3726 28.9535 25.3537 28.9569C24.4796 29.1185 23.8456 29.8528 23.8456 30.7031C23.8456 31.684 24.6819 32.4824 25.7105 32.4824C25.7531 32.4824 25.7983 32.4807 25.8527 32.4765C25.8689 32.4752 25.8843 32.4828 25.893 32.4958C26.2379 33.0115 26.8259 33.3197 27.4657 33.3197C28.1055 33.3197 28.6935 33.0115 29.0384 32.4958C29.0472 32.4828 29.0625 32.4752 29.0788 32.4765C29.1332 32.4803 29.1784 32.4824 29.2209 32.4824C30.2491 32.4824 31.0859 31.6844 31.0859 30.7031C31.0859 29.8528 30.4513 29.1181 29.5772 28.9569C29.5584 28.9535 29.5439 28.9385 29.5421 28.9204L29.0301 24.4949C29.0274 24.4718 29.0445 24.4513 29.0687 24.4488C29.0932 24.4463 29.1143 24.463 29.1169 24.4856L29.6255 28.8811C30.5242 29.062 31.1732 29.8235 31.1732 30.7035C31.1732 31.7309 30.2973 32.5665 29.2205 32.5665C29.1828 32.5665 29.1433 32.5653 29.0976 32.5623C28.7352 33.0898 28.127 33.4038 27.4657 33.4038ZM28.977 23.7003C28.955 23.7003 28.9357 23.6843 28.9335 23.663L28.8049 22.5536C28.8023 22.5305 28.8194 22.51 28.8436 22.5075C28.8681 22.505 28.8892 22.5217 28.8918 22.5444L29.0204 23.6538C29.023 23.6768 29.0055 23.6973 28.9818 23.6998C28.98 23.7003 28.9787 23.7003 28.977 23.7003Z" fill="#333333"/>
<path d="M26.9649 29.3644C26.9636 29.3644 26.9627 29.3644 26.9614 29.3644C26.9372 29.3627 26.9193 29.3426 26.921 29.3196L26.9824 28.566C26.9842 28.5429 27.0053 28.5258 27.0294 28.5275C27.0535 28.5291 27.0715 28.5492 27.0697 28.5723L27.0083 29.3258C27.007 29.3476 26.9877 29.3644 26.9649 29.3644Z" fill="#333333"/>
<path d="M27.4658 29.3637C27.4416 29.3637 27.4219 29.3449 27.4219 29.3218V28.5682C27.4219 28.5452 27.4416 28.5264 27.4658 28.5264C27.4899 28.5264 27.5096 28.5452 27.5096 28.5682V29.3218C27.5096 29.3449 27.4899 29.3637 27.4658 29.3637Z" fill="#333333"/>
<path d="M27.9653 29.3644C27.9425 29.3644 27.9232 29.3477 27.9215 29.3259L27.9179 29.2819C27.9162 29.2589 27.9342 29.2388 27.9583 29.2371C27.9829 29.2355 28.0035 29.2526 28.0053 29.2756L28.0088 29.3196C28.0105 29.3426 27.9925 29.3627 27.9684 29.3644C27.9675 29.364 27.9666 29.3644 27.9653 29.3644ZM27.928 28.903C27.9052 28.903 27.8859 28.8863 27.8842 28.8645L27.8605 28.5723C27.8587 28.5493 27.8767 28.5292 27.9008 28.5275C27.9254 28.5254 27.946 28.543 27.9478 28.566L27.9715 28.8582C27.9732 28.8813 27.9552 28.9014 27.9311 28.903C27.9302 28.903 27.9289 28.903 27.928 28.903Z" fill="#333333"/>
<path d="M20.9164 28.8092C20.9164 29.3798 20.0178 29.4233 18.9089 29.4233C17.8005 29.4233 16.9014 29.3794 16.9014 28.8092C16.9014 28.2386 17.8 27.7764 18.9089 27.7764C20.0178 27.7759 20.9164 28.2386 20.9164 28.8092Z" fill="#7FD6C7"/>
<path d="M38.0297 28.8092C38.0297 29.3798 37.131 29.4233 36.0222 29.4233C34.9133 29.4233 34.0146 29.3794 34.0146 28.8092C34.0146 28.2386 34.9133 27.7764 36.0222 27.7764C37.131 27.7764 38.0297 28.2386 38.0297 28.8092Z" fill="#7FD6C7"/>
<path d="M23.0958 23.729C23.0958 23.729 21.3511 25.8223 19.1988 25.8223C17.0464 25.8223 15.3018 23.729 15.3018 23.729C15.3018 23.729 17.0464 21.6357 19.1988 21.6357C21.3511 21.6357 23.0958 23.729 23.0958 23.729Z" fill="white"/>
<path d="M19.1996 25.8644C17.0512 25.8644 15.2859 23.7766 15.2683 23.7553C15.2556 23.7402 15.2556 23.7184 15.2683 23.7029C15.2859 23.682 17.0512 21.5938 19.1996 21.5938C21.348 21.5938 23.1133 23.6816 23.1308 23.7029C23.1436 23.718 23.1436 23.7398 23.1308 23.7553C23.1128 23.7766 21.348 25.8644 19.1996 25.8644ZM15.3592 23.7293C15.5698 23.9696 17.2232 25.7807 19.1991 25.7807C21.1751 25.7807 22.8285 23.9696 23.0391 23.7293C22.8285 23.489 21.1751 21.6779 19.1991 21.6779C17.2223 21.6779 15.5698 23.489 15.3592 23.7293Z" fill="#333333"/>
<path d="M21.3939 23.729C21.3939 24.8849 20.4114 25.8223 19.1999 25.8223C17.9883 25.8223 17.0059 24.8849 17.0059 23.729C17.0059 22.5731 17.9883 21.6357 19.1999 21.6357C20.4114 21.6357 21.3939 22.5731 21.3939 23.729Z" fill="#333333"/>
<path d="M19.1998 25.865C17.9659 25.865 16.9619 24.9071 16.9619 23.7299C16.9619 22.5526 17.9659 21.5947 19.1998 21.5947C20.4337 21.5947 21.4377 22.5526 21.4377 23.7299C21.4377 24.9071 20.4337 25.865 19.1998 25.865ZM19.1998 21.6785C18.0142 21.6785 17.0497 22.5987 17.0497 23.7299C17.0497 24.8611 18.0142 25.7813 19.1998 25.7813C20.3855 25.7813 21.35 24.8611 21.35 23.7299C21.35 22.5987 20.385 21.6785 19.1998 21.6785Z" fill="#333333"/>
<path d="M20.5156 23.7296C20.5156 24.4233 19.9263 24.9856 19.1992 24.9856C18.4721 24.9856 17.8828 24.4233 17.8828 23.7296C17.8828 23.0359 18.4721 22.4736 19.1992 22.4736C19.9259 22.4736 20.5156 23.0363 20.5156 23.7296Z" fill="white"/>
<path d="M19.1992 25.0273C18.4492 25.0273 17.8389 24.445 17.8389 23.7295C17.8389 23.014 18.4492 22.4316 19.1992 22.4316C19.9491 22.4316 20.5595 23.014 20.5595 23.7295C20.5595 24.445 19.9491 25.0273 19.1992 25.0273ZM19.1992 22.5154C18.4975 22.5154 17.9266 23.06 17.9266 23.7295C17.9266 24.3989 18.4975 24.9436 19.1992 24.9436C19.9008 24.9436 20.4717 24.3989 20.4717 23.7295C20.4717 23.06 19.9008 22.5154 19.1992 22.5154Z" fill="#333333"/>
<path d="M19.1992 26.7432C19.175 26.7432 19.1553 26.7244 19.1553 26.7013C19.1553 26.6783 19.175 26.6595 19.1992 26.6595C21.3059 26.6595 23.0444 24.6026 23.0615 24.5821C23.0764 24.5641 23.1041 24.5612 23.1234 24.5754C23.1423 24.5896 23.1453 24.616 23.1304 24.6344C23.1124 24.6554 21.3475 26.7432 19.1992 26.7432Z" fill="#333333"/>
<path d="M31.835 23.729C31.835 23.729 33.5796 25.8223 35.732 25.8223C37.8843 25.8223 39.629 23.729 39.629 23.729C39.629 23.729 37.8843 21.6357 35.732 21.6357C33.5796 21.6357 31.835 23.729 31.835 23.729Z" fill="white"/>
<path d="M35.7318 25.8644C33.5834 25.8644 31.8181 23.7766 31.8006 23.7553C31.7878 23.7402 31.7878 23.7184 31.8006 23.7029C31.8181 23.682 33.5834 21.5938 35.7318 21.5938C37.8802 21.5938 39.6456 23.6816 39.6631 23.7029C39.6758 23.718 39.6758 23.7398 39.6631 23.7553C39.6456 23.7766 37.8802 25.8644 35.7318 25.8644ZM31.8918 23.7293C32.1025 23.9696 33.7559 25.7807 35.7318 25.7807C37.7078 25.7807 39.3612 23.9696 39.5718 23.7293C39.3612 23.489 37.7078 21.6779 35.7318 21.6779C33.7559 21.6779 32.1025 23.489 31.8918 23.7293Z" fill="#333333"/>
<path d="M33.5381 23.729C33.5381 24.8849 34.5206 25.8223 35.7321 25.8223C36.9437 25.8223 37.9261 24.8849 37.9261 23.729C37.9261 22.5731 36.9437 21.6357 35.7321 21.6357C34.5206 21.6357 33.5381 22.5731 33.5381 23.729Z" fill="#333333"/>
<path d="M35.7321 25.865C34.4981 25.865 33.4941 24.9071 33.4941 23.7299C33.4941 22.5526 34.4981 21.5947 35.7321 21.5947C36.966 21.5947 37.97 22.5526 37.97 23.7299C37.97 24.9071 36.966 25.865 35.7321 25.865ZM35.7321 21.6785C34.5464 21.6785 33.5819 22.5987 33.5819 23.7299C33.5819 24.8611 34.5464 25.7813 35.7321 25.7813C36.9177 25.7813 37.8822 24.8611 37.8822 23.7299C37.8822 22.5987 36.9177 21.6785 35.7321 21.6785Z" fill="#333333"/>
<path d="M34.416 23.7296C34.416 24.4233 35.0053 24.9856 35.7324 24.9856C36.4595 24.9856 37.0488 24.4233 37.0488 23.7296C37.0488 23.0359 36.4595 22.4736 35.7324 22.4736C35.0053 22.4736 34.416 23.0363 34.416 23.7296Z" fill="white"/>
<path d="M35.7324 25.0273C34.9824 25.0273 34.3721 24.445 34.3721 23.7295C34.3721 23.014 34.9824 22.4316 35.7324 22.4316C36.4823 22.4316 37.0927 23.014 37.0927 23.7295C37.0927 24.445 36.4823 25.0273 35.7324 25.0273ZM35.7324 22.5154C35.0307 22.5154 34.4598 23.06 34.4598 23.7295C34.4598 24.3989 35.0307 24.9436 35.7324 24.9436C36.434 24.9436 37.0049 24.3989 37.0049 23.7295C37.0049 23.06 36.434 22.5154 35.7324 22.5154Z" fill="#333333"/>
<path d="M35.7327 26.7436C35.5177 26.7436 35.2969 26.7227 35.0767 26.6813C35.053 26.6767 35.0372 26.6549 35.042 26.6323C35.0468 26.6097 35.0696 26.5946 35.0933 26.5992C35.3084 26.6394 35.5234 26.6599 35.7327 26.6599C35.7568 26.6599 35.7766 26.6787 35.7766 26.7018C35.7766 26.7248 35.7568 26.7436 35.7327 26.7436ZM34.6602 26.5778C34.6559 26.5778 34.6515 26.577 34.6471 26.5758C33.0226 26.0826 31.8137 24.6491 31.8014 24.6344C31.7865 24.6164 31.7896 24.5901 31.8085 24.5754C31.8273 24.5612 31.855 24.5641 31.8699 24.5821C31.8817 24.5963 33.0748 26.0101 34.6734 26.4958C34.6967 26.5029 34.7094 26.5264 34.7019 26.5485C34.6962 26.5665 34.6787 26.5778 34.6602 26.5778Z" fill="#333333"/>
<path d="M23.005 20.9942C22.9936 20.9942 22.9826 20.99 22.9738 20.9821C22.6281 20.6522 22.2388 20.3696 21.8172 20.1422C21.7961 20.1309 21.7886 20.1054 21.8005 20.0853C21.8123 20.0652 21.8391 20.0581 21.8602 20.0694C22.2889 20.3005 22.6842 20.5873 23.0357 20.9226C23.0528 20.9389 23.0528 20.9653 23.0357 20.9816C23.0274 20.9904 23.0164 20.9942 23.005 20.9942ZM15.3623 20.9942C15.3509 20.9942 15.34 20.99 15.3312 20.9821C15.3141 20.9657 15.3141 20.9394 15.3312 20.923C16.3602 19.9413 17.7284 19.4004 19.1839 19.4004C19.9685 19.4004 20.7583 19.5653 21.467 19.8772C21.4889 19.8869 21.4986 19.912 21.4885 19.9329C21.4784 19.9539 21.4521 19.9631 21.4301 19.9534C20.7324 19.6466 19.9557 19.4841 19.1839 19.4841C17.7521 19.4841 16.4058 20.0162 15.3935 20.9821C15.3847 20.9904 15.3738 20.9942 15.3623 20.9942Z" fill="#333333"/>
<path d="M39.569 20.9942C39.5576 20.9942 39.5466 20.99 39.5378 20.9821C38.5255 20.0162 37.1797 19.4841 35.7479 19.4841C34.3161 19.4841 32.9698 20.0162 31.9575 20.9821C31.9404 20.9984 31.9128 20.9984 31.8956 20.9821C31.8785 20.9657 31.8785 20.9394 31.8956 20.923C32.9242 19.9413 34.2924 19.4004 35.7479 19.4004C37.203 19.4004 38.5712 19.9413 39.6002 20.923C39.6173 20.9394 39.6173 20.9657 39.6002 20.9821C39.5918 20.9904 39.5804 20.9942 39.569 20.9942Z" fill="#333333"/>
</g>
<path d="M56.8575 61.7932V55.7932H55.2735V61.5892C55.2735 62.4772 54.8295 62.8132 54.0975 62.8132C53.6655 62.8132 53.4135 62.7652 53.1495 62.6932L53.3655 64.0732C53.5815 64.1092 53.9415 64.1572 54.3135 64.1572C55.8015 64.1572 56.8575 63.4732 56.8575 61.7932ZM60.703 59.1532C61.399 59.1532 61.759 59.6572 61.855 60.5572H59.539C59.647 59.6212 60.127 59.1532 60.703 59.1532ZM63.247 63.4852L63.079 62.3572C62.443 62.8012 61.831 63.0772 61.087 63.0772C60.199 63.0772 59.587 62.5852 59.527 61.4572H63.247C63.247 61.3732 63.259 61.2292 63.259 61.1092C63.259 59.4652 62.479 58.1572 60.739 58.1572C59.227 58.1572 58.099 59.2972 58.099 61.1812C58.099 63.2692 59.311 64.1932 60.931 64.1932C61.867 64.1932 62.623 63.9172 63.247 63.4852ZM68.7184 62.3692C68.7184 61.2772 68.1304 60.8692 66.6304 60.4852C65.7664 60.2572 65.5504 60.0772 65.5504 59.7652C65.5504 59.4532 65.8144 59.2372 66.3544 59.2372C66.9304 59.2372 67.6144 59.4412 68.1904 59.7652L68.3824 58.5652C67.8064 58.3132 67.1104 58.1572 66.3544 58.1572C65.0104 58.1572 64.2184 58.8652 64.2184 59.8732C64.2184 60.9292 64.8064 61.3372 66.2104 61.6972C67.1344 61.9252 67.3864 62.0932 67.3864 62.5012C67.3864 62.8852 67.0504 63.1132 66.4264 63.1132C65.7064 63.1132 64.9384 62.8372 64.3144 62.4292L64.1224 63.6292C64.6744 63.9292 65.5384 64.1932 66.3784 64.1932C67.9024 64.1932 68.7184 63.5092 68.7184 62.3692ZM69.8359 58.2772V62.4412C69.8359 63.5332 70.3999 64.1932 71.4919 64.1932C72.2599 64.1932 72.8839 63.7732 73.4239 63.2572L73.5559 64.0732H74.7799V58.2772H73.3399V62.1892C72.9199 62.6212 72.4639 62.9092 72.0199 62.9092C71.4919 62.9092 71.2759 62.5732 71.2759 62.0692V58.2772H69.8359ZM79.7386 59.5852L79.5106 58.1572C78.6106 58.2052 78.0346 58.7692 77.6506 59.4412L77.4706 58.2772H76.2466V64.0732H77.6866V60.7492C78.1066 60.1252 78.8386 59.6452 79.7386 59.5852ZM84.2049 64.1572L85.7409 63.9292L83.4729 60.8932L85.6089 58.2772H83.9769L82.0929 60.6772V55.4092L80.6529 55.6372V64.0732H82.0929V61.1932L84.2049 64.1572ZM89.6334 62.4772C89.2374 62.8612 88.7694 63.1012 88.2774 63.1012C87.8334 63.1012 87.5694 62.8492 87.5694 62.4292C87.5694 61.8772 87.9654 61.3852 89.6334 61.1812V62.4772ZM91.0734 64.0732V60.1012C91.0734 58.7092 90.3294 58.1572 88.8294 58.1572C87.9054 58.1572 87.1974 58.3612 86.5254 58.6252L86.7054 59.7772C87.3294 59.5012 87.9654 59.3092 88.6374 59.3092C89.2734 59.3092 89.6334 59.5492 89.6334 60.1732V60.3412C87.2934 60.5692 86.1414 61.1812 86.1414 62.5852C86.1414 63.5932 86.8014 64.1932 87.7854 64.1932C88.6494 64.1932 89.2494 63.8092 89.7174 63.3172L89.8374 64.0732H91.0734Z" fill="white"/>
<path d="M56.4855 82.4761L56.3415 81.5641C56.2095 81.5881 56.0415 81.6001 55.8495 81.6001C55.2495 81.6001 55.0575 81.3121 55.0575 80.8441V77.6281H56.4375L56.2935 76.7281H55.0575V74.6641L54.0135 74.8201V76.7281H53.1495V77.6281H54.0135V81.0361C54.0135 82.1881 54.6735 82.5481 55.6815 82.5481C56.0535 82.5481 56.3055 82.5121 56.4855 82.4761ZM62.4484 82.4521V78.2881C62.4484 77.2561 61.8724 76.6081 60.7924 76.6081C59.9764 76.6081 59.3164 77.0641 58.8484 77.4841V73.7881L57.7804 73.9561V82.4521H58.8484V78.4921C59.3644 77.9401 59.9404 77.5681 60.5044 77.5681C61.1284 77.5681 61.3804 77.9641 61.3804 78.5521V82.4521H62.4484ZM67.3726 80.8801C66.8926 81.3721 66.2926 81.6841 65.6686 81.6841C65.1286 81.6841 64.8166 81.3841 64.8166 80.9161C64.8166 80.3281 65.2606 79.7521 67.3726 79.5481V80.8801ZM68.4406 82.4521V78.4441C68.4406 77.1721 67.7686 76.6081 66.3766 76.6081C65.4886 76.6081 64.8406 76.8121 64.1566 77.0881L64.3006 78.0121C64.9246 77.7361 65.5846 77.5201 66.2806 77.5201C66.9406 77.5201 67.3726 77.7721 67.3726 78.4921V78.7321C64.9846 78.9841 63.7606 79.5481 63.7606 80.9761C63.7606 81.9481 64.4086 82.5721 65.4406 82.5721C66.3766 82.5721 67.0006 82.1521 67.4566 81.6841L67.5766 82.4521H68.4406ZM74.7648 82.4521V78.2881C74.7648 77.2561 74.1888 76.6081 73.1088 76.6081C72.2928 76.6081 71.6208 77.0641 71.0808 77.5561L70.9488 76.7281H70.0968V82.4521H71.1648V78.4921C71.6808 77.9401 72.2568 77.5681 72.8208 77.5681C73.4448 77.5681 73.6968 77.9641 73.6968 78.5521V82.4521H74.7648ZM80.037 82.5361L81.201 82.3561L78.585 79.2601L80.997 76.7281H79.713L77.493 79.1281V73.7881L76.425 73.9561V82.4521H77.493V79.4521L80.037 82.5361ZM86.0928 80.8561C86.0928 79.7641 85.4568 79.3561 84.0408 78.9961C83.1408 78.7681 82.8528 78.5521 82.8528 78.1681C82.8528 77.7601 83.1888 77.5081 83.8368 77.5081C84.4368 77.5081 85.0728 77.7121 85.5768 78.0001L85.7448 76.9921C85.2048 76.7521 84.5688 76.6081 83.8608 76.6081C82.6128 76.6081 81.8448 77.2801 81.8448 78.1921C81.8448 79.2121 82.3848 79.6201 83.7288 79.9561C84.7608 80.2081 85.0848 80.4001 85.0848 80.9281C85.0848 81.4081 84.6528 81.6841 83.9208 81.6841C83.1408 81.6841 82.4448 81.3961 81.9048 81.0241L81.7488 82.0321C82.2408 82.3081 83.0808 82.5721 83.8368 82.5721C85.3128 82.5721 86.0928 81.9001 86.0928 80.8561ZM88.8454 74.1721H87.5614L87.8494 79.9921L88.5454 79.8361L88.8454 74.1721ZM88.7974 82.4521V81.0241H87.5974V82.4521H88.7974ZM92.115 74.1721H90.831L91.119 79.9921L91.815 79.8361L92.115 74.1721ZM92.067 82.4521V81.0241H90.867V82.4521H92.067ZM97.8772 74.9041C97.8772 74.5321 97.5772 74.2201 97.2052 74.2201C96.8332 74.2201 96.5212 74.5321 96.5212 74.9041C96.5212 75.2761 96.8332 75.5761 97.2052 75.5761C97.5772 75.5761 97.8772 75.2761 97.8772 74.9041ZM97.7332 82.4521V76.7281H96.6652V82.4521H97.7332ZM110.26 82.4521V78.2881C110.26 77.2561 109.732 76.6081 108.64 76.6081C107.836 76.6081 107.14 77.0641 106.624 77.5561C106.408 76.9681 105.952 76.6081 105.112 76.6081C104.308 76.6081 103.66 77.0641 103.12 77.5561L102.988 76.7281H102.136V82.4521H103.204V78.4921C103.72 77.9401 104.26 77.5681 104.824 77.5681C105.448 77.5681 105.664 77.9641 105.664 78.5521V82.4521H106.732V78.4921C107.248 77.9401 107.788 77.5681 108.352 77.5681C108.976 77.5681 109.192 77.9641 109.192 78.5521V82.4521H110.26ZM115.185 80.8801C114.705 81.3721 114.105 81.6841 113.481 81.6841C112.941 81.6841 112.629 81.3841 112.629 80.9161C112.629 80.3281 113.073 79.7521 115.185 79.5481V80.8801ZM116.253 82.4521V78.4441C116.253 77.1721 115.581 76.6081 114.189 76.6081C113.301 76.6081 112.653 76.8121 111.969 77.0881L112.113 78.0121C112.737 77.7361 113.397 77.5201 114.093 77.5201C114.753 77.5201 115.185 77.7721 115.185 78.4921V78.7321C112.797 78.9841 111.573 79.5481 111.573 80.9761C111.573 81.9481 112.221 82.5721 113.253 82.5721C114.189 82.5721 114.813 82.1521 115.269 81.6841L115.389 82.4521H116.253ZM118.665 79.7041C118.665 78.2881 119.313 77.5561 120.213 77.5561C120.825 77.5561 121.173 77.6521 121.617 77.8801V80.6161C121.161 81.2281 120.657 81.6241 119.997 81.6241C119.229 81.6241 118.665 80.9641 118.665 79.7041ZM117.585 79.7521C117.585 81.6721 118.605 82.5721 119.841 82.5721C120.681 82.5721 121.269 82.1401 121.701 81.6241L121.833 82.4521H122.685V73.7881L121.617 73.9561V76.9081C121.257 76.7641 120.741 76.6561 120.177 76.6561C118.785 76.6561 117.585 77.6641 117.585 79.7521ZM126.55 77.4481C127.378 77.4481 127.786 77.9761 127.918 78.9001H125.158C125.326 77.9281 125.89 77.4481 126.55 77.4481ZM128.986 81.8041L128.83 80.8441C128.206 81.3361 127.606 81.6601 126.778 81.6601C125.782 81.6601 125.158 81.0361 125.11 79.7041H128.998V79.4761C128.998 77.8921 128.23 76.6081 126.562 76.6081C125.122 76.6081 124.042 77.7361 124.042 79.5721C124.042 81.6721 125.206 82.5721 126.694 82.5721C127.642 82.5721 128.374 82.2841 128.986 81.8041ZM134.287 74.9041C134.287 74.5321 133.987 74.2201 133.615 74.2201C133.243 74.2201 132.931 74.5321 132.931 74.9041C132.931 75.2761 133.243 75.5761 133.615 75.5761C133.987 75.5761 134.287 75.2761 134.287 74.9041ZM134.143 82.4521V76.7281H133.075V82.4521H134.143ZM138.657 82.4761L138.513 81.5641C138.381 81.5881 138.213 81.6001 138.021 81.6001C137.421 81.6001 137.229 81.3121 137.229 80.8441V77.6281H138.609L138.465 76.7281H137.229V74.6641L136.185 74.8201V76.7281H135.321V77.6281H136.185V81.0361C136.185 82.1881 136.845 82.5481 137.853 82.5481C138.225 82.5481 138.477 82.5121 138.657 82.4761ZM141.392 74.1721H140.108L140.396 79.9921L141.092 79.8361L141.392 74.1721ZM141.344 82.4521V81.0241H140.144V82.4521H141.344Z" fill="#DCDDDE"/>
<g clip-path="url(#clip1)">
<path d="M153.651 75.692H155.124C155.239 75.692 155.345 75.6304 155.404 75.5291L156.778 73.1138C157.258 72.2705 158.49 72.3101 158.904 73.1886C160.637 76.8523 162.615 84.7466 159.152 84.7466H154.725V84.7422L148.701 84.7466C148.31 84.7466 147.951 84.4769 147.761 84.1323C146.851 82.4799 146.702 80.3255 147.482 78.6247C147.696 78.1579 148.927 76.0982 148.987 75.9331L150.556 72.9674C150.896 72.3245 151.818 72.3399 152.136 72.9938L153.362 75.5104C153.416 75.6215 153.528 75.692 153.651 75.692Z" fill="#FFFBF0"/>
<path d="M158.769 80.5557C156.877 80.5557 156.874 83.506 158.769 83.506C160.66 83.506 160.663 80.5557 158.769 80.5557Z" fill="#FFBEB3"/>
<path d="M148.24 80.4336C146.347 80.4336 146.344 83.3861 148.24 83.3861C150.133 83.3861 150.137 80.4336 148.24 80.4336Z" fill="#FFBEB3"/>
<path d="M150.381 81.9862C149.1 81.9014 148.995 83.7839 148.96 84.746H149.61C149.638 84.1075 149.77 82.1964 150.615 82.7843C151.175 83.1751 151.177 84.1064 151.158 84.746H151.807C151.824 83.7762 151.628 82.0687 150.381 81.9862Z" fill="#CCB2CE"/>
<path d="M156.304 81.9862C155.023 81.9014 154.918 83.7839 154.883 84.746H155.533C155.561 84.1075 155.693 82.1964 156.538 82.7843C157.098 83.1751 157.099 84.1064 157.081 84.746H157.73C157.746 83.7762 157.551 82.0687 156.304 81.9862Z" fill="#CCB2CE"/>
<path d="M154.369 80.1528C154.335 80.4919 154.003 80.8309 153.823 80.3807C153.725 80.1363 153.358 80.0669 153.2 80.2948C153.069 80.4842 152.851 80.8849 152.511 80.5623C152.399 80.4555 152.353 80.1979 152.309 80.0592C152.17 79.6112 151.498 79.8908 151.637 80.3366C151.783 80.8056 152.02 81.3043 152.542 81.4309C152.896 81.5168 153.19 81.3737 153.43 81.1513C153.617 81.3637 153.869 81.4672 154.232 81.3582C154.723 81.2107 155.039 80.7594 155.089 80.2607C155.135 79.7939 154.415 79.6849 154.369 80.1528Z" fill="#745A77"/>
<path d="M158.183 79.5915C158.143 79.0774 157.353 79.1886 157.394 79.7005C157.416 79.9812 157.384 80.6395 156.951 80.6098C156.547 80.5812 156.583 79.8579 156.568 79.597C156.542 79.171 155.835 79.1677 155.813 79.5981C155.775 80.361 156.021 81.4277 156.986 81.4035C157.933 81.3804 158.246 80.3841 158.183 79.5915Z" fill="#745A77"/>
<path d="M151.133 79.5915C151.092 79.0774 150.302 79.1886 150.343 79.7005C150.365 79.9812 150.333 80.6395 149.9 80.6098C149.496 80.5812 149.532 79.8579 149.517 79.597C149.491 79.171 148.784 79.1677 148.763 79.5981C148.724 80.361 148.97 81.4277 149.935 81.4035C150.883 81.3804 151.195 80.3841 151.133 79.5915Z" fill="#745A77"/>
<path d="M148.325 81.5904C148.351 81.5948 148.375 81.597 148.401 81.597C148.608 81.597 148.759 81.4341 148.792 81.2558C148.829 81.0499 148.714 80.8804 148.51 80.8429C147.99 80.7483 147.469 80.6228 146.963 80.4687C146.832 80.429 146.703 80.4576 146.61 80.5457C146.507 80.6437 146.46 80.7978 146.494 80.9398C146.525 81.0719 146.619 81.1699 146.754 81.2106C147.268 81.3659 147.796 81.4936 148.325 81.5904Z" fill="#745A77"/>
<path d="M148.338 82.1112C147.843 82.2411 147.344 82.3787 146.857 82.5207C146.622 82.589 146.55 82.8191 146.602 83.0007C146.646 83.1515 146.774 83.2792 146.951 83.2792C146.987 83.2792 147.024 83.2737 147.064 83.2627C147.549 83.1218 148.046 82.9842 148.539 82.8554C148.671 82.8202 148.767 82.7288 148.802 82.6033C148.839 82.4657 148.799 82.3094 148.698 82.2059C148.604 82.1101 148.473 82.076 148.338 82.1112Z" fill="#745A77"/>
<path d="M158.627 81.7907C158.661 81.7907 158.696 81.7863 158.732 81.7764C159.271 81.6354 159.813 81.478 160.342 81.3074C160.581 81.2303 160.647 80.9936 160.588 80.8087C160.532 80.6337 160.357 80.4938 160.13 80.5665C159.603 80.736 159.065 80.8924 158.532 81.0322C158.296 81.0938 158.221 81.3107 158.268 81.4945C158.31 81.6542 158.442 81.7907 158.627 81.7907Z" fill="#745A77"/>
<path d="M160.911 82.7535C160.853 82.6159 160.735 82.5268 160.588 82.508C159.974 82.431 159.337 82.3286 158.695 82.2031C158.554 82.1756 158.419 82.2218 158.326 82.3286C158.229 82.4398 158.195 82.5972 158.24 82.7271C158.28 82.8427 158.377 82.9242 158.507 82.9495C159.167 83.0783 159.858 83.1873 160.561 83.2764C160.579 83.2786 160.596 83.2797 160.614 83.2797C160.72 83.2797 160.811 83.2368 160.873 83.1554C160.954 83.0486 160.969 82.8911 160.911 82.7535Z" fill="#745A77"/>
</g>
<ellipse cx="27.466" cy="69.4311" rx="17.2931" ry="17.3579" fill="#69C49A"/>
<path d="M16.6913 61.4363L16.7604 61.6316C16.9959 62.2984 17.3901 62.9008 17.9005 63.3744L17.9259 63.3979C18.2634 63.7114 18.5513 64.0753 18.7813 64.4795C19.1405 65.1104 19.6519 65.6405 20.2606 66.0134C20.2611 66.0134 20.2611 66.014 20.2617 66.014C20.6516 66.2524 21.0026 66.5508 21.3051 66.9007L21.3283 66.9276C21.7852 67.4561 22.3668 67.8647 23.0095 68.1088L23.1985 68.1805C23.5171 68.3014 23.8228 68.4615 24.1069 68.6552L24.8479 69.1607L24.3596 68.3926C24.1728 68.0987 24.0189 67.7813 23.9017 67.451L23.8325 67.2556C23.5971 66.5889 23.2028 65.9865 22.6925 65.5129L22.6671 65.4894C22.3295 65.1759 22.0417 64.812 21.8116 64.4078C21.4525 63.7775 20.941 63.2473 20.3329 62.8745C20.3324 62.8739 20.3319 62.8739 20.3313 62.8733C19.9414 62.6349 19.5904 62.3365 19.2879 61.9866L19.2647 61.9603C18.8078 61.4312 18.2262 61.0226 17.5835 60.7785L17.3945 60.7068C17.0753 60.5853 16.7696 60.4258 16.4861 60.2321L15.7451 59.7266L16.2333 60.4946C16.4202 60.788 16.5741 61.1049 16.6913 61.4363ZM20.2962 63.5619C20.765 63.5619 21.1463 63.9572 21.1463 64.4431C21.1463 64.929 20.765 65.3242 20.2962 65.3242C19.8274 65.3242 19.4462 64.929 19.4462 64.4431C19.4462 63.9572 19.8274 63.5619 20.2962 63.5619Z" fill="#FFF9C6"/>
<path d="M17.7559 63.5409L17.7813 63.5644C18.1021 63.8622 18.3759 64.2082 18.5946 64.5928C18.9726 65.2562 19.5105 65.8144 20.1511 66.2062C20.1516 66.2062 20.1516 66.2068 20.1521 66.2068C20.5226 66.4335 20.8564 66.7174 21.1431 67.0493L21.1664 67.0762C21.647 67.6321 22.2584 68.0615 22.9345 68.3185L23.1236 68.3901C23.4271 68.5055 23.7176 68.6572 23.9877 68.8413L25.1666 69.6464C25.185 69.6587 25.2055 69.6649 25.226 69.6649C25.2541 69.6649 25.2816 69.6537 25.3022 69.6318C25.3384 69.5943 25.3443 69.5355 25.3162 69.4913L24.5396 68.2686C24.3619 67.9887 24.215 67.6875 24.1043 67.3729L24.0352 67.1775C23.7873 66.4766 23.3731 65.8429 22.8368 65.3447L22.8114 65.3212C22.4906 65.0233 22.2168 64.6774 21.9981 64.2927C21.62 63.6294 21.0821 63.0712 20.4416 62.6793C20.4411 62.6788 20.4405 62.6788 20.44 62.6782C20.0695 62.4515 19.7363 62.1682 19.4495 61.8357L19.4263 61.8094C18.9456 61.2534 18.3343 60.8235 17.6581 60.5671L17.4691 60.4954C17.1656 60.3801 16.875 60.2284 16.605 60.0442L15.426 59.2392C15.3834 59.2101 15.3267 59.2157 15.2905 59.2537C15.2543 59.2912 15.2484 59.35 15.2764 59.3943L16.0531 60.6164C16.2307 60.8963 16.3771 61.1975 16.4883 61.5121L16.5575 61.7075C16.8048 62.4089 17.2196 63.0427 17.7559 63.5409ZM16.4856 60.2312C16.7692 60.4249 17.0749 60.5844 17.394 60.7059L17.5831 60.7776C18.2263 61.0217 18.8074 61.4303 19.2643 61.9594L19.2875 61.9857C19.5899 62.3356 19.9404 62.6334 20.3309 62.8725C20.3314 62.873 20.332 62.873 20.3325 62.8736C20.9406 63.2459 21.4521 63.7766 21.8112 64.407C22.0413 64.8111 22.3291 65.175 22.6667 65.4885L22.692 65.5121C23.2024 65.9857 23.5961 66.5886 23.8321 67.2548L23.9012 67.4502C24.0179 67.781 24.1724 68.0979 24.3592 68.3918L24.8474 69.1599L24.1065 68.6544C23.8224 68.4607 23.5167 68.3011 23.1981 68.1796L23.0091 68.108C22.3658 67.8639 21.7847 67.4552 21.3278 66.9267L21.3046 66.8999C21.0022 66.55 20.6517 66.2521 20.2612 66.0131C20.2607 66.0131 20.2607 66.0125 20.2601 66.0125C19.6515 65.6397 19.1401 65.1095 18.7809 64.4786C18.5503 64.0744 18.263 63.7105 17.9255 63.397L17.9001 63.3735C17.3903 62.8999 16.996 62.297 16.76 61.6308L16.6909 61.4354C16.5737 61.1045 16.4198 60.7877 16.2329 60.4932L15.7447 59.7251L16.4856 60.2312Z" fill="#69C49A"/>
<path d="M20.2954 65.3248C20.7641 65.3248 21.1454 64.9296 21.1454 64.4437C21.1454 63.9577 20.7641 63.5625 20.2954 63.5625C19.8266 63.5625 19.4453 63.9577 19.4453 64.4437C19.4453 64.9296 19.8266 65.3248 20.2954 65.3248Z" fill="#69C49A"/>
<path d="M39.1857 59.7256L38.4448 60.2311C38.1612 60.4248 37.8556 60.5844 37.5364 60.7058L37.3474 60.7775C36.7042 61.0216 36.1231 61.4303 35.6662 61.9593L35.6429 61.9862C35.3405 62.336 34.99 62.6339 34.5995 62.8729C34.599 62.8729 34.599 62.8735 34.5985 62.8735C33.9898 63.2463 33.4784 63.7765 33.1192 64.4074C32.8892 64.8116 32.6013 65.1755 32.2638 65.489L32.2384 65.5125C31.728 65.9861 31.3343 66.589 31.0983 67.2552L31.0292 67.4506C30.912 67.7815 30.7581 68.0983 30.5712 68.3922L30.083 69.1603L30.824 68.6548C31.108 68.4611 31.4137 68.3015 31.7324 68.1801L31.9214 68.1084C32.5646 67.8643 33.1457 67.4556 33.6026 66.9266L33.6258 66.8997C33.9282 66.5498 34.2793 66.2515 34.6692 66.013C35.2784 65.6401 35.7898 65.11 36.1495 64.4785C36.3796 64.0743 36.6674 63.7104 37.005 63.3969L37.0304 63.3734C37.5407 62.8998 37.9344 62.2969 38.1704 61.6307L38.2396 61.4353C38.3567 61.1044 38.5107 60.7876 38.6975 60.4931L39.1857 59.7256ZM34.6346 65.3244C34.1659 65.3244 33.7846 64.9292 33.7846 64.4432C33.7846 63.9573 34.1659 63.5621 34.6346 63.5621C35.1034 63.5621 35.4847 63.9573 35.4847 64.4432C35.4847 64.9292 35.1034 65.3244 34.6346 65.3244Z" fill="#FFF9C6"/>
<path d="M39.6408 59.2536C39.6046 59.2161 39.5479 59.2099 39.5052 59.239L38.3263 60.044C38.0562 60.2282 37.7657 60.3799 37.4622 60.4953L37.2732 60.5669C36.597 60.8239 35.9856 61.2533 35.505 61.8092L35.4818 61.836C35.1944 62.168 34.8612 62.4518 34.4907 62.6786C34.4902 62.6786 34.4902 62.6791 34.4897 62.6791C33.8497 63.071 33.3112 63.6286 32.9332 64.2925C32.7139 64.6771 32.4407 65.0231 32.1199 65.3209L32.0945 65.3445C31.5582 65.8427 31.1434 66.4764 30.8955 67.1773L30.8264 67.3727C30.7152 67.6873 30.5688 67.9885 30.3911 68.2684L29.6145 69.4905C29.5864 69.5347 29.5918 69.5935 29.6285 69.631C29.6496 69.6529 29.6772 69.6641 29.7052 69.6641C29.7258 69.6641 29.7463 69.6579 29.7646 69.6456L30.9436 68.8406C31.2136 68.6564 31.5042 68.5047 31.8077 68.3893L31.9967 68.3177C32.6729 68.0607 33.2842 67.6313 33.7649 67.0754L33.7881 67.0486C34.0754 66.716 34.4092 66.4322 34.7802 66.2055C35.4207 65.8136 35.9586 65.256 36.3367 64.5921C36.5554 64.2075 36.8292 63.8615 37.15 63.5637L37.1754 63.5401C37.7117 63.0419 38.1265 62.4082 38.3738 61.7073L38.4429 61.5119C38.5542 61.1973 38.7005 60.8961 38.8782 60.6162L39.6548 59.3941C39.6824 59.3499 39.677 59.2911 39.6408 59.2536ZM38.1702 61.6311C37.9347 62.2979 37.5405 62.9003 37.0301 63.3739L37.0047 63.3974C36.6672 63.7109 36.3799 64.0748 36.1493 64.479C35.7896 65.1099 35.2782 65.6406 34.669 66.0134C34.279 66.2519 33.928 66.5503 33.6256 66.9002L33.6023 66.9271C33.1454 67.4556 32.5638 67.8642 31.9211 68.1089L31.7321 68.1805C31.4129 68.3014 31.1072 68.4616 30.8237 68.6553L30.0827 69.1608L30.571 68.3927C30.7578 68.0988 30.9117 67.7819 31.0289 67.4511L31.0981 67.2557C31.3335 66.5889 31.7278 65.9866 32.2381 65.513L32.2635 65.4895C32.6011 65.1765 32.8889 64.8126 33.119 64.4079C33.4781 63.7769 33.9896 63.2468 34.5982 62.874C34.5988 62.874 34.5988 62.8734 34.5993 62.8734C34.9892 62.6349 35.3403 62.3365 35.6427 61.9866L35.6659 61.9598C36.1228 61.4307 36.7045 61.0226 37.3471 60.778L37.5362 60.7063C37.8553 60.5848 38.161 60.4253 38.4446 60.2316L39.1855 59.7261L38.6973 60.4941C38.5104 60.7886 38.356 61.1055 38.2393 61.4363L38.1702 61.6311Z" fill="#69C49A"/>
<path d="M34.6343 63.5615C34.1655 63.5615 33.7842 63.9568 33.7842 64.4427C33.7842 64.9286 34.1655 65.3238 34.6343 65.3238C35.1031 65.3238 35.4844 64.9286 35.4844 64.4427C35.4844 63.9568 35.1031 63.5615 34.6343 63.5615Z" fill="#69C49A"/>
<path d="M23.7495 78.3038C23.9979 78.8401 24.3711 79.5214 25.0569 80.0365C25.7077 80.5359 26.6064 80.8281 27.4645 80.823C28.3243 80.8286 29.223 80.5358 29.8732 80.037C30.5667 79.5158 30.935 78.8345 31.1785 78.2993C31.2201 78.1958 31.2633 78.0883 31.3065 77.9802C31.4578 77.6029 31.6106 77.2217 31.7948 76.818L31.3535 75.8271L30.1557 78.5182C30.1378 78.558 30.0995 78.5832 30.0574 78.5832C30.0152 78.5832 29.9769 78.558 29.9591 78.5182L28.7607 75.8271L27.5623 78.5182C27.5445 78.558 27.5061 78.5832 27.464 78.5832C27.4219 78.5832 27.3835 78.558 27.3657 78.5182L26.1679 75.8277L24.97 78.5182C24.9522 78.558 24.9138 78.5832 24.8717 78.5832C24.8296 78.5832 24.7912 78.558 24.7734 78.5182L23.5756 75.8277L23.1338 76.8197C23.3201 77.229 23.4735 77.6147 23.6258 77.997C23.6674 78.1 23.7084 78.2019 23.7495 78.3038Z" fill="#FFF9C6"/>
<path d="M33.7731 73.6396C29.7913 75.2407 25.1381 75.2407 21.1562 73.6396C22.0781 74.8142 22.6198 75.739 23.013 76.5591L23.4785 75.5139C23.4963 75.4742 23.5347 75.449 23.5768 75.449C23.6189 75.449 23.6573 75.4742 23.6751 75.5139L24.8729 78.2045L26.0708 75.5139C26.0886 75.4742 26.127 75.449 26.1691 75.449C26.2112 75.449 26.2496 75.4742 26.2674 75.5139L27.4652 78.2045L28.6631 75.5139C28.6809 75.4742 28.7192 75.449 28.7614 75.449C28.8035 75.449 28.8418 75.4742 28.8597 75.5139L30.0581 78.205L31.2559 75.5139C31.2737 75.4742 31.3121 75.449 31.3542 75.449C31.3963 75.449 31.4347 75.4742 31.4525 75.5139L31.9175 76.5586C32.3096 75.7384 32.8512 74.8142 33.7731 73.6396Z" fill="#FFF9C6"/>
<path d="M34.2114 73.4428C34.2438 73.403 34.2454 73.3459 34.2157 73.3045C34.186 73.2631 34.1331 73.2474 34.0872 73.2675C29.9406 75.0674 24.9888 75.0679 20.8417 73.2675C20.7958 73.2474 20.7423 73.2631 20.7132 73.3045C20.684 73.3459 20.6856 73.4036 20.7175 73.4428C22.4035 75.5124 22.9236 76.819 23.4264 78.0831C23.4675 78.1867 23.5085 78.2897 23.5501 78.3933C23.5506 78.3949 23.5517 78.3966 23.5523 78.3989C23.8115 78.9592 24.2025 79.673 24.9278 80.2183C25.6164 80.7467 26.5274 81.0485 27.4315 81.0485C27.4526 81.0485 27.4736 81.0485 27.4947 81.0485C28.4004 81.0485 29.3115 80.7467 29.9995 80.2188C30.7318 79.6685 31.1179 78.9559 31.3739 78.3921C31.4177 78.2841 31.4609 78.176 31.5046 78.068C32.0096 76.8073 32.5318 75.5046 34.2114 73.4428ZM31.3523 75.4492C31.3102 75.4492 31.2719 75.4743 31.254 75.5141L30.0562 78.2052L28.8578 75.5141C28.84 75.4743 28.8016 75.4492 28.7595 75.4492C28.7174 75.4492 28.679 75.4743 28.6612 75.5141L27.4634 78.2046L26.2655 75.5141C26.2477 75.4743 26.2093 75.4492 26.1672 75.4492C26.1251 75.4492 26.0868 75.4743 26.0689 75.5141L24.8711 78.2046L23.6732 75.5141C23.6554 75.4743 23.6171 75.4492 23.5749 75.4492C23.5328 75.4492 23.4945 75.4743 23.4766 75.5141L23.0111 76.5593C22.618 75.7391 22.0763 74.8143 21.1544 73.6398C25.1363 75.2409 29.7894 75.2409 33.7713 73.6398C32.8494 74.8143 32.3077 75.7386 31.9135 76.5587L31.4485 75.5141C31.4328 75.4749 31.3945 75.4492 31.3523 75.4492ZM23.576 75.8287L24.7739 78.5192C24.7917 78.559 24.83 78.5842 24.8722 78.5842C24.9143 78.5842 24.9526 78.559 24.9705 78.5192L26.1683 75.8287L27.3662 78.5192C27.384 78.559 27.4223 78.5842 27.4644 78.5842C27.5066 78.5842 27.5449 78.559 27.5627 78.5192L28.7611 75.8282L29.9595 78.5192C29.9773 78.559 30.0157 78.5842 30.0578 78.5842C30.0999 78.5842 30.1383 78.559 30.1561 78.5192L31.354 75.8282L31.7952 76.819C31.611 77.2227 31.4582 77.6039 31.307 77.9812C31.2638 78.0893 31.2206 78.1968 31.179 78.3003C30.9354 78.8355 30.5676 79.5163 29.8737 80.038C29.224 80.5368 28.3248 80.8296 27.465 80.824C26.6068 80.829 25.7082 80.5368 25.0574 80.0374C24.3715 79.5219 23.9983 78.8411 23.7499 78.3048C23.7089 78.2024 23.6684 78.1005 23.6273 77.9986C23.475 77.6168 23.3217 77.2305 23.1353 76.8213L23.576 75.8287Z" fill="#69C49A"/>
<defs>
<clipPath id="clip0">
<rect x="15.2588" y="19.4004" width="24.4138" height="19.4" fill="white"/>
</clipPath>
<clipPath id="clip1">
<rect x="146.483" y="72.4941" width="14.5759" height="12.2526" fill="white"/>
</clipPath>
</defs>
</svg>
