<svg width="163" height="89" viewBox="0 0 163 89" fill="none" xmlns="http://www.w3.org/2000/svg">
<path d="M148.851 27.2872H128.411C127.889 27.2872 127.433 27.6766 127.367 28.1957L126.389 34.9445C126.292 35.561 126.781 36.1451 127.433 36.1451H131.182C131.573 36.1451 131.801 36.5344 131.671 36.8589C131.214 37.9296 130.856 39.1301 130.693 40.3955L128.802 53.4713C127.563 62.2318 134.865 66.5796 142.852 66.5796C151.198 66.5796 159.413 62.1994 160.652 53.4713L162.543 40.3955C163.716 31.8297 156.642 27.4819 148.851 27.2872ZM152.763 40.428L150.872 53.2118C150.448 56.2293 147.025 57.6245 143.863 57.6245C140.929 57.6245 138.06 56.2293 138.451 53.4713L140.342 40.3955C140.766 37.5402 144.189 36.0802 147.351 36.0802C150.513 36.0802 153.219 37.5402 152.763 40.428Z" fill="white"/>
<path d="M35.4358 27.2872H27.8074C27.2858 27.2872 26.8294 27.6766 26.7642 28.1957L24.417 44.8406V44.8731L24.5148 51.2974C24.5148 51.4272 24.417 51.557 24.2866 51.5895L22.1024 43.8348V43.8024L15.289 27.9362C15.126 27.5468 14.7348 27.2872 14.311 27.2872H6.58476C6.06316 27.2872 5.60676 27.6766 5.54156 28.1957L0.390758 64.86C0.292958 65.5089 0.814558 66.0605 1.43396 66.0605H9.12756C9.64916 66.0605 10.1056 65.6711 10.1708 65.152L12.192 50.5836V50.5512L12.0942 43.0885L12.3224 43.0237L14.637 50.7783V50.8107L20.994 65.444C21.157 65.8333 21.5482 66.0929 21.972 66.0929H30.3176C30.8392 66.0929 31.2956 65.7036 31.3608 65.1844L36.5116 28.5202C36.6094 27.8713 36.0878 27.2872 35.4358 27.2872Z" fill="white"/>
<path d="M52.127 27.2872H44.4334C43.9118 27.2872 43.4554 27.6766 43.3902 28.1957L38.2394 64.8275C38.1416 65.4764 38.6632 66.028 39.2826 66.028H46.9762C47.4978 66.028 47.9542 65.6387 48.0194 65.1195L53.1702 28.4877C53.268 27.8713 52.779 27.2872 52.127 27.2872Z" fill="white"/>
<path d="M88.2154 27.2872H59.4296C58.908 27.2872 58.4516 27.6766 58.3864 28.1957L57.3758 35.0419C57.278 35.6908 57.767 36.2424 58.419 36.2424H66.4712C67.1232 36.2424 67.6122 36.794 67.5144 37.4429L63.7328 64.8275C63.635 65.4764 64.1566 66.028 64.776 66.028H72.5674C73.089 66.028 73.5454 65.6387 73.6106 65.1195L77.49 37.1509C77.5552 36.6317 78.0116 36.2424 78.5332 36.2424H87.1722C87.6938 36.2424 88.1502 35.853 88.2154 35.3339L89.226 28.4877C89.389 27.8713 88.8674 27.2872 88.2154 27.2872Z" fill="white"/>
<path d="M110.22 27.2872H95.5828C95.0612 27.2872 94.6048 27.6766 94.5396 28.1957L89.3888 64.8275C89.291 65.4764 89.8126 66.028 90.432 66.028H98.2234C98.745 66.028 99.2014 65.6387 99.2666 65.1195L100.766 54.1852C100.799 53.9256 101.027 53.7309 101.288 53.7309H102.298C102.494 53.7309 102.657 53.8282 102.755 53.9905L110.188 65.5738C110.383 65.8658 110.709 66.0605 111.1 66.0605H120.75C121.598 66.0605 122.119 65.0871 121.63 64.4057L113.806 53.2767C113.611 53.0171 113.708 52.6277 114.002 52.498C118.99 50.0645 121.891 47.5986 122.836 40.6551C123.945 31.5701 118.24 27.2872 110.22 27.2872ZM112.893 40.8173C112.633 43.0561 110.872 45.2949 107.84 45.2949H103.309C102.657 45.2949 102.168 44.7109 102.266 44.0944L103.244 37.3456C103.309 36.8264 103.765 36.4371 104.287 36.4371H109.144C112.013 36.4371 113.187 38.4812 112.893 40.8173Z" fill="white"/>
<path d="M35.1426 4.08826H40.6846C42.0212 4.08826 43.1622 4.28293 44.075 4.70474C44.9226 5.06164 45.6398 5.67812 46.1614 6.45683C46.6178 7.23554 46.8786 8.11159 46.846 8.98764C46.846 9.89613 46.6178 10.7722 46.1288 11.5509C45.6072 12.362 44.8248 12.9785 43.9446 13.3679C42.9666 13.8221 41.7278 14.0493 40.2934 14.0493H35.1426V4.08826ZM40.2608 11.486C41.1736 11.486 41.8582 11.2589 42.3472 10.8046C42.8362 10.3179 43.097 9.66901 43.0644 8.95519C43.097 8.30627 42.8688 7.68979 42.4124 7.23554C41.9886 6.81374 41.3366 6.58662 40.4564 6.58662H38.7286V11.4536H40.2608V11.486Z" fill="white"/>
<path d="M55.1909 14.0168C54.4737 13.8222 53.7565 13.5301 53.1045 13.1408V10.7722C53.6587 11.194 54.3107 11.486 54.9627 11.6483C55.7125 11.8754 56.4623 11.9727 57.2447 12.0052C57.5055 12.0052 57.7663 11.9727 58.0271 11.8754C58.1901 11.778 58.2879 11.6807 58.2879 11.5509C58.2879 11.4211 58.2553 11.2913 58.1575 11.194C57.9945 11.0642 57.7989 10.9993 57.6033 10.9669L55.9081 10.5775C54.9301 10.3504 54.2455 10.0259 53.8217 9.63659C53.3979 9.21479 53.1697 8.63076 53.2023 8.04673C53.2023 7.52759 53.3979 7.00845 53.7565 6.61909C54.1803 6.16484 54.7019 5.84038 55.2887 5.67815C56.0385 5.45103 56.8209 5.32124 57.6359 5.35369C58.3857 5.35369 59.1029 5.41858 59.8201 5.61326C60.4069 5.74304 60.9611 5.97017 61.4827 6.26218V8.50097C60.9937 8.20896 60.4721 8.01428 59.9505 7.88449C59.3637 7.72226 58.7443 7.65737 58.1575 7.65737C57.2773 7.65737 56.8209 7.8196 56.8209 8.11162C56.8209 8.2414 56.8861 8.37119 57.0165 8.43608C57.2447 8.53342 57.5055 8.59831 57.7663 8.6632L59.2007 8.92277C60.1135 9.08501 60.8307 9.37702 61.2871 9.76638C61.7435 10.1557 61.9717 10.7722 61.9717 11.5509C61.9717 12.3945 61.5479 13.1732 60.8307 13.595C60.0809 14.0817 59.0051 14.3413 57.6033 14.3413C56.7883 14.3088 55.9733 14.2115 55.1909 14.0168Z" fill="white"/>
<path d="M65.2969 13.7248C64.5471 13.3679 63.8951 12.8163 63.4387 12.1025C63.0149 11.4211 62.8193 10.6099 62.8193 9.79879C62.8193 8.98763 63.0149 8.20892 63.4713 7.52755C63.9277 6.81373 64.5797 6.29459 65.3621 5.93768C66.3075 5.54833 67.3181 5.32121 68.3287 5.35365C69.7631 5.35365 70.9367 5.64567 71.8821 6.26215V8.85784C71.5235 8.63072 71.1323 8.43604 70.7085 8.30626C70.2521 8.17647 69.7631 8.07914 69.2741 8.07914C68.3939 8.07914 67.7093 8.24137 67.1877 8.56583C66.4705 8.95518 66.2423 9.83123 66.6335 10.545C66.7639 10.7722 66.9595 10.9668 67.1877 11.0966C67.6767 11.4211 68.3613 11.5833 69.3067 11.5833C69.7957 11.5833 70.2521 11.5184 70.7085 11.3886C71.1323 11.2589 71.5235 11.0966 71.8821 10.8695V13.3679C70.7737 14.0168 69.5349 14.3413 68.2635 14.3088C67.2529 14.3413 66.2097 14.1466 65.2969 13.7248Z" fill="white"/>
<path d="M75.4354 13.7247C74.653 13.3678 74.001 12.8163 73.5446 12.1024C73.1208 11.4211 72.8926 10.6099 72.8926 9.79875C72.8926 8.9876 73.0882 8.20889 73.5446 7.52752C74.001 6.84615 74.653 6.29456 75.4354 5.9701C77.2936 5.22383 79.4126 5.22383 81.2708 5.9701C82.0206 6.29456 82.6726 6.84615 83.129 7.52752C83.5528 8.20889 83.781 9.02004 83.781 9.79875C83.781 10.6099 83.5528 11.4211 83.129 12.1024C82.6726 12.8163 82.0206 13.3678 81.2708 13.7247C79.38 14.5035 77.2936 14.5035 75.4354 13.7247ZM79.7386 11.1939C80.0972 10.837 80.2928 10.3179 80.2602 9.8312C80.2928 9.31206 80.0972 8.82537 79.7386 8.46846C79.3474 8.11155 78.8258 7.94932 78.3042 7.94932C77.7826 7.91687 77.261 8.11155 76.8698 8.46846C76.5112 8.82537 76.3156 9.31206 76.3482 9.8312C76.3156 10.3503 76.5112 10.837 76.8698 11.1939C77.261 11.5508 77.7826 11.7455 78.3042 11.7131C78.8584 11.7455 79.38 11.5508 79.7386 11.1939Z" fill="white"/>
<path d="M92.3225 5.87269V8.95508C91.8987 8.69551 91.4097 8.56573 90.9207 8.59817C90.1709 8.59817 89.5841 8.8253 89.1603 9.27954C88.7691 9.73379 88.5409 10.4476 88.5409 11.421V14.0167H85.0527V5.71046H88.4757V8.3386C88.6713 7.36522 88.9647 6.6514 89.3885 6.19715C89.8123 5.74291 90.3991 5.48334 91.0185 5.51578C91.4749 5.51578 91.9313 5.64557 92.3225 5.87269Z" fill="white"/>
<path d="M103.928 3.79626V14.0168H100.44V12.1674C100.179 12.8163 99.6898 13.4003 99.103 13.7573C98.4184 14.1466 97.6686 14.3413 96.8862 14.3088C96.169 14.3413 95.4518 14.1142 94.8324 13.7248C94.2456 13.3355 93.7566 12.7839 93.4632 12.1349C93.1372 11.4211 92.9742 10.6424 92.9742 9.86371C92.9416 9.05255 93.1372 8.2414 93.4632 7.52758C93.7892 6.84621 94.3108 6.29462 94.9302 5.90527C95.5822 5.51592 96.332 5.32124 97.0818 5.32124C98.7444 5.32124 99.8528 6.03505 100.44 7.46269V3.79626H103.928ZM99.918 11.1291C100.277 10.7722 100.472 10.2855 100.44 9.79882C100.44 9.31212 100.244 8.82543 99.918 8.50097C99.103 7.8196 97.9294 7.8196 97.0818 8.50097C96.7232 8.85788 96.5276 9.31212 96.5602 9.79882C96.5276 10.2855 96.7232 10.7722 97.0818 11.1291C97.473 11.486 97.962 11.6483 98.4836 11.6483C99.0378 11.6807 99.5268 11.486 99.918 11.1291Z" fill="white"/>
<path d="M22.2979 1.62231C20.6027 0.876048 18.8097 0.324462 16.9515 0C16.6907 0.454247 16.4625 0.908494 16.2669 1.39519C14.3109 1.10317 12.2897 1.10317 10.3337 1.39519C10.1381 0.908494 9.90986 0.454247 9.64906 0C7.82346 0.324462 6.03046 0.876048 4.30266 1.65476C0.944859 6.61903 0.0320592 11.4535 0.488459 16.2556C2.47706 17.7156 4.69386 18.8188 7.04106 19.5326C7.56266 18.8188 8.05166 18.0725 8.44286 17.2938C7.69306 17.0018 6.94326 16.6449 6.22606 16.2556C6.42166 16.1258 6.58466 15.996 6.78026 15.8662C10.9205 17.813 15.7127 17.813 19.8855 15.8662C20.0485 15.996 20.2441 16.1582 20.4397 16.2556C19.7225 16.6774 19.0053 17.0343 18.2229 17.2938C18.6141 18.0725 19.1031 18.8188 19.6247 19.5326C21.9719 18.8188 24.1887 17.7156 26.1773 16.2556C26.6989 10.7073 25.2319 5.90521 22.2979 1.62231ZM8.99706 13.303C7.72566 13.303 6.64986 12.1349 6.64986 10.7397C6.64986 9.34451 7.66046 8.144 8.96446 8.144C10.2685 8.144 11.3117 9.31207 11.3117 10.7397C11.3117 12.1673 10.3011 13.303 8.99706 13.303ZM17.6035 13.303C16.3321 13.303 15.2889 12.1349 15.2889 10.7397C15.2889 9.34451 16.2995 8.144 17.6035 8.144C18.9075 8.144 19.9507 9.31207 19.9181 10.7397C19.9181 12.1673 18.9075 13.303 17.6035 13.303Z" fill="white"/>
<path d="M49.8118 6.61911C50.766 6.61911 51.5396 5.92183 51.5396 5.06169C51.5396 4.20155 50.766 3.50427 49.8118 3.50427C48.8575 3.50427 48.084 4.20155 48.084 5.06169C48.084 5.92183 48.8575 6.61911 49.8118 6.61911Z" fill="white"/>
<path d="M48.084 7.68982C49.1924 8.14407 50.4638 8.14407 51.5722 7.68982V14.0817H48.084V7.68982Z" fill="white"/>
<path d="M9.02997 84.1006L11.638 85.366C11.7684 85.4309 11.8336 85.5932 11.7684 85.7554C11.7684 85.7554 11.7684 85.7878 11.7358 85.7878C9.87757 88.2862 7.72597 89 5.83517 89C2.77077 89 -0.0328317 87.2155 0.456168 83.6788L1.20597 78.3252C1.69497 74.821 5.02017 73.004 8.14977 73.004C9.97537 73.004 12.0618 73.7503 13.0072 76.2162C13.0724 76.4109 12.9746 76.638 12.779 76.7029L10.0732 77.7412C9.87757 77.8061 9.68197 77.7412 9.58417 77.5789C9.16037 76.8976 8.34537 76.6056 7.53037 76.6056C6.42197 76.638 5.28097 77.2545 5.15057 78.2928L4.40077 83.6464C4.23777 84.6522 5.21577 85.3011 6.32417 85.3011C7.20437 85.3011 8.05197 84.9118 8.60617 84.198C8.63877 84.0682 8.86697 84.0033 9.02997 84.1006Z" fill="white"/>
<path d="M86.8464 84.1006L89.4544 85.366C89.5848 85.4309 89.65 85.5932 89.5848 85.7554L89.5522 85.7878C87.694 88.2862 85.5424 89 83.6516 89C80.5872 89 77.7836 87.2155 78.2726 83.6788L79.0224 78.3252C79.5114 74.821 82.8366 73.004 85.9662 73.004C87.7918 73.004 89.8782 73.7503 90.8236 76.2162C90.8888 76.4109 90.791 76.638 90.5954 76.7029L87.8896 77.7412C87.694 77.8061 87.4984 77.7412 87.4006 77.5789C86.9768 76.8976 86.1618 76.6056 85.3468 76.6056C84.2384 76.638 83.0974 77.2545 82.967 78.2928L82.2172 83.6464C82.0542 84.6522 83.0322 85.3011 84.1406 85.3011C85.0208 85.3011 85.8684 84.8793 86.4226 84.1655C86.4878 84.0682 86.6834 84.0033 86.8464 84.1006Z" fill="white"/>
<path d="M14.3106 87.9617L16.2992 73.88C16.3644 73.5231 16.6578 73.2635 17.0164 73.2635H19.494C19.8852 73.2635 20.2112 73.588 20.2112 73.9774C20.2112 74.0098 20.2112 74.0423 20.2112 74.0747L18.8094 84.0681C18.7442 84.4575 19.0376 84.8469 19.4288 84.8793C19.4614 84.8793 19.494 84.8793 19.5266 84.8793H24.1558C24.547 84.8793 24.873 85.2038 24.873 85.5931C24.873 85.6256 24.873 85.658 24.873 85.6905L24.547 88.1239C24.5144 88.4808 24.1884 88.7404 23.8298 88.7404H15.0278C14.6366 88.7404 14.3106 88.4159 14.3106 88.0266C14.278 88.0266 14.278 87.9941 14.3106 87.9617Z" fill="white"/>
<path d="M40.2936 87.8968L37.2292 73.8151C37.164 73.4906 36.8706 73.2311 36.512 73.2311H33.9692C33.6758 73.2311 33.4476 73.3933 33.3172 73.6529L26.406 87.7345C26.3734 87.8319 26.3408 87.9292 26.3408 88.059C26.3408 88.4484 26.6668 88.7728 27.058 88.7728H29.666C29.9594 88.7728 30.2202 88.6106 30.318 88.351L31.3286 86.1122C31.459 85.8527 31.7198 85.6904 31.9806 85.6904H35.045C35.4036 85.6904 35.697 85.95 35.7622 86.2745L36.1208 88.2212C36.186 88.5781 36.4794 88.8053 36.838 88.8053H39.5438C39.609 88.8053 39.6416 88.8053 39.7068 88.7728C40.1306 88.6755 40.3914 88.2861 40.2936 87.8968ZM32.8934 82.1862L34.6212 77.6438H34.7842L35.2406 82.1862H32.8934Z" fill="white"/>
<path d="M41.8907 85.8203L43.6511 84.3602C43.9445 84.1006 44.4009 84.1331 44.6943 84.3926C45.4441 85.0416 46.3895 85.3985 47.4001 85.366C48.4433 85.366 49.3887 84.9767 49.5191 84.1655C49.6821 83.1921 48.3455 82.7703 47.0741 82.6081C44.6291 82.2188 42.4449 80.272 42.9665 77.3194C43.5533 74.1396 46.3895 73.004 49.2257 73.004C50.9209 73.004 52.5183 73.4258 53.8223 74.9508C54.0505 75.2104 54.0179 75.5997 53.7571 75.8268L53.7245 75.8593L51.8663 77.1571C51.6055 77.3518 51.2469 77.3194 51.0187 77.1247C50.3667 76.638 49.6169 76.3784 48.8019 76.346C47.8239 76.3135 46.9763 76.7029 46.8785 77.4816C46.7807 78.3901 47.5631 78.7795 48.7367 79.039C51.4425 79.5582 54.0831 80.564 53.3333 84.4251C52.7465 87.4426 50.1385 88.9676 46.7481 88.9676C45.0529 88.9676 43.0317 88.1889 41.7603 86.6963C41.5321 86.4368 41.5973 86.0474 41.8907 85.8203C41.8581 85.7878 41.8581 85.7878 41.8907 85.8203Z" fill="white"/>
<path d="M56.3657 85.8203L58.1261 84.3602C58.4195 84.1006 58.8759 84.1331 59.1693 84.3926C59.9191 85.0416 60.8645 85.3985 61.8751 85.366C62.9183 85.366 63.8637 84.9767 63.9941 84.1655C64.1571 83.1921 62.8205 82.7703 61.5491 82.6081C59.1041 82.2188 56.9199 80.272 57.4415 77.3194C58.0283 74.1396 60.8645 73.004 63.7007 73.004C65.3959 73.004 66.9933 73.4258 68.2973 74.9508C68.5255 75.2104 68.4929 75.5997 68.2321 75.8268L68.1995 75.8593L66.3413 77.1571C66.0805 77.3518 65.7219 77.3194 65.4937 77.1247C64.8417 76.638 64.0919 76.3784 63.2769 76.346C62.2989 76.3135 61.4513 76.7029 61.3535 77.4816C61.2557 78.3901 62.0381 78.7795 63.2117 79.039C65.9175 79.5582 68.5581 80.564 67.8409 84.4251C67.2541 87.4426 64.6461 88.9676 61.2557 88.9676C59.5605 88.9676 57.5393 88.1889 56.2679 86.6963C56.0071 86.4368 56.0723 86.0474 56.3657 85.8203Z" fill="white"/>
<path d="M76.2186 74.0747L74.23 88.1564C74.1648 88.5133 73.8714 88.7729 73.5128 88.7729H71.0678C70.6766 88.7729 70.3506 88.4484 70.3506 88.059C70.3506 88.0266 70.3506 87.9941 70.3506 87.9617L72.3392 73.88C72.4044 73.5231 72.6978 73.2635 73.0564 73.2635H75.534C75.9252 73.2635 76.2512 73.588 76.2512 73.9774C76.2186 74.0098 76.2186 74.0423 76.2186 74.0747Z" fill="white"/>
</svg>
