<svg width="300" height="122" viewBox="0 0 300 122" fill="none" xmlns="http://www.w3.org/2000/svg">
<g clip-path="url(#clip0)">
<path d="M273.96 50.46H236.34C235.38 50.46 234.54 51.18 234.42 52.14L232.62 64.62C232.44 65.76 233.34 66.84 234.54 66.84H241.44C242.16 66.84 242.58 67.56 242.34 68.16C241.5 70.14 240.84 72.36 240.54 74.7L237.06 98.88C234.78 115.08 248.22 123.12 262.92 123.12C278.28 123.12 293.4 115.02 295.68 98.88L299.16 74.7C301.32 58.86 288.3 50.82 273.96 50.46ZM281.16 74.76L277.68 98.4C276.9 103.98 270.6 106.56 264.78 106.56C259.38 106.56 254.1 103.98 254.82 98.88L258.3 74.7C259.08 69.42 265.38 66.72 271.2 66.72C277.02 66.72 282 69.42 281.16 74.76Z" fill="white"/>
<path d="M65.22 50.46H51.1801C50.2201 50.46 49.3801 51.18 49.2601 52.14L44.9401 82.92V82.98L45.1201 94.86C45.1201 95.1 44.9401 95.34 44.7001 95.4L40.6801 81.06V81L28.1401 51.66C27.8401 50.94 27.1201 50.46 26.3401 50.46H12.1201C11.1601 50.46 10.3201 51.18 10.2001 52.14L0.720056 119.94C0.540056 121.14 1.50006 122.16 2.64006 122.16H16.8001C17.7601 122.16 18.6001 121.44 18.7201 120.48L22.4401 93.54V93.48L22.2601 79.68L22.6801 79.56L26.9401 93.9V93.96L38.6401 121.02C38.9401 121.74 39.6601 122.22 40.4401 122.22H55.8001C56.7601 122.22 57.6001 121.5 57.7201 120.54L67.2001 52.74C67.3801 51.54 66.4201 50.46 65.22 50.46Z" fill="white"/>
<path d="M95.9402 50.46H81.7802C80.8202 50.46 79.9802 51.18 79.8602 52.14L70.3802 119.88C70.2002 121.08 71.1602 122.1 72.3002 122.1H86.4602C87.4202 122.1 88.2602 121.38 88.3802 120.42L97.8602 52.68C98.0402 51.54 97.1402 50.46 95.9402 50.46Z" fill="white"/>
<path d="M162.36 50.46H109.38C108.42 50.46 107.58 51.18 107.46 52.14L105.6 64.8C105.42 66 106.32 67.02 107.52 67.02H122.34C123.54 67.02 124.44 68.04 124.26 69.24L117.3 119.88C117.12 121.08 118.08 122.1 119.22 122.1H133.56C134.52 122.1 135.36 121.38 135.48 120.42L142.62 68.7C142.74 67.74 143.58 67.02 144.54 67.02H160.44C161.4 67.02 162.24 66.3 162.36 65.34L164.22 52.68C164.52 51.54 163.56 50.46 162.36 50.46Z" fill="white"/>
<path d="M202.86 50.46H175.92C174.96 50.46 174.12 51.18 174 52.14L164.52 119.88C164.34 121.08 165.3 122.1 166.44 122.1H180.78C181.74 122.1 182.58 121.38 182.7 120.42L185.46 100.2C185.52 99.72 185.94 99.36 186.42 99.36H188.28C188.64 99.36 188.94 99.54 189.12 99.84L202.8 121.26C203.16 121.8 203.76 122.16 204.48 122.16H222.24C223.8 122.16 224.76 120.36 223.86 119.1L209.46 98.52C209.1 98.04 209.28 97.32 209.82 97.08C219 92.58 224.34 88.02 226.08 75.18C228.12 58.38 217.62 50.46 202.86 50.46ZM207.78 75.48C207.3 79.62 204.06 83.76 198.48 83.76H190.14C188.94 83.76 188.04 82.68 188.22 81.54L190.02 69.06C190.14 68.1 190.98 67.38 191.94 67.38H200.88C206.16 67.38 208.32 71.16 207.78 75.48Z" fill="white"/>
<path d="M64.6797 7.56006H74.8797C77.3397 7.56006 79.4397 7.92006 81.1197 8.70006C82.6797 9.36006 83.9997 10.5001 84.9597 11.9401C85.7997 13.3801 86.2797 15.0001 86.2197 16.6201C86.2197 18.3001 85.7997 19.9201 84.8997 21.3601C83.9397 22.8601 82.4997 24.0001 80.8797 24.7201C79.0797 25.5601 76.7997 25.9801 74.1597 25.9801H64.6797V7.56006ZM74.0997 21.2401C75.7797 21.2401 77.0397 20.8201 77.9397 19.9801C78.8397 19.0801 79.3197 17.8801 79.2597 16.5601C79.3197 15.3601 78.8997 14.2201 78.0597 13.3801C77.2797 12.6001 76.0797 12.1801 74.4597 12.1801H71.2797V21.1801H74.0997V21.2401Z" fill="white"/>
<path d="M101.58 25.92C100.26 25.56 98.9402 25.02 97.7402 24.3V19.92C98.7602 20.7 99.9602 21.24 101.16 21.54C102.54 21.96 103.92 22.14 105.36 22.2C105.84 22.2 106.32 22.14 106.8 21.96C107.1 21.78 107.28 21.6 107.28 21.36C107.28 21.12 107.22 20.88 107.04 20.7C106.74 20.46 106.38 20.34 106.02 20.28L102.9 19.56C101.1 19.14 99.8402 18.54 99.0602 17.82C98.2802 17.04 97.8602 15.96 97.9202 14.88C97.9202 13.92 98.2802 12.96 98.9402 12.24C99.7202 11.4 100.68 10.8 101.76 10.5C103.14 10.08 104.58 9.83999 106.08 9.89999C107.46 9.89999 108.78 10.02 110.1 10.38C111.18 10.62 112.2 11.04 113.16 11.58V15.72C112.26 15.18 111.3 14.82 110.34 14.58C109.26 14.28 108.12 14.16 107.04 14.16C105.42 14.16 104.58 14.46 104.58 15C104.58 15.24 104.7 15.48 104.94 15.6C105.36 15.78 105.84 15.9 106.32 16.02L108.96 16.5C110.64 16.8 111.96 17.34 112.8 18.06C113.64 18.78 114.06 19.92 114.06 21.36C114.06 22.92 113.28 24.36 111.96 25.14C110.58 26.04 108.6 26.52 106.02 26.52C104.52 26.46 103.02 26.28 101.58 25.92Z" fill="white"/>
<path d="M120.18 25.38C118.8 24.72 117.6 23.7 116.76 22.38C115.98 21.12 115.62 19.62 115.62 18.12C115.62 16.62 115.98 15.18 116.82 13.92C117.66 12.6 118.86 11.64 120.3 10.98C122.04 10.26 123.9 9.83996 125.76 9.89996C128.4 9.89996 130.56 10.44 132.3 11.58V16.38C131.64 15.96 130.92 15.6 130.14 15.36C129.3 15.12 128.4 14.94 127.5 14.94C125.88 14.94 124.62 15.24 123.66 15.84C122.34 16.56 121.92 18.18 122.64 19.5C122.88 19.92 123.24 20.28 123.66 20.52C124.56 21.12 125.82 21.42 127.56 21.42C128.46 21.42 129.3 21.3 130.14 21.06C130.92 20.82 131.64 20.52 132.3 20.1V24.72C130.26 25.92 127.98 26.52 125.64 26.46C123.78 26.52 121.86 26.16 120.18 25.38Z" fill="white"/>
<path d="M138.84 25.3799C137.4 24.7199 136.2 23.6999 135.36 22.3799C134.58 21.1199 134.16 19.6199 134.16 18.1199C134.16 16.6199 134.52 15.1799 135.36 13.9199C136.2 12.6599 137.4 11.6399 138.84 11.0399C142.26 9.65988 146.16 9.65988 149.58 11.0399C150.96 11.6399 152.16 12.6599 153 13.9199C153.78 15.1799 154.2 16.6799 154.2 18.1199C154.2 19.6199 153.78 21.1199 153 22.3799C152.16 23.6999 150.96 24.7199 149.58 25.3799C146.1 26.8199 142.26 26.8199 138.84 25.3799ZM146.76 20.6999C147.42 20.0399 147.78 19.0799 147.72 18.1799C147.78 17.2199 147.42 16.3199 146.76 15.6599C146.04 14.9999 145.08 14.6999 144.12 14.6999C143.16 14.6399 142.2 14.9999 141.48 15.6599C140.82 16.3199 140.46 17.2199 140.52 18.1799C140.46 19.1399 140.82 20.0399 141.48 20.6999C142.2 21.3599 143.16 21.7199 144.12 21.6599C145.14 21.7199 146.1 21.3599 146.76 20.6999Z" fill="white"/>
<path d="M169.92 10.8599V16.5599C169.14 16.0799 168.24 15.8399 167.34 15.8999C165.96 15.8999 164.88 16.3199 164.1 17.1599C163.38 17.9999 162.96 19.3199 162.96 21.1199V25.9199H156.54V10.5599H162.84V15.4199C163.2 13.6199 163.74 12.2999 164.52 11.4599C165.3 10.6199 166.38 10.1399 167.52 10.1999C168.36 10.1999 169.2 10.4399 169.92 10.8599Z" fill="white"/>
<path d="M191.28 7.02002V25.92H184.86V22.5C184.38 23.7 183.48 24.78 182.4 25.44C181.14 26.16 179.76 26.52 178.32 26.46C177 26.52 175.68 26.1 174.54 25.38C173.46 24.66 172.56 23.64 172.02 22.44C171.42 21.12 171.12 19.68 171.12 18.24C171.06 16.74 171.42 15.24 172.02 13.92C172.62 12.66 173.58 11.64 174.72 10.92C175.92 10.2 177.3 9.84002 178.68 9.84002C181.74 9.84002 183.78 11.16 184.86 13.8V7.02002H191.28ZM183.9 20.58C184.56 19.92 184.92 19.02 184.86 18.12C184.86 17.22 184.5 16.32 183.9 15.72C182.4 14.46 180.24 14.46 178.68 15.72C178.02 16.38 177.66 17.22 177.72 18.12C177.66 19.02 178.02 19.92 178.68 20.58C179.4 21.24 180.3 21.54 181.26 21.54C182.28 21.6 183.18 21.24 183.9 20.58Z" fill="white"/>
<path d="M41.0399 3C37.9199 1.62 34.6199 0.6 31.1999 0C30.7199 0.84 30.2999 1.68 29.9399 2.58C26.3399 2.04 22.6199 2.04 19.0199 2.58C18.6599 1.68 18.2399 0.84 17.7599 0C14.3999 0.6 11.0999 1.62 7.91987 3.06C1.73987 12.24 0.0598734 21.18 0.899873 30.06C4.55987 32.76 8.63987 34.8 12.9599 36.12C13.9199 34.8 14.8199 33.42 15.5399 31.98C14.1599 31.44 12.7799 30.78 11.4599 30.06C11.8199 29.82 12.1199 29.58 12.4799 29.34C20.0999 32.94 28.9199 32.94 36.5999 29.34C36.8999 29.58 37.2599 29.88 37.6199 30.06C36.2999 30.84 34.9799 31.5 33.5399 31.98C34.2599 33.42 35.1599 34.8 36.1199 36.12C40.4399 34.8 44.5199 32.76 48.1799 30.06C49.1399 19.8 46.4399 10.92 41.0399 3ZM16.5599 24.6C14.2199 24.6 12.2399 22.44 12.2399 19.86C12.2399 17.28 14.0999 15.06 16.4999 15.06C18.8999 15.06 20.8199 17.22 20.8199 19.86C20.8199 22.5 18.9599 24.6 16.5599 24.6ZM32.3999 24.6C30.0599 24.6 28.1399 22.44 28.1399 19.86C28.1399 17.28 29.9999 15.06 32.3999 15.06C34.7999 15.06 36.7199 17.22 36.6599 19.86C36.6599 22.5 34.7999 24.6 32.3999 24.6Z" fill="white"/>
<path d="M91.68 12.24C93.4363 12.24 94.86 10.9506 94.86 9.35998C94.86 7.7694 93.4363 6.47998 91.68 6.47998C89.9237 6.47998 88.5 7.7694 88.5 9.35998C88.5 10.9506 89.9237 12.24 91.68 12.24Z" fill="white"/>
<path d="M88.5 14.22C90.54 15.06 92.88 15.06 94.92 14.22V26.04H88.5V14.22Z" fill="white"/>
</g>
<defs>
<clipPath id="clip0">
<rect width="300" height="122" fill="white"/>
</clipPath>
</defs>
</svg>
