<svg width="145" height="111" viewBox="0 0 145 111" fill="none" xmlns="http://www.w3.org/2000/svg">
<path d="M0.666992 8C0.666992 3.58172 4.24871 0 8.66699 0H136.667C141.085 0 144.667 3.58172 144.667 8V103C144.667 107.418 141.085 111 136.667 111H8.667C4.24872 111 0.666992 107.418 0.666992 103V8Z" fill="#18191C"/>
<mask id="mask0" mask-type="alpha" maskUnits="userSpaceOnUse" x="48" y="16" width="49" height="48">
<circle cx="72.667" cy="40" r="24" fill="#C4C4C4"/>
</mask>
<g mask="url(#mask0)">
<path d="M96.6654 16H48.667V63.9984H96.6654V16Z" fill="#427EFC"/>
<path d="M93.81 22.0273C93.4342 23.2391 92.6412 24.3172 91.7145 25.1644C91.5567 25.3088 91.3945 25.4474 91.2275 25.5805C91.984 25.7743 92.748 25.9354 93.5212 26.0535C94.5321 26.2081 95.6091 26.3021 96.6652 26.2339V22.5186C95.9506 22.3565 95.2344 22.2163 94.5149 22.1165C94.2825 22.0848 94.0473 22.0542 93.81 22.0273Z" fill="#9AFFD8"/>
<path d="M90.8315 26.5834C90.5733 26.5157 90.3161 26.4432 90.06 26.3691C89.601 26.6258 89.1183 26.8362 88.6152 26.9903C89.2563 28.0378 90.0332 29.0235 90.7408 29.9948C92.2119 32.0141 93.7233 34.0043 95.1729 36.0397C95.6894 36.765 96.2193 37.521 96.666 38.3161V27.3151C94.7079 27.4381 92.6795 27.0676 90.8315 26.5834Z" fill="#9AFFD8"/>
<path d="M88.5304 49.6614C88.2018 49.7141 87.8877 49.7882 87.5801 49.8687C87.8373 50.8292 88.0644 51.7924 88.2619 52.7529C88.7698 55.2237 89.0769 57.7358 89.1768 60.256C89.2074 61.0318 89.413 62.6065 89.3389 63.9981H96.6654V45.4355C96.5011 45.6825 96.3229 45.9182 96.1333 46.1405C94.2682 48.3267 91.268 49.2233 88.5304 49.6614Z" fill="#9AFFD8"/>
<path d="M92.9655 17.4727C93.8724 18.6512 94.2455 20.1137 93.9298 21.5746C93.8965 21.7271 93.8563 21.8779 93.8101 22.0272C94.0474 22.054 94.2825 22.0846 94.515 22.1168C95.235 22.2167 95.9512 22.3568 96.6653 22.519V16H91.5449C92.0689 16.4451 92.5516 16.9347 92.9655 17.4727ZM94.5714 17.2349C94.5719 17.0797 94.6111 16.9353 94.6884 16.801C94.733 16.7431 94.7781 16.6851 94.8227 16.6271C94.93 16.5208 95.0562 16.4472 95.2017 16.4064C95.278 16.3962 95.3542 16.386 95.4299 16.3758C95.548 16.3715 95.6586 16.3962 95.7606 16.4499C95.8669 16.4848 95.9593 16.5439 96.0371 16.6276C96.1209 16.7055 96.1799 16.7978 96.2148 16.9041C96.2685 17.0067 96.2932 17.1167 96.2889 17.2349V17.3422C96.2884 17.4974 96.2492 17.6418 96.1719 17.776C96.1273 17.834 96.0822 17.892 96.0377 17.95C95.9303 18.0563 95.8041 18.1299 95.6586 18.1707C95.5824 18.1809 95.5061 18.1911 95.4304 18.2013C95.3123 18.2056 95.2017 18.1809 95.0997 18.1272C94.9934 18.0923 94.9011 18.0332 94.8232 17.9495C94.7394 17.8716 94.6804 17.7793 94.6455 17.673C94.5918 17.5704 94.5671 17.4604 94.5714 17.3422V17.2349Z" fill="#FAFFA0"/>
<path d="M90.7402 29.9943C90.0332 29.0236 89.2557 28.0379 88.6147 26.9898C88.2737 27.094 87.9237 27.1729 87.5656 27.2223C87.252 27.2658 86.938 27.2873 86.6244 27.2926C86.6244 27.3045 86.6255 27.3157 86.6255 27.3275V27.4349C86.6249 27.5901 86.5858 27.7345 86.5084 27.8687C86.4639 27.9267 86.4188 27.9847 86.3742 28.0427C86.2668 28.149 86.1407 28.2225 85.9952 28.2639C85.9189 28.2741 85.8427 28.2843 85.767 28.2945C85.6489 28.2988 85.5383 28.2741 85.4363 28.2204C85.33 28.1855 85.2376 28.1264 85.1598 28.0427C85.076 27.9648 85.0169 27.8725 84.982 27.7662C84.9284 27.6636 84.9037 27.5536 84.908 27.4355V27.3281C84.908 27.2776 84.9128 27.2277 84.9214 27.1794C84.5042 27.1214 84.0887 27.0462 83.6758 26.9619C82.9714 28.2988 81.9196 29.4069 81.1416 30.7755C81.0799 30.8845 81.0224 30.9983 80.9747 31.1153C81.1824 31.0531 81.4112 31.0681 81.5964 31.191C81.9196 31.4053 82.1102 31.7526 82.0114 32.1489C81.926 32.4919 81.6248 32.69 81.2989 32.7448C81.4385 32.9139 81.5905 33.0771 81.7258 33.2447C81.8697 33.4229 81.998 33.613 82.1091 33.8132C82.3373 34.2234 82.4925 34.7174 82.3352 35.1592C82.0925 35.8411 81.438 35.7036 80.8662 35.6446C81.5771 36.5825 82.2396 37.5629 82.8554 38.5776C83.599 38.9459 84.3845 39.1602 85.2296 39.1124C85.8175 39.0791 85.8137 39.9918 85.2296 40.0251C84.6658 40.0573 84.1166 39.9848 83.5861 39.8361C83.7021 40.045 83.8159 40.2554 83.9281 40.4664C83.9974 40.4262 84.0758 40.402 84.1558 40.4009C84.4145 40.3977 84.6771 40.438 84.9214 40.5244C85.1624 40.6103 85.2983 40.8299 85.2403 41.086C85.1882 41.3142 84.9042 41.4849 84.6787 41.4049C84.581 41.37 84.4838 41.3502 84.3839 41.3244C84.378 41.3233 84.3737 41.3228 84.3705 41.3222C84.37 41.3222 84.3689 41.3222 84.3684 41.3222C84.9063 42.3976 85.3976 43.4993 85.8432 44.6188C85.8636 44.593 85.8856 44.5683 85.9103 44.5458C85.9882 44.462 86.0805 44.4029 86.1868 44.368C86.2894 44.3144 86.3994 44.2897 86.5176 44.2939H86.6249C86.7801 44.2945 86.9245 44.3337 87.0588 44.411C87.1167 44.4556 87.1747 44.5007 87.2327 44.5452C87.339 44.6526 87.4126 44.7788 87.4534 44.9243C87.4636 45.0005 87.4738 45.0767 87.484 45.1524C87.4883 45.2706 87.4636 45.3812 87.4099 45.4832C87.375 45.5895 87.3159 45.6818 87.2322 45.7597C87.1543 45.8434 87.062 45.9025 86.9557 45.9374C86.8531 45.9911 86.7431 46.0158 86.6249 46.0115H86.5176C86.466 46.0115 86.4156 46.0066 86.3662 45.9975C86.8268 47.2743 87.2311 48.5682 87.5795 49.8675C87.8872 49.7864 88.2013 49.7128 88.5298 49.6602C91.268 49.2221 94.2682 48.3255 96.1328 46.1387C96.3223 45.9164 96.5006 45.6807 96.6649 45.4338V38.3146C96.2182 37.5189 95.6883 36.7635 95.1718 36.0381C93.7232 34.0038 92.2119 32.0141 90.7402 29.9943ZM84.7904 32.8087C84.7458 32.8667 84.7007 32.9247 84.6562 32.9827C84.5783 33.0664 84.486 33.1255 84.3796 33.1604C84.2771 33.2141 84.167 33.2388 84.0489 33.2345C83.9308 33.2388 83.8202 33.2141 83.7182 33.1604C83.6119 33.1255 83.5195 33.0664 83.4417 32.9827C83.4057 32.9467 83.3703 32.9112 83.3343 32.8753C83.228 32.7679 83.1545 32.6417 83.1137 32.4962C83.1035 32.42 83.0933 32.3437 83.0831 32.268C83.0836 32.1129 83.1228 31.9685 83.2001 31.8342C83.2447 31.7762 83.2898 31.7183 83.3343 31.6603C83.4122 31.5765 83.5045 31.5175 83.6108 31.4826C83.7134 31.4289 83.8234 31.4042 83.9415 31.4085C84.0597 31.4042 84.1703 31.4289 84.2723 31.4826C84.3786 31.5175 84.4709 31.5765 84.5488 31.6603C84.5847 31.6963 84.6202 31.7317 84.6562 31.7677C84.7625 31.875 84.836 32.0012 84.8768 32.1467C84.887 32.2229 84.8972 32.2992 84.9074 32.3749C84.9069 32.53 84.8677 32.6745 84.7904 32.8087ZM86.7329 38.1734C86.2513 38.1734 85.8948 37.7798 85.8738 37.3143C85.8529 36.8504 86.2835 36.4553 86.7329 36.4553C87.2145 36.4553 87.571 36.8488 87.5919 37.3143C87.6128 37.7782 87.1822 38.1734 86.7329 38.1734ZM90.0616 33.8782C90.5432 33.8782 90.8997 34.2717 90.9206 34.7372C90.9416 35.2011 90.511 35.5963 90.0616 35.5963C89.58 35.5963 89.2235 35.2027 89.2026 34.7372C89.1816 34.2733 89.6122 33.8782 90.0616 33.8782ZM90.6119 42.0084C90.5357 42.0186 90.4594 42.0288 90.3837 42.039C90.2656 42.0433 90.155 42.0186 90.053 41.9649C89.9467 41.93 89.8544 41.8709 89.7765 41.7872C89.7497 41.762 89.726 41.7351 89.704 41.7067C89.6922 41.6975 89.6809 41.6889 89.6691 41.6798C89.5628 41.5724 89.4893 41.4463 89.4485 41.3008C89.4383 41.2245 89.4281 41.1483 89.4179 41.0726C89.4136 40.9545 89.4383 40.8439 89.492 40.7419C89.5269 40.6355 89.5859 40.5432 89.6697 40.4654C89.7475 40.3816 89.8399 40.3225 89.9462 40.2876C90.0487 40.234 90.1588 40.2093 90.2769 40.2135C90.2882 40.2125 90.2995 40.2119 90.3113 40.213C90.3515 40.2173 90.3918 40.2227 90.4315 40.2291C90.4707 40.234 90.5099 40.2388 90.5486 40.2447C90.5534 40.2458 90.5577 40.2463 90.5625 40.2479C90.7059 40.2876 90.8691 40.3757 90.9716 40.4858C90.998 40.5137 91.0323 40.5636 91.0452 40.5797C91.0651 40.6055 91.0978 40.6409 91.1177 40.6747C91.1182 40.6764 91.1193 40.678 91.1198 40.679C91.1488 40.7472 91.1778 40.8159 91.2063 40.8841C91.2079 40.8884 91.2095 40.8922 91.2106 40.8965C91.2116 40.9013 91.2127 40.9056 91.2132 40.9104C91.2234 40.9867 91.2336 41.0629 91.2439 41.1386L91.2444 41.1445C91.2449 41.1558 91.2449 41.1671 91.2439 41.1789C91.2433 41.3341 91.2041 41.4785 91.1268 41.6127C91.0822 41.6707 91.0371 41.7287 90.9926 41.7867C90.8841 41.894 90.7574 41.9676 90.6119 42.0084ZM91.887 47.0858C91.4055 47.0858 91.049 46.6923 91.028 46.2268C91.0071 45.7629 91.4377 45.3677 91.887 45.3677C92.3686 45.3677 92.7251 45.7613 92.7461 46.2268C92.767 46.6906 92.3364 47.0858 91.887 47.0858Z" fill="#FAFFA0"/>
<path d="M51.526 62.4107C51.4497 62.4209 51.3735 62.4311 51.2978 62.4413C51.1797 62.4456 51.0691 62.4209 50.967 62.3672C50.8607 62.3323 50.7684 62.2733 50.6905 62.1895C50.6068 62.1116 50.5477 62.0193 50.5128 61.913C50.4624 61.8169 50.4382 61.7127 50.4393 61.6027C49.8417 61.4964 49.2501 61.3595 48.667 61.1914V63.9983H51.6532C51.7203 63.4045 51.7933 62.8118 51.8733 62.2196C51.7729 62.3098 51.6575 62.3736 51.526 62.4107Z" fill="#FAFFA0"/>
<path d="M68.0103 23.8663C66.9698 24.1857 65.9378 24.5728 64.9795 25.0931C65.6689 25.5296 66.347 25.9843 67.0648 26.3736C67.7928 26.7682 68.5949 27.1231 69.4357 27.1505C70.3581 27.1811 71.1124 26.7408 71.8228 26.1943C71.8856 26.1459 71.9462 26.096 72.008 26.0466C71.8265 25.8877 71.7122 25.6525 71.7003 25.3948C71.6794 24.9309 72.11 24.5358 72.5594 24.5358C72.8568 24.5358 73.1059 24.6861 73.2584 24.91C73.5231 24.6469 73.784 24.379 74.0444 24.1111C73.6863 23.9935 73.3261 23.8845 72.9615 23.789C71.3041 23.3557 69.651 23.3627 68.0103 23.8663ZM68.8006 26.147C68.319 26.147 67.9625 25.7535 67.9415 25.288C67.9206 24.8241 68.3512 24.4289 68.8006 24.4289C69.2822 24.4289 69.6387 24.8225 69.6596 25.288C69.6805 25.7519 69.25 26.147 68.8006 26.147Z" fill="#FAFFA0"/>
<path d="M51.2982 60.6163C51.4163 60.612 51.5269 60.6367 51.6289 60.6904C51.6418 60.6947 51.6536 60.7 51.6665 60.7054C51.8056 60.7215 51.9446 60.7355 52.0837 60.7483C52.6082 57.3063 53.3465 53.897 54.2903 50.5452C54.707 49.0671 55.1445 47.5638 55.6336 46.0713C55.3002 45.9526 55.0726 45.6299 55.0559 45.2611C55.035 44.7972 55.4656 44.4021 55.915 44.4021C56.0122 44.4021 56.104 44.4187 56.1893 44.4482C56.3724 43.9382 56.5625 43.4313 56.7617 42.9288C55.4436 42.7135 53.9483 42.5938 52.8106 43.346C51.8324 43.9924 51.3084 45.3352 51.4625 46.4841C51.4915 46.4465 51.5205 46.409 51.5495 46.3719C51.6569 46.2656 51.783 46.1921 51.9285 46.1507C52.0048 46.1405 52.081 46.1303 52.1567 46.1201C52.2748 46.1158 52.3854 46.1405 52.4874 46.1942C52.5937 46.2291 52.6861 46.2882 52.7639 46.3719C52.8477 46.4498 52.9068 46.5421 52.9417 46.6484C52.9953 46.751 53.02 46.861 53.0157 46.9791V47.0865C53.0152 47.2417 52.976 47.3861 52.8987 47.5203C52.8541 47.5783 52.809 47.6363 52.7645 47.6943C52.6571 47.8006 52.5309 47.8741 52.3854 47.9155C52.3092 47.9257 52.2329 47.9359 52.1572 47.9461C52.0445 47.9504 51.9393 47.9273 51.8416 47.879C52.1685 48.7901 52.5562 49.6867 52.466 50.6767C52.3613 51.823 51.6767 52.7422 50.6797 53.2866C50.0569 53.6264 49.3697 53.8315 48.668 53.9507V60.0686C49.4765 60.3204 50.3044 60.511 51.1479 60.6367C51.1973 60.6297 51.2477 60.6233 51.2982 60.6163ZM50.2158 57.2134C50.1095 57.1785 50.0172 57.1195 49.9393 57.0357C49.8556 56.9579 49.7965 56.8655 49.7616 56.7592C49.7079 56.6567 49.6832 56.5466 49.6875 56.4285V56.3211C49.6881 56.166 49.7273 56.0215 49.8046 55.8873C49.8491 55.8293 49.8942 55.7713 49.9388 55.7133C50.0462 55.607 50.1723 55.5335 50.3178 55.4921C50.3941 55.4819 50.4703 55.4717 50.546 55.4615C50.6641 55.4572 50.7747 55.4819 50.8768 55.5356C50.9831 55.5705 51.0754 55.6296 51.1533 55.7133C51.237 55.7912 51.2961 55.8835 51.331 55.9899C51.3847 56.0924 51.4094 56.2025 51.4051 56.3206V56.428C51.4045 56.5831 51.3653 56.7275 51.288 56.8618C51.2435 56.9198 51.1984 56.9777 51.1538 57.0357C51.0464 57.142 50.9202 57.2156 50.7747 57.2569C50.6985 57.2671 50.6223 57.2773 50.5466 57.2875C50.4284 57.2918 50.3178 57.2671 50.2158 57.2134Z" fill="#FAFFA0"/>
<path d="M51.2974 60.6157C51.2469 60.6227 51.1964 60.6291 51.1465 60.6361C51.161 60.6383 51.1749 60.6409 51.1894 60.6431C51.3478 60.6662 51.5067 60.6866 51.6657 60.7048C51.6533 60.7 51.641 60.6941 51.6281 60.6898C51.5261 60.6361 51.4155 60.6114 51.2974 60.6157Z" fill="#9AFFD8"/>
<path d="M50.5126 61.9129C50.5475 62.0192 50.6065 62.1115 50.6903 62.1894C50.7681 62.2731 50.8605 62.3322 50.9668 62.3671C51.0693 62.4208 51.1794 62.4455 51.2975 62.4412C51.3738 62.431 51.45 62.4208 51.5257 62.4106C51.6572 62.3735 51.7727 62.3096 51.8725 62.2194C51.8913 62.0809 51.9101 61.9424 51.9289 61.8039C51.4296 61.7582 50.9319 61.6906 50.4385 61.6025C50.4379 61.7131 50.4621 61.8168 50.5126 61.9129Z" fill="#9AFFD8"/>
<path d="M51.1533 57.0356C51.1978 56.9776 51.2429 56.9196 51.2875 56.8616C51.3653 56.7274 51.4045 56.583 51.4045 56.4278V56.3204C51.4088 56.2023 51.3841 56.0917 51.3304 55.9897C51.2955 55.8834 51.2365 55.7911 51.1527 55.7132C51.0749 55.6295 50.9825 55.5704 50.8762 55.5355C50.7737 55.4818 50.6636 55.4571 50.5455 55.4614C50.4693 55.4716 50.393 55.4818 50.3173 55.492C50.1718 55.5328 50.0456 55.6064 49.9383 55.7132C49.8937 55.7712 49.8486 55.8292 49.804 55.8872C49.7262 56.0214 49.687 56.1658 49.687 56.321V56.4284C49.6827 56.5465 49.7074 56.6571 49.7611 56.7591C49.796 56.8654 49.855 56.9577 49.9388 57.0356C50.0167 57.1193 50.109 57.1784 50.2153 57.2133C50.3179 57.267 50.4279 57.2917 50.546 57.2874C50.6223 57.2772 50.6985 57.267 50.7742 57.2568C50.9197 57.216 51.0464 57.1424 51.1533 57.0356Z" fill="#9AFFD8"/>
<path d="M51.841 47.8785C51.9392 47.9268 52.0444 47.9499 52.1567 47.9456C52.2329 47.9354 52.3091 47.9252 52.3848 47.915C52.5303 47.8742 52.6565 47.8006 52.7639 47.6938C52.8084 47.6358 52.8535 47.5778 52.8981 47.5198C52.976 47.3856 53.0152 47.2412 53.0152 47.086V46.9786C53.0194 46.8605 52.9947 46.7499 52.9411 46.6479C52.9062 46.5416 52.8471 46.4493 52.7633 46.3714C52.6855 46.2877 52.5932 46.2286 52.4868 46.1937C52.3843 46.14 52.2742 46.1153 52.1561 46.1196C52.0799 46.1298 52.0036 46.14 51.9279 46.1502C51.7824 46.191 51.6563 46.2646 51.5489 46.3714C51.5199 46.409 51.4909 46.4466 51.4619 46.4836C51.4635 46.4954 51.4646 46.5067 51.4662 46.5185C51.5349 46.9835 51.681 47.4329 51.841 47.8785Z" fill="#9AFFD8"/>
<path d="M55.0564 45.2604C55.073 45.6292 55.3007 45.9519 55.6341 46.0706C55.8123 45.5272 55.997 44.986 56.1903 44.4475C56.105 44.418 56.0131 44.4014 55.916 44.4014C55.466 44.4014 55.0355 44.7965 55.0564 45.2604Z" fill="#9AFFD8"/>
<path d="M84.6551 31.7679C84.6192 31.7319 84.5837 31.6965 84.5478 31.6605C84.4699 31.5767 84.3776 31.5177 84.2713 31.4828C84.1687 31.4291 84.0586 31.4044 83.9405 31.4087C83.8224 31.4044 83.7118 31.4291 83.6098 31.4828C83.5035 31.5177 83.4111 31.5767 83.3333 31.6605C83.2887 31.7185 83.2436 31.7765 83.1991 31.8344C83.1212 31.9687 83.082 32.1131 83.082 32.2682C83.0922 32.3445 83.1024 32.4207 83.1126 32.4964C83.1534 32.6419 83.227 32.7681 83.3333 32.8755C83.3693 32.9114 83.4047 32.9469 83.4407 32.9829C83.5185 33.0666 83.6109 33.1257 83.7172 33.1606C83.8197 33.2143 83.9298 33.239 84.0479 33.2347C84.166 33.239 84.2766 33.2143 84.3786 33.1606C84.4849 33.1257 84.5773 33.0666 84.6551 32.9829C84.6997 32.9249 84.7448 32.8669 84.7894 32.8089C84.8672 32.6747 84.9064 32.5303 84.9064 32.3751C84.8962 32.2989 84.886 32.2226 84.8758 32.1469C84.8355 32.0014 84.762 31.8747 84.6551 31.7679Z" fill="#9AFFD8"/>
<path d="M72.559 24.5371C72.1096 24.5371 71.679 24.9323 71.7 25.3961C71.7112 25.6539 71.8261 25.889 72.0076 26.0479C72.4468 25.6941 72.858 25.3092 73.258 24.9113C73.1055 24.6874 72.8564 24.5371 72.559 24.5371Z" fill="#9AFFD8"/>
<path d="M68.8002 24.4297C68.3508 24.4297 67.9202 24.8248 67.9412 25.2887C67.9621 25.7542 68.3186 26.1478 68.8002 26.1478C69.2496 26.1478 69.6802 25.7526 69.6592 25.2887C69.6383 24.8232 69.2818 24.4297 68.8002 24.4297Z" fill="#9AFFD8"/>
<path d="M90.0619 35.597C90.5113 35.597 90.9419 35.2018 90.9209 34.7379C90.9 34.2725 90.5435 33.8789 90.0619 33.8789C89.6125 33.8789 89.1819 34.2741 89.2029 34.7379C89.2238 35.2034 89.5803 35.597 90.0619 35.597Z" fill="#9AFFD8"/>
<path d="M86.7328 36.4561C86.2834 36.4561 85.8528 36.8512 85.8738 37.3151C85.8947 37.7806 86.2512 38.1741 86.7328 38.1741C87.1822 38.1741 87.6128 37.779 87.5918 37.3151C87.5709 36.8496 87.2144 36.4561 86.7328 36.4561Z" fill="#9AFFD8"/>
<path d="M84.9211 27.1797C84.9125 27.228 84.9082 27.2774 84.9077 27.3284V27.4358C84.9034 27.5539 84.9281 27.6645 84.9818 27.7665C85.0167 27.8728 85.0758 27.9652 85.1595 28.043C85.2374 28.1268 85.3297 28.1858 85.436 28.2207C85.5386 28.2744 85.6486 28.2991 85.7667 28.2948C85.843 28.2846 85.9192 28.2744 85.9949 28.2642C86.1404 28.2234 86.2666 28.1499 86.374 28.043C86.4185 27.985 86.4636 27.927 86.5082 27.8691C86.586 27.7348 86.6252 27.5904 86.6252 27.4352V27.3279C86.6258 27.3161 86.6247 27.3048 86.6242 27.293C86.055 27.3037 85.4865 27.2581 84.9211 27.1797Z" fill="#9AFFD8"/>
<path d="M91.2425 41.1801C91.2435 41.1688 91.2441 41.1575 91.243 41.1457L91.2425 41.1398C91.2323 41.0636 91.2221 40.9873 91.2119 40.9116C91.2108 40.9068 91.2103 40.9025 91.2092 40.8977C91.2081 40.8934 91.2065 40.8896 91.2049 40.8853C91.1759 40.8172 91.1469 40.7484 91.1184 40.6802C91.1179 40.6786 91.1168 40.677 91.1163 40.6759C91.0964 40.6421 91.0637 40.6062 91.0438 40.5809C91.0315 40.5648 90.9966 40.5149 90.9703 40.487C90.8683 40.3769 90.7045 40.2883 90.5612 40.2491C90.5563 40.248 90.552 40.247 90.5472 40.2459C90.508 40.24 90.4693 40.2346 90.4302 40.2303C90.3904 40.2239 90.3502 40.2185 90.3099 40.2142C90.2986 40.2137 90.2873 40.2137 90.2755 40.2148C90.1574 40.2105 90.0468 40.2352 89.9448 40.2888C89.8385 40.3237 89.7461 40.3828 89.6683 40.4666C89.5845 40.5444 89.5255 40.6368 89.4906 40.7431C89.4369 40.8456 89.4122 40.9557 89.4165 41.0738C89.4267 41.15 89.4369 41.2263 89.4471 41.302C89.4879 41.4475 89.5615 41.5736 89.6678 41.681C89.6796 41.6901 89.6908 41.6987 89.7027 41.7079C89.7247 41.7358 89.7483 41.7632 89.7751 41.7884C89.853 41.8721 89.9453 41.9312 90.0516 41.9661C90.1542 42.0198 90.2642 42.0445 90.3824 42.0402C90.4586 42.03 90.5348 42.0198 90.6105 42.0096C90.756 41.9688 90.8822 41.8952 90.9896 41.7884C91.0342 41.7304 91.0793 41.6724 91.1238 41.6144C91.2027 41.4797 91.2419 41.3353 91.2425 41.1801Z" fill="#9AFFD8"/>
<path d="M86.5181 46.0119H86.6255C86.7436 46.0162 86.8542 45.9915 86.9562 45.9379C87.0625 45.903 87.1548 45.8439 87.2327 45.7601C87.3165 45.6823 87.3755 45.5899 87.4104 45.4836C87.4641 45.3811 87.4888 45.271 87.4845 45.1529C87.4743 45.0767 87.4641 45.0004 87.4539 44.9247C87.4131 44.7792 87.3395 44.6531 87.2332 44.5457C87.1752 44.5011 87.1173 44.456 87.0593 44.4115C86.9251 44.3336 86.7806 44.2944 86.6255 44.2944H86.5181C86.4 44.2901 86.2894 44.3148 86.1874 44.3685C86.0811 44.4034 85.9887 44.4625 85.9109 44.5462C85.8862 44.5693 85.8642 44.594 85.8438 44.6192C86.0258 45.0761 86.2002 45.5363 86.3672 45.9985C86.4161 46.0071 86.4665 46.0119 86.5181 46.0119Z" fill="#9AFFD8"/>
<path d="M91.8871 45.3682C91.4377 45.3682 91.0071 45.7633 91.0281 46.2272C91.049 46.6927 91.4055 47.0862 91.8871 47.0862C92.3365 47.0862 92.7671 46.6911 92.7461 46.2272C92.7252 45.7617 92.3687 45.3682 91.8871 45.3682Z" fill="#9AFFD8"/>
<path d="M94.8236 17.9491C94.9014 18.0329 94.9938 18.0919 95.1001 18.1268C95.2026 18.1805 95.3127 18.2052 95.4308 18.2009C95.507 18.1907 95.5833 18.1805 95.659 18.1703C95.8045 18.1295 95.9306 18.056 96.038 17.9497C96.0826 17.8917 96.1277 17.8337 96.1722 17.7757C96.2501 17.6415 96.2893 17.4971 96.2893 17.3419V17.2345C96.2936 17.1164 96.2689 17.0058 96.2152 16.9038C96.1803 16.7975 96.1212 16.7051 96.0375 16.6273C95.9596 16.5435 95.8673 16.4845 95.761 16.4496C95.6584 16.3959 95.5484 16.3712 95.4303 16.3755C95.354 16.3857 95.2778 16.3959 95.2021 16.4061C95.0566 16.4469 94.9304 16.5204 94.823 16.6267C94.7785 16.6847 94.7334 16.7427 94.6888 16.8007C94.611 16.9349 94.5718 17.0793 94.5718 17.2345V17.3419C94.5675 17.46 94.5922 17.5706 94.6459 17.6726C94.6802 17.7795 94.7398 17.8713 94.8236 17.9491Z" fill="#9AFFD8"/>
<path d="M59.3694 35.8497C59.1611 35.3257 59.2856 34.7158 59.5643 34.2256C59.8435 33.7354 60.2612 33.3413 60.6746 32.9574C60.7492 32.8882 60.8254 32.8162 60.8818 32.7325C60.5205 32.6584 60.2655 32.3051 60.2493 31.9411C60.2343 31.6098 60.4512 31.3398 60.7347 31.2131C60.2499 30.1935 59.1471 29.8375 58.2714 28.8668C57.7233 28.2591 57.3764 27.5026 57.4468 26.6698C57.5064 25.9601 57.8564 25.3212 58.3879 24.8525C59.4676 23.8989 61.1417 23.5108 62.536 23.8673C63.3118 24.0659 64.0296 24.5013 64.7034 24.9201C64.7958 24.9776 64.8876 25.0355 64.9794 25.0935C65.9383 24.5733 66.9697 24.1856 68.0102 23.8667C69.6509 23.3631 71.304 23.3561 72.9614 23.7905C73.3254 23.886 73.6862 23.995 74.0443 24.1126C74.6881 23.4517 75.3361 22.7951 76.0673 22.2303C76.4416 21.9409 76.8399 21.6703 77.2598 21.4432C76.623 21.2182 75.9825 21.0024 75.3361 20.7994C72.941 20.0462 70.4836 19.4094 67.9796 19.1608C65.57 18.9219 63.1024 19.0368 60.805 19.8567C58.483 20.6856 56.6124 22.2888 55.0082 24.1223C53.4861 25.8613 51.9264 28.1307 51.9747 30.5435C52.0204 32.8146 53.7964 34.4881 55.4592 35.7954C56.3354 36.4843 57.2567 37.1135 58.142 37.7905C58.4057 37.9919 58.6601 38.2007 58.9098 38.4139C58.9941 38.2673 59.0795 38.1213 59.167 37.9763C59.5326 37.3691 59.9186 36.72 60.3326 36.0714C59.8429 36.066 59.4327 36.0086 59.3694 35.8497Z" fill="#427EFC"/>
<path d="M52.465 50.6753C52.5552 49.6858 52.1681 48.7887 51.8406 47.8776C51.6806 47.432 51.5351 46.9831 51.4669 46.5182C51.4653 46.5064 51.4642 46.4951 51.4626 46.4833C51.3085 45.3343 51.8325 43.9915 52.8107 43.3451C53.9484 42.5935 55.4437 42.7127 56.7618 42.928C56.838 42.7352 56.9164 42.543 56.9953 42.3513C56.4112 42.5639 55.7835 42.7084 55.1634 42.71C54.575 42.7116 54.5761 41.7989 55.1634 41.7973C55.7395 41.7956 56.3129 41.6383 56.8487 41.4359C57.0774 41.3495 57.3078 41.2485 57.5258 41.1261C57.69 40.7637 57.8602 40.4046 58.0363 40.0497C57.4753 40.193 56.8976 40.2569 56.3451 40.2408C55.7583 40.2236 55.7578 39.3109 56.3451 39.3281C56.9148 39.3447 57.5086 39.2669 58.0696 39.0902C57.5397 38.6575 56.9846 38.2548 56.4326 37.8522C54.6566 36.5566 52.7077 35.2079 51.6333 33.2284C50.4511 31.0513 50.8897 28.6369 52.0081 26.5312C53.1356 24.4083 54.8338 22.4878 56.6946 20.9749C58.6226 19.4071 60.9334 18.4719 63.3886 18.1385C65.8729 17.8007 68.393 18.0305 70.8429 18.5137C73.2186 18.9825 75.538 19.7008 77.8236 20.4933C78.1634 20.6109 78.5012 20.7333 78.8378 20.8589C79.6539 20.6941 80.5097 20.7086 81.3199 20.8949C82.2009 21.0973 83.0712 21.5327 83.6763 22.2172C83.9018 22.4728 84.072 22.7563 84.1933 23.058C84.6346 23.2438 85.0765 23.4279 85.52 23.6078C87.3803 24.3637 89.2788 25.0805 91.2293 25.5803C91.3958 25.4472 91.5584 25.3087 91.7163 25.1643C92.643 24.317 93.436 23.2384 93.8118 22.0272C93.858 21.8785 93.8982 21.7276 93.9315 21.5746C94.2477 20.1137 93.8741 18.6506 92.9672 17.4727C92.5517 16.9347 92.069 16.4451 91.545 16H48.667V53.9493C49.3687 53.8301 50.0559 53.625 50.6787 53.2852C51.6758 52.7408 52.3608 51.8216 52.465 50.6753Z" fill="#427EFC"/>
<path d="M83.6748 26.9624C84.0877 27.0467 84.5032 27.1218 84.9204 27.1798C85.4858 27.2582 86.0549 27.3038 86.6245 27.2936C86.9381 27.2883 87.2516 27.2668 87.5657 27.2233C87.9243 27.1739 88.2744 27.095 88.6148 26.9908C89.1184 26.8367 89.601 26.6263 90.0596 26.3696C88.1359 25.8123 86.2675 25.08 84.4179 24.3096C84.4168 24.4561 84.4077 24.6033 84.3894 24.7509C84.2869 25.5836 84.0232 26.3009 83.6748 26.9624Z" fill="#427EFC"/>
<path d="M93.521 26.053C92.7479 25.9348 91.9839 25.7738 91.2274 25.5799C89.2769 25.0801 87.3779 24.3639 85.5181 23.6074C85.0746 23.427 84.6327 23.2434 84.1914 23.0576C84.3493 23.4517 84.4212 23.8758 84.418 24.3086C86.2676 25.0785 88.136 25.8108 90.0597 26.3686C90.3158 26.4427 90.5729 26.5152 90.8312 26.5829C92.6792 27.0671 94.7076 27.4371 96.6651 27.3141V26.2333C95.6095 26.3015 94.5325 26.2076 93.521 26.053Z" fill="white"/>
<path d="M51.9297 61.8037C51.9791 61.4515 52.0296 61.0988 52.0833 60.7471C51.9437 60.7347 51.8046 60.7202 51.6661 60.7041C51.5072 60.6859 51.3482 60.6655 51.1899 60.6424C51.1754 60.6403 51.1614 60.6376 51.1469 60.6354C50.304 60.5098 49.4756 60.3192 48.667 60.0674V61.1906C49.2501 61.3586 49.8417 61.4955 50.4393 61.6018C50.9332 61.6904 51.4304 61.7575 51.9297 61.8037Z" fill="white"/>
<path d="M55.4588 35.7961C53.796 34.4883 52.02 32.8148 51.9744 30.5442C51.926 28.1309 53.4857 25.862 55.0083 24.1219C56.6126 22.2884 58.4831 20.6852 60.8052 19.8563C63.102 19.0364 65.5696 18.9215 67.9797 19.1605C70.4838 19.409 72.9412 20.0458 75.3363 20.7991C75.9821 21.0025 76.6232 21.2178 77.26 21.4428C77.6701 21.2211 78.1013 21.0401 78.5523 20.9242C78.6467 20.9 78.7418 20.8785 78.8368 20.8592C78.5002 20.7336 78.1619 20.6111 77.8226 20.4936C75.5371 19.7011 73.2177 18.9827 70.8419 18.514C68.3926 18.0308 65.8719 17.801 63.3877 18.1387C60.9324 18.4727 58.6217 19.4074 56.6937 20.9752C54.8333 22.4881 53.1346 24.4086 52.0071 26.5315C50.8888 28.6372 50.4501 31.0516 51.6324 33.2287C52.7067 35.2077 54.6556 36.5564 56.4317 37.8524C56.9836 38.2551 57.5393 38.6578 58.0686 39.0905C58.27 39.0272 58.467 38.9509 58.6571 38.8618C58.7398 38.7115 58.8241 38.5622 58.9094 38.414C58.6598 38.2009 58.4047 37.992 58.1417 37.7907C57.2563 37.1142 56.335 36.485 55.4588 35.7961Z" fill="white"/>
<path d="M73.1273 53.1481C73.1869 53.11 73.2459 53.0714 73.3055 53.0333C73.2427 53.0316 73.1804 53.0295 73.1182 53.0273C73.1268 53.0665 73.1305 53.1073 73.1273 53.1481Z" fill="#FFCD2E"/>
<path d="M72.0548 52.9675C72.0446 52.967 72.0338 52.9659 72.0236 52.9648C72.0134 53.0046 72.0021 53.0443 71.9893 53.084C72.0349 53.0475 72.08 53.0105 72.1246 52.9724C72.1015 52.9708 72.0778 52.9691 72.0548 52.9675Z" fill="#FFCD2E"/>
<path d="M89.177 60.2564C89.0777 57.7357 88.77 55.2241 88.2621 52.7533C88.0645 51.7928 87.8374 50.8296 87.5803 49.8691C87.2318 48.5699 86.8281 47.2754 86.3669 45.9992C86.1999 45.5369 86.0254 45.0768 85.8434 44.6199C85.3978 43.5005 84.9065 42.3982 84.3686 41.3234C84.3449 41.3212 84.3208 41.3186 84.2966 41.3175C84.2494 41.3148 84.2027 41.3148 84.1554 41.3153C83.8999 41.3186 83.7098 41.1033 83.6991 40.859C83.6915 40.6936 83.7909 40.5481 83.9278 40.4681C83.8156 40.2566 83.7017 40.0466 83.5858 39.8378C83.0709 39.6934 82.5737 39.477 82.0996 39.2129C81.5858 38.9267 82.0465 38.1391 82.5603 38.4247C82.658 38.4789 82.7563 38.5305 82.8551 38.5793C82.2392 37.5646 81.5767 36.5842 80.8659 35.6463C80.766 35.6361 80.6683 35.628 80.5765 35.6275C79.6181 35.6205 78.6624 35.5797 77.7052 35.541C75.7396 35.461 73.7719 35.4535 71.8047 35.4755C69.5449 35.5008 67.2856 35.5657 65.0259 35.6055C63.9827 35.6237 63.1435 35.7048 62.1642 35.9319C61.958 35.9797 61.0577 36.0822 60.3318 36.0726C59.9178 36.7217 59.5318 37.3708 59.1662 37.9775C59.0792 38.1224 58.9938 38.2679 58.909 38.415C58.8236 38.5632 58.7394 38.7125 58.6567 38.8628C59.1705 38.6223 59.6338 38.2872 59.9941 37.8518C60.1519 37.6612 60.4778 37.6902 60.6394 37.8518C60.8252 38.0376 60.7967 38.3076 60.6394 38.4972C59.9925 39.2778 59.0411 39.7932 58.0349 40.0504C57.8588 40.4053 57.6892 40.7645 57.5244 41.1269C57.8057 40.969 58.0661 40.7768 58.276 40.5363C58.6626 40.0923 59.3058 40.7403 58.9214 41.1816C58.4618 41.7089 57.803 42.0385 57.162 42.2893C57.1067 42.3107 57.0508 42.3317 56.9944 42.3521C56.9155 42.5437 56.8371 42.736 56.7609 42.9287C56.5617 43.4312 56.3716 43.9381 56.1886 44.4481C55.9953 44.9866 55.8106 45.5278 55.6323 46.0711C55.1432 47.5632 54.7057 49.067 54.289 50.5451C53.3446 53.8964 52.6069 57.3062 52.0824 60.7482C52.0287 61.0999 51.9777 61.4521 51.9288 61.8048C51.9095 61.9434 51.8907 62.0819 51.8725 62.2204C51.793 62.8126 51.7195 63.4053 51.6523 63.9991H54.2273C54.2434 63.9787 54.26 63.9583 54.2756 63.9385C55.5572 62.3364 56.7759 60.6441 58.2234 59.1848C59.6129 57.7835 61.0491 56.4101 62.5245 55.1001C63.8522 53.9216 65.2583 52.7668 66.7858 51.8385C66.2886 51.6452 65.799 51.4229 65.3426 51.1523C65.2621 51.1045 65.1816 51.0546 65.1016 51.0025C64.6189 50.689 64.1555 50.2927 63.885 49.787C63.5789 49.2157 63.5983 48.5468 63.9746 48.0109C64.3241 47.5138 64.8594 47.1906 65.4087 46.9543C65.8774 46.753 66.3504 46.5946 66.8277 46.4695C69.6313 45.7345 72.5644 46.1801 75.4545 46.1672C76.4955 46.1624 78.0284 45.9632 79.3169 46.1952C80.3472 46.3804 81.2213 46.8416 81.5606 47.8998C81.6594 48.2074 81.7088 48.5344 81.704 48.8598C81.9042 48.8206 82.1056 48.7878 82.308 48.7637C83.1154 48.667 83.9815 48.7846 84.5613 49.4101C84.7358 49.598 84.8512 49.8042 84.9167 50.02C85.0279 50.0764 85.1159 50.1714 85.1331 50.2949C85.3505 51.8422 83.9535 53.0851 82.9657 54.0768C82.7283 54.3152 82.49 54.5519 82.2494 54.7866C82.1582 55.2719 82.1721 55.7906 82.2339 56.3156C82.3901 56.357 82.5329 56.4697 82.556 56.6308C82.6102 57.0066 82.5721 57.3781 82.4749 57.7368C82.5603 58.1749 82.6419 58.5996 82.6849 58.9953C82.7181 59.3045 82.7434 59.6342 82.7595 59.9773C82.9936 60.0266 83.1895 60.2317 83.0934 60.5243C83.0156 60.7617 82.905 60.9716 82.7729 61.1638C82.7504 62.1066 82.6467 63.0902 82.4261 64.0002H89.3397C89.4127 62.607 89.2076 61.0323 89.177 60.2564ZM70.558 41.245C70.5441 41.31 70.5274 41.3733 70.5102 41.4361C70.5049 41.4555 70.499 41.4748 70.4931 41.4941C70.4802 41.5376 70.4673 41.58 70.4528 41.6219C70.4458 41.6428 70.4388 41.6632 70.4313 41.6836C70.4163 41.7255 70.4007 41.7663 70.3841 41.8071C70.3771 41.8243 70.3706 41.8415 70.3637 41.8581C70.34 41.9145 70.3148 41.9693 70.2885 42.023C70.2863 42.0278 70.2837 42.0326 70.281 42.0375C70.2568 42.0863 70.231 42.1336 70.2047 42.1803C70.1956 42.1964 70.1859 42.2125 70.1763 42.2286C70.1553 42.2635 70.1339 42.2984 70.1119 42.3322C70.1011 42.3489 70.0904 42.365 70.0791 42.3816C70.0555 42.4165 70.0308 42.4503 70.0061 42.4841C69.997 42.4965 69.9878 42.5099 69.9782 42.5223C69.9433 42.5674 69.9078 42.6114 69.8708 42.6543C69.866 42.6603 69.8606 42.6656 69.8558 42.671C69.8235 42.7075 69.7903 42.7435 69.7564 42.7784C69.7441 42.7907 69.7317 42.8031 69.7194 42.8149C69.6909 42.8428 69.6625 42.8702 69.6335 42.897C69.6201 42.9088 69.6072 42.9212 69.5938 42.933C69.5615 42.9615 69.5283 42.9894 69.495 43.0162C69.4853 43.0243 69.4756 43.0323 69.466 43.0404C69.4219 43.0753 69.3769 43.1091 69.3312 43.1413C69.3248 43.1456 69.3189 43.1499 69.3124 43.1542C69.2727 43.1816 69.2324 43.2079 69.1916 43.2337C69.1782 43.2422 69.1648 43.2503 69.1514 43.2584C69.1159 43.2798 69.0799 43.3008 69.0434 43.3212C69.03 43.3287 69.0161 43.3362 69.0026 43.3437C68.9608 43.3663 68.9178 43.3877 68.8749 43.4087C68.8679 43.4119 68.8609 43.4157 68.8534 43.4194C68.8013 43.4441 68.7481 43.4677 68.6945 43.4898C68.6891 43.4919 68.6837 43.494 68.6778 43.4962C68.6306 43.5155 68.5833 43.5338 68.5355 43.551C68.5232 43.5553 68.5103 43.5601 68.4974 43.5644C68.4545 43.5794 68.411 43.5934 68.3675 43.6068C68.3557 43.6106 68.3439 43.6143 68.3315 43.6175C68.2778 43.6336 68.2236 43.6481 68.1688 43.6621C68.1683 43.6621 68.1678 43.6626 68.1672 43.6626C68.1082 43.6771 68.0486 43.6906 67.9884 43.7024C67.9852 43.7029 67.982 43.7034 67.9788 43.704C67.9245 43.7147 67.8703 43.7238 67.8156 43.7324C67.8054 43.734 67.7952 43.7357 67.7844 43.7373C67.734 43.7448 67.6829 43.7512 67.6319 43.7571C67.6239 43.7582 67.6153 43.7593 67.6072 43.7598C67.4859 43.7727 67.3635 43.7802 67.24 43.7829C67.2395 43.7829 67.2389 43.7829 67.2384 43.7829C67.1788 43.784 67.1192 43.784 67.0596 43.7829C67.0521 43.7829 67.0446 43.7824 67.0371 43.7824C66.9807 43.7813 66.9238 43.7786 66.8669 43.7754C66.8626 43.7754 66.8583 43.7748 66.8545 43.7748C66.6677 43.763 66.4814 43.7399 66.2961 43.7056C66.2908 43.7045 66.2854 43.7034 66.2806 43.7029C66.221 43.6916 66.1614 43.6793 66.1023 43.6659C66.1013 43.6659 66.1002 43.6653 66.0996 43.6653C65.9751 43.6369 65.8511 43.6036 65.7292 43.5649C64.5738 43.202 63.5617 42.3972 63.1628 41.2241C62.5137 39.3127 63.9676 37.7074 65.7211 37.1646C65.8307 37.1308 65.9418 37.1007 66.0535 37.0755C66.1082 37.0631 66.163 37.0518 66.2183 37.0411C66.2199 37.0406 66.2215 37.0406 66.2237 37.04C66.3337 37.0196 66.4449 37.003 66.5555 36.9912C66.5592 36.9906 66.563 36.9906 66.5667 36.9901C66.6172 36.9847 66.6677 36.9804 66.7187 36.9772C66.7246 36.9767 66.73 36.9761 66.7359 36.9761C66.8432 36.9692 66.9506 36.967 67.0575 36.9686C67.0661 36.9686 67.0741 36.9692 67.0827 36.9692C67.1273 36.9702 67.1718 36.9724 67.2158 36.9751C67.226 36.9756 67.2357 36.9761 67.2459 36.9767C67.349 36.9837 67.451 36.9949 67.5525 37.011C67.5643 37.0127 67.5761 37.0148 67.5885 37.017C67.6276 37.0234 67.6663 37.0309 67.705 37.0384C67.7178 37.0411 67.7307 37.0433 67.7431 37.0465C67.8408 37.0674 67.9374 37.0927 68.0325 37.1227C68.0459 37.127 68.0593 37.1313 68.0727 37.1361C68.1076 37.148 68.1425 37.1598 68.1774 37.1727C68.1908 37.1775 68.2048 37.1829 68.2182 37.1877C68.2644 37.2054 68.31 37.2242 68.3551 37.2441C69.1519 37.5989 69.8321 38.2625 70.2348 39.0529C70.5806 39.7272 70.7218 40.4966 70.558 41.245ZM80.235 41.9172C80.2157 41.9677 80.1947 42.0165 80.1727 42.0648C80.1695 42.0718 80.1663 42.0788 80.1631 42.0858C80.1416 42.1314 80.119 42.176 80.0954 42.22C80.0911 42.2281 80.0863 42.2361 80.082 42.2442C80.0578 42.2876 80.0326 42.3301 80.0063 42.3714C80.002 42.3778 79.9982 42.3843 79.9939 42.3902C79.966 42.4331 79.937 42.4756 79.907 42.5169L79.9064 42.5174C79.8758 42.5588 79.8442 42.5985 79.8114 42.6377C79.8066 42.6436 79.8023 42.649 79.7974 42.6549C79.7658 42.6919 79.7335 42.7279 79.6997 42.7633C79.6933 42.7698 79.6874 42.7768 79.6809 42.7832C79.6471 42.8181 79.6127 42.8525 79.5773 42.8852C79.5719 42.8906 79.566 42.8954 79.5607 42.9002C79.5231 42.9346 79.485 42.9684 79.4452 43.0006C79.4447 43.0006 79.4447 43.0012 79.4442 43.0017C79.405 43.0339 79.3642 43.0656 79.3228 43.0962C79.3169 43.1005 79.311 43.1048 79.3051 43.1091C79.2654 43.1381 79.2246 43.166 79.1832 43.1934C79.1757 43.1982 79.1682 43.2036 79.1601 43.2084C79.1188 43.2353 79.0764 43.2616 79.034 43.2868C79.0275 43.2906 79.0205 43.2943 79.0136 43.2986C78.9685 43.3249 78.9228 43.3502 78.8767 43.3743C78.8761 43.3743 78.8756 43.3749 78.8751 43.3749C78.8283 43.399 78.7811 43.4221 78.7333 43.4447C78.7269 43.4479 78.7199 43.4511 78.7134 43.4543C78.6673 43.4758 78.6206 43.4962 78.5733 43.5161C78.5647 43.5198 78.5561 43.523 78.5475 43.5268C78.5003 43.5461 78.4525 43.5649 78.4042 43.5826C78.3967 43.5853 78.3892 43.588 78.3816 43.5907C78.3312 43.6089 78.2802 43.6267 78.2286 43.6433C78.2281 43.6433 78.2276 43.6438 78.227 43.6438C78.1755 43.6605 78.1229 43.6761 78.0702 43.6911C78.0633 43.6932 78.0563 43.6948 78.0498 43.697C77.9994 43.711 77.9484 43.7244 77.8968 43.7373C77.8877 43.7394 77.8786 43.7416 77.8694 43.7437C77.8184 43.7561 77.7669 43.7679 77.7154 43.7786C77.7078 43.7802 77.7003 43.7818 77.6923 43.7834C77.638 43.7947 77.5838 43.8049 77.5291 43.8146C77.5285 43.8146 77.528 43.8146 77.5274 43.8146C77.4727 43.8242 77.4174 43.8328 77.3626 43.8403C77.3556 43.8414 77.3487 43.8425 77.3422 43.8436C77.2891 43.8511 77.2359 43.8575 77.1828 43.8634C77.1736 43.8645 77.1645 43.8656 77.1559 43.8667C77.1028 43.8726 77.0496 43.8774 76.9965 43.8817C76.9889 43.8822 76.9814 43.8828 76.9739 43.8833C76.9181 43.8876 76.8628 43.8913 76.8069 43.894H76.8064C76.75 43.8967 76.6942 43.8989 76.6383 43.8999C76.6319 43.8999 76.6255 43.9005 76.619 43.9005C76.5653 43.9016 76.5116 43.9016 76.4585 43.9016C76.4499 43.9016 76.4413 43.9016 76.4327 43.9016C76.3796 43.901 76.3264 43.8999 76.2738 43.8978C76.2668 43.8978 76.2598 43.8973 76.2529 43.8967C76.1417 43.8924 76.0317 43.8849 75.9232 43.8752C75.9173 43.8747 75.9114 43.8742 75.9055 43.8736C75.8534 43.8688 75.8019 43.8629 75.7503 43.857C75.7423 43.8559 75.7342 43.8548 75.7262 43.8538C75.6752 43.8473 75.6247 43.8403 75.5742 43.8328C75.5672 43.8318 75.5608 43.8307 75.5538 43.8296C75.5017 43.8216 75.4497 43.813 75.3987 43.8033C75.1469 43.7571 74.9069 43.6948 74.6867 43.6186C74.0521 43.399 73.4406 42.9593 73.0669 42.3923C72.9955 42.3419 72.9338 42.2699 72.8935 42.1733C72.5123 41.2547 72.6277 40.1401 72.995 39.2365C73.3751 38.3001 74.0349 37.5785 75.0159 37.2773C75.1399 37.2392 75.266 37.2081 75.3938 37.1823C75.906 37.0787 76.4397 37.0744 76.9599 37.1598C76.9648 37.1608 76.9696 37.1614 76.9744 37.1619C77.0158 37.1689 77.0571 37.1764 77.0985 37.1845C77.1065 37.1861 77.114 37.1877 77.1221 37.1893C77.1613 37.1973 77.2005 37.2054 77.2391 37.2145C77.2488 37.2167 77.2585 37.2188 77.2681 37.2215C77.3057 37.2306 77.3433 37.2398 77.3809 37.2494C77.3916 37.2521 77.4023 37.2553 77.4131 37.258C77.4496 37.2677 77.4861 37.2779 77.5226 37.2886C77.5339 37.2918 77.5446 37.2956 77.5559 37.2988C77.5919 37.3096 77.6278 37.3208 77.6638 37.3326C77.6746 37.3364 77.6853 37.3402 77.696 37.3439C77.732 37.3563 77.7685 37.3686 77.8039 37.382C77.8125 37.3853 77.8211 37.3885 77.8292 37.3917C77.9881 37.4513 78.1438 37.5195 78.2947 37.5963C78.3102 37.6043 78.3253 37.6118 78.3408 37.6193C78.3661 37.6328 78.3913 37.6467 78.4165 37.6602C78.4359 37.6704 78.4547 37.6811 78.4735 37.6918C78.4965 37.7052 78.5196 37.7187 78.5427 37.7321C78.5631 37.7444 78.5835 37.7563 78.6039 37.7686C78.6254 37.782 78.6469 37.7954 78.6683 37.8094C78.6893 37.8228 78.7102 37.8363 78.7312 37.8502C78.7516 37.8636 78.772 37.8776 78.7924 37.8916C78.8138 37.906 78.8348 37.9211 78.8557 37.9356C78.8751 37.9495 78.8949 37.9635 78.9142 37.978C78.9357 37.9936 78.9567 38.0097 78.9776 38.0258C78.9964 38.0403 79.0146 38.0542 79.0329 38.0693C79.0544 38.0864 79.0753 38.1036 79.0963 38.1208C79.114 38.1353 79.1312 38.1498 79.1483 38.1648C79.1698 38.1831 79.1907 38.2019 79.2117 38.2207C79.2278 38.2352 79.2439 38.2497 79.26 38.2642C79.282 38.2846 79.303 38.305 79.3244 38.3259C79.3389 38.3399 79.3534 38.3538 79.3679 38.3678C79.3915 38.3914 79.4141 38.415 79.4372 38.4392C79.449 38.4515 79.4608 38.4633 79.4721 38.4757C79.5059 38.5122 79.5392 38.5498 79.5719 38.5874C79.8662 38.931 80.0938 39.3342 80.2398 39.7637C80.4771 40.4638 80.4975 41.2305 80.235 41.9172Z" fill="#FFCD2E"/>
<path d="M76.8633 41.9009C76.8939 41.8971 76.9245 41.8934 76.9551 41.888C76.9766 41.7876 76.9997 41.6872 77.0243 41.5879C77.0023 41.6035 76.9782 41.6169 76.9535 41.6265C76.9218 41.7173 76.8917 41.8091 76.8633 41.9009Z" fill="#FFCD2E"/>
<path d="M68.2939 41.3417C68.2955 41.324 68.2976 41.3068 68.2987 41.2891C68.2692 41.383 68.238 41.4743 68.2031 41.5602C68.2412 41.4942 68.2708 41.4206 68.2939 41.3417Z" fill="#FFCD2E"/>
<path d="M78.1968 39.4359C78.1823 39.4311 78.1678 39.4257 78.1533 39.4209C78.2118 39.4912 78.2671 39.5648 78.3171 39.64C78.3375 39.6346 78.3579 39.6324 78.3783 39.6314C78.3761 39.6222 78.3745 39.6126 78.3729 39.6034C78.3176 39.5444 78.2591 39.4875 78.1968 39.4359Z" fill="#FFCD2E"/>
<path d="M65.3423 41.6328C65.2934 41.4943 65.2537 41.3477 65.2257 41.1963C65.2107 41.2092 65.1946 41.2215 65.179 41.2339C65.1726 41.3278 65.1737 41.4212 65.1812 41.5136C65.2322 41.5565 65.2864 41.5957 65.3423 41.6328Z" fill="#FFCD2E"/>
<path d="M65.7349 40.8892C65.7381 40.9251 65.7424 40.9606 65.7473 40.996C65.7655 40.8103 65.7913 40.6245 65.8273 40.4414C65.7945 40.4994 65.7607 40.5558 65.7253 40.6111C65.7231 40.7039 65.7263 40.7968 65.7349 40.8892Z" fill="#FFCD2E"/>
<path d="M67.4243 40.4912C67.4388 40.3919 67.4495 40.2909 67.4592 40.1895C67.4178 40.3639 67.3776 40.5384 67.3351 40.7113C67.2927 40.8842 67.2476 41.0555 67.1972 41.2224C67.187 41.2563 67.1768 41.2906 67.166 41.3255C67.1553 41.3604 67.1445 41.3953 67.1333 41.4313C67.1113 41.5027 67.0882 41.5757 67.0635 41.6493C67.2476 41.3481 67.3432 40.9846 67.4017 40.6383C67.4098 40.5889 67.4173 40.5395 67.4243 40.4912Z" fill="#FFCD2E"/>
<path d="M75.5546 43.83C75.5025 43.822 75.4504 43.8134 75.3994 43.8037C75.4504 43.8134 75.5025 43.822 75.5546 43.83Z" fill="white"/>
<path d="M80.1634 42.0859C80.1419 42.1316 80.1193 42.1761 80.0957 42.2202C80.1193 42.1767 80.1419 42.1321 80.1634 42.0859Z" fill="white"/>
<path d="M80.2351 41.917C80.2158 41.9675 80.1949 42.0163 80.1729 42.0646C80.1949 42.0163 80.2158 41.9675 80.2351 41.917Z" fill="white"/>
<path d="M77.2676 37.2227C77.3052 37.2318 77.3427 37.2409 77.3803 37.2506C77.3427 37.2409 77.3057 37.2312 77.2676 37.2227Z" fill="white"/>
<path d="M76.9746 37.1631C77.016 37.1701 77.0573 37.1776 77.0986 37.1856C77.0573 37.1776 77.016 37.1701 76.9746 37.1631Z" fill="white"/>
<path d="M77.1221 37.1904C77.1613 37.1985 77.2005 37.2065 77.2391 37.2157C77.2005 37.2071 77.1613 37.1985 77.1221 37.1904Z" fill="white"/>
<path d="M79.0957 38.1221C79.1134 38.1366 79.1306 38.1511 79.1478 38.1661C79.1306 38.1511 79.1134 38.1366 79.0957 38.1221Z" fill="white"/>
<path d="M76.6195 43.9014C76.5658 43.9024 76.5121 43.9024 76.459 43.9024C76.5127 43.903 76.5658 43.9024 76.6195 43.9014Z" fill="white"/>
<path d="M76.4333 43.9022C76.3802 43.9017 76.327 43.9006 76.2744 43.8984C76.327 43.9006 76.3796 43.9017 76.4333 43.9022Z" fill="white"/>
<path d="M76.2535 43.8975C76.1423 43.8932 76.0323 43.8856 75.9238 43.876C76.0323 43.8862 76.1423 43.8932 76.2535 43.8975Z" fill="white"/>
<path d="M75.9061 43.8741C75.8541 43.8692 75.8025 43.8633 75.751 43.8574C75.8025 43.8633 75.8541 43.8692 75.9061 43.8741Z" fill="white"/>
<path d="M75.7262 43.8549C75.6752 43.8485 75.6247 43.8415 75.5742 43.834C75.6241 43.8415 75.6752 43.8485 75.7262 43.8549Z" fill="white"/>
<path d="M78.7324 37.8516C78.7528 37.865 78.7732 37.8789 78.7936 37.8929C78.7732 37.8789 78.7528 37.8655 78.7324 37.8516Z" fill="white"/>
<path d="M78.6045 37.7695C78.626 37.783 78.6474 37.7964 78.6689 37.8103C78.648 37.7964 78.6265 37.7824 78.6045 37.7695Z" fill="white"/>
<path d="M79.0148 43.2988C78.9697 43.3251 78.9241 43.3504 78.8779 43.3745C78.9241 43.3504 78.9697 43.3246 79.0148 43.2988Z" fill="white"/>
<path d="M77.4131 37.2588C77.4496 37.2685 77.4861 37.2787 77.5226 37.2894C77.4866 37.2787 77.4501 37.2685 77.4131 37.2588Z" fill="white"/>
<path d="M78.8564 37.9365C78.8758 37.9505 78.8956 37.9644 78.915 37.9789C78.8951 37.9644 78.8758 37.9505 78.8564 37.9365Z" fill="white"/>
<path d="M76.8077 43.8945C76.7513 43.8972 76.6955 43.8994 76.6396 43.9004C76.6955 43.8994 76.7519 43.8972 76.8077 43.8945Z" fill="white"/>
<path d="M78.3408 37.6201C78.3661 37.6335 78.3913 37.6475 78.4165 37.6609C78.3913 37.6475 78.3666 37.6335 78.3408 37.6201Z" fill="white"/>
<path d="M77.5557 37.2998C77.5916 37.3105 77.6276 37.3218 77.6636 37.3336C77.6281 37.3224 77.5922 37.3111 77.5557 37.2998Z" fill="white"/>
<path d="M77.6963 37.3447C77.7323 37.3571 77.7688 37.3694 77.8042 37.3828C77.7688 37.3694 77.7323 37.3571 77.6963 37.3447Z" fill="white"/>
<path d="M77.8291 37.3926C77.988 37.4522 78.1437 37.5204 78.2946 37.5971C78.1437 37.5204 77.988 37.4522 77.8291 37.3926Z" fill="white"/>
<path d="M78.9775 38.0273C78.9963 38.0418 79.0146 38.0558 79.0328 38.0708C79.0146 38.0558 78.9958 38.0418 78.9775 38.0273Z" fill="white"/>
<path d="M78.3835 43.5908C78.333 43.6091 78.282 43.6268 78.2305 43.6434C78.282 43.6273 78.333 43.6096 78.3835 43.5908Z" fill="white"/>
<path d="M79.6808 42.7832C79.6469 42.8181 79.6126 42.8525 79.5771 42.8852C79.612 42.8519 79.6469 42.8181 79.6808 42.7832Z" fill="white"/>
<path d="M78.5486 43.5273C78.5014 43.5467 78.4536 43.5655 78.4053 43.5832C78.4536 43.5655 78.5014 43.5467 78.5486 43.5273Z" fill="white"/>
<path d="M79.5607 42.9004C79.5232 42.9348 79.485 42.9686 79.4453 43.0008C79.485 42.9686 79.5232 42.9348 79.5607 42.9004Z" fill="white"/>
<path d="M78.2281 43.6445C78.1765 43.6612 78.1239 43.6767 78.0713 43.6918C78.1244 43.6767 78.1765 43.6612 78.2281 43.6445Z" fill="white"/>
<path d="M79.4436 43.002C79.4044 43.0342 79.3636 43.0658 79.3223 43.0964C79.3636 43.0658 79.4044 43.0347 79.4436 43.002Z" fill="white"/>
<path d="M79.3055 43.1094C79.2657 43.1384 79.2249 43.1663 79.1836 43.1937C79.2249 43.1663 79.2657 43.1384 79.3055 43.1094Z" fill="white"/>
<path d="M79.1604 43.209C79.119 43.2358 79.0766 43.2621 79.0342 43.2874C79.0771 43.2621 79.119 43.2358 79.1604 43.209Z" fill="white"/>
<path d="M78.8751 43.376C78.8284 43.4001 78.7812 43.4232 78.7334 43.4458C78.7817 43.4232 78.829 43.4001 78.8751 43.376Z" fill="white"/>
<path d="M78.7144 43.4551C78.6682 43.4766 78.6215 43.497 78.5742 43.5168C78.6215 43.497 78.6682 43.4766 78.7144 43.4551Z" fill="white"/>
<path d="M76.9756 43.8838C76.9197 43.8881 76.8644 43.8918 76.8086 43.8945C76.8639 43.8918 76.9197 43.8881 76.9756 43.8838Z" fill="white"/>
<path d="M77.5301 43.8154C77.4753 43.8251 77.42 43.8337 77.3652 43.8412C77.42 43.8337 77.4753 43.8251 77.5301 43.8154Z" fill="white"/>
<path d="M77.344 43.8447C77.2909 43.8522 77.2377 43.8587 77.1846 43.8646C77.2377 43.8587 77.2909 43.8522 77.344 43.8447Z" fill="white"/>
<path d="M78.0515 43.6982C78.001 43.7122 77.95 43.7256 77.8984 43.7385C77.95 43.7256 78.001 43.7122 78.0515 43.6982Z" fill="white"/>
<path d="M80.0825 42.2441C80.0584 42.2876 80.0331 42.33 80.0068 42.3714C80.0331 42.33 80.0584 42.2871 80.0825 42.2441Z" fill="white"/>
<path d="M77.1575 43.8672C77.1044 43.8731 77.0512 43.8779 76.998 43.8822C77.0512 43.8779 77.1044 43.8731 77.1575 43.8672Z" fill="white"/>
<path d="M79.9942 42.3906C79.9663 42.4336 79.9373 42.476 79.9072 42.5173C79.9373 42.4765 79.9663 42.4341 79.9942 42.3906Z" fill="white"/>
<path d="M77.6945 43.7842C77.6402 43.7955 77.586 43.8057 77.5312 43.8153C77.586 43.8057 77.6402 43.7955 77.6945 43.7842Z" fill="white"/>
<path d="M79.7969 42.6553C79.7653 42.6923 79.733 42.7283 79.6992 42.7637C79.733 42.7283 79.7658 42.6923 79.7969 42.6553Z" fill="white"/>
<path d="M77.8719 43.7441C77.8209 43.7565 77.7693 43.7683 77.7178 43.779C77.7693 43.7683 77.8209 43.7565 77.8719 43.7441Z" fill="white"/>
<path d="M79.9066 42.5186C79.8759 42.5599 79.8443 42.5996 79.8115 42.6388C79.8443 42.5991 79.8765 42.5594 79.9066 42.5186Z" fill="white"/>
<path d="M78.4746 37.6924C78.4977 37.7058 78.5208 37.7192 78.5439 37.7326C78.5208 37.7192 78.4977 37.7058 78.4746 37.6924Z" fill="white"/>
<path d="M79.2119 38.2217C79.228 38.2362 79.2441 38.2507 79.2602 38.2652C79.2447 38.2507 79.228 38.2362 79.2119 38.2217Z" fill="white"/>
<path d="M76.9597 37.1605C76.4394 37.0752 75.9058 37.0795 75.3936 37.1831C75.9058 37.0795 76.4389 37.0752 76.9597 37.1605Z" fill="white"/>
<path d="M75.3929 37.1836C75.2656 37.2094 75.1395 37.2405 75.0149 37.2786C74.034 37.5798 73.3742 38.3014 72.994 39.2378C72.6273 40.1413 72.5119 41.2565 72.8926 42.1746C72.9328 42.2712 72.9946 42.3432 73.066 42.3936C73.4397 42.96 74.0506 43.3998 74.6858 43.6199C74.9065 43.6961 75.1459 43.7584 75.3977 43.8046C75.395 42.9939 75.3897 42.1837 75.3891 41.3735C75.3886 39.9776 75.4009 38.5801 75.3929 37.1836Z" fill="white"/>
<path d="M79.3252 38.3271C79.3397 38.3411 79.3542 38.3551 79.3687 38.369C79.3542 38.3551 79.3397 38.3416 79.3252 38.3271Z" fill="white"/>
<path d="M79.4365 38.4404C79.4483 38.4528 79.4601 38.4646 79.4714 38.4769C79.4601 38.4646 79.4483 38.4522 79.4365 38.4404Z" fill="white"/>
<path d="M67.2413 43.7803C67.1817 43.7813 67.1221 43.7813 67.0625 43.7803C67.1221 43.7813 67.1817 43.7813 67.2413 43.7803Z" fill="white"/>
<path d="M67.7863 43.7354C67.7358 43.7429 67.6848 43.7493 67.6338 43.7552C67.6848 43.7493 67.7358 43.7429 67.7863 43.7354Z" fill="white"/>
<path d="M67.9806 43.7021C67.9264 43.7129 67.8721 43.722 67.8174 43.7306C67.8721 43.722 67.9264 43.7129 67.9806 43.7021Z" fill="white"/>
<path d="M67.6094 43.7578C67.4881 43.7707 67.3657 43.7782 67.2422 43.7809C67.3657 43.7782 67.4881 43.7707 67.6094 43.7578Z" fill="white"/>
<path d="M68.169 43.6611C68.11 43.6756 68.0504 43.6891 67.9902 43.7009C68.0504 43.6885 68.11 43.6756 68.169 43.6611Z" fill="white"/>
<path d="M68.6794 43.4941C68.6321 43.5135 68.5849 43.5317 68.5371 43.5489C68.5849 43.5317 68.6321 43.5135 68.6794 43.4941Z" fill="white"/>
<path d="M68.4991 43.5625C68.4561 43.5775 68.4126 43.5915 68.3691 43.6049C68.4126 43.5915 68.4561 43.577 68.4991 43.5625Z" fill="white"/>
<path d="M68.3326 43.6152C68.2789 43.6313 68.2247 43.6458 68.1699 43.6598C68.2247 43.6464 68.2789 43.6313 68.3326 43.6152Z" fill="white"/>
<path d="M68.8542 43.418C68.8022 43.4427 68.749 43.4663 68.6953 43.4883C68.749 43.4663 68.8022 43.4427 68.8542 43.418Z" fill="white"/>
<path d="M68.0345 37.1202C67.9395 37.0901 67.8428 37.0649 67.7451 37.0439C67.8428 37.0649 67.9395 37.0901 68.0345 37.1202Z" fill="white"/>
<path d="M68.2197 37.1855C68.2659 37.2033 68.3115 37.2221 68.3566 37.2419C68.3115 37.2221 68.2659 37.2033 68.2197 37.1855Z" fill="white"/>
<path d="M67.0635 41.6486C67.0882 41.5751 67.1113 41.5021 67.1333 41.4307C67.1107 41.5021 67.0876 41.5751 67.0635 41.6486Z" fill="white"/>
<path d="M67.3351 40.7109C67.2927 40.8838 67.2476 41.0551 67.1972 41.2221C67.187 41.2559 67.1768 41.2902 67.166 41.3251C67.1768 41.2902 67.187 41.2559 67.1972 41.2221C67.2482 41.0551 67.2927 40.8838 67.3351 40.7109Z" fill="white"/>
<path d="M66.8572 43.7724C66.6709 43.7606 66.4841 43.7375 66.2988 43.7031C66.4841 43.7375 66.6709 43.7606 66.8572 43.7724Z" fill="white"/>
<path d="M66.1019 43.6629C65.9773 43.6344 65.8533 43.6012 65.7314 43.5625C65.8533 43.6006 65.9773 43.6344 66.1019 43.6629Z" fill="white"/>
<path d="M68.0742 37.1328C68.1091 37.1446 68.144 37.1564 68.1789 37.1693C68.1446 37.157 68.1097 37.1446 68.0742 37.1328Z" fill="white"/>
<path d="M66.2827 43.7001C66.2231 43.6889 66.1636 43.6765 66.1045 43.6631C66.1636 43.677 66.2231 43.6894 66.2827 43.7001Z" fill="white"/>
<path d="M70.0799 42.3799C70.0562 42.4148 70.0315 42.4486 70.0068 42.4824C70.0321 42.4491 70.0562 42.4148 70.0799 42.3799Z" fill="white"/>
<path d="M69.0038 43.3418C68.9619 43.3643 68.9189 43.3858 68.876 43.4068C68.9189 43.3864 68.9613 43.3643 69.0038 43.3418Z" fill="white"/>
<path d="M70.1767 42.2275C70.1558 42.2624 70.1343 42.2973 70.1123 42.3312C70.1343 42.2973 70.1558 42.2624 70.1767 42.2275Z" fill="white"/>
<path d="M70.2813 42.0371C70.2572 42.086 70.2314 42.1332 70.2051 42.1799C70.2314 42.1332 70.2572 42.086 70.2813 42.0371Z" fill="white"/>
<path d="M70.432 41.6826C70.417 41.7245 70.4014 41.7653 70.3848 41.8061C70.4009 41.7658 70.417 41.7245 70.432 41.6826Z" fill="white"/>
<path d="M70.5576 41.2451C70.5436 41.3101 70.5269 41.3734 70.5098 41.4363C70.5275 41.374 70.5436 41.3106 70.5576 41.2451Z" fill="white"/>
<path d="M70.4934 41.4932C70.4805 41.5361 70.4676 41.5791 70.4531 41.6209C70.4676 41.5796 70.481 41.5367 70.4934 41.4932Z" fill="white"/>
<path d="M70.3642 41.8584C70.3406 41.9148 70.3154 41.9695 70.2891 42.0232C70.3154 41.9695 70.3406 41.9142 70.3642 41.8584Z" fill="white"/>
<path d="M69.4658 43.0391C69.4218 43.074 69.3767 43.1078 69.3311 43.14C69.3767 43.1078 69.4218 43.074 69.4658 43.0391Z" fill="white"/>
<path d="M69.9785 42.5205C69.9436 42.5656 69.9081 42.6096 69.8711 42.6526C69.9081 42.6096 69.9441 42.5656 69.9785 42.5205Z" fill="white"/>
<path d="M69.1519 43.2568C69.1164 43.2783 69.0805 43.2993 69.0439 43.3197C69.0805 43.2993 69.1164 43.2783 69.1519 43.2568Z" fill="white"/>
<path d="M69.3132 43.1533C69.2735 43.1807 69.2332 43.207 69.1924 43.2328C69.2332 43.207 69.2735 43.1807 69.3132 43.1533Z" fill="white"/>
<path d="M69.5939 42.9316C69.5617 42.9601 69.5284 42.988 69.4951 43.0149C69.5289 42.988 69.5617 42.9606 69.5939 42.9316Z" fill="white"/>
<path d="M69.8562 42.6699C69.8239 42.7064 69.7907 42.7424 69.7568 42.7773C69.7907 42.7424 69.8239 42.7064 69.8562 42.6699Z" fill="white"/>
<path d="M69.7207 42.8135C69.6922 42.8414 69.6638 42.8688 69.6348 42.8956C69.6638 42.8693 69.6922 42.8419 69.7207 42.8135Z" fill="white"/>
<path d="M67.0393 43.7804C66.983 43.7793 66.9261 43.7767 66.8691 43.7734C66.9261 43.7767 66.983 43.7793 67.0393 43.7804Z" fill="white"/>
<path d="M66.7383 36.9741C66.8457 36.9671 66.953 36.9649 67.0599 36.9665C66.9536 36.9644 66.8462 36.9671 66.7383 36.9741Z" fill="white"/>
<path d="M66.0557 37.0734C66.1104 37.0611 66.1652 37.0498 66.2205 37.0391C66.1657 37.0493 66.1104 37.0605 66.0557 37.0734Z" fill="white"/>
<path d="M66.5693 36.9875C66.6198 36.9821 66.6703 36.9778 66.7213 36.9746C66.6703 36.9778 66.6198 36.9821 66.5693 36.9875Z" fill="white"/>
<path d="M66.2266 37.0381C66.3366 37.0177 66.4478 37.0011 66.5584 36.9893C66.4478 37.0011 66.3372 37.0177 66.2266 37.0381Z" fill="white"/>
<path d="M67.248 36.9746C67.3511 36.9816 67.4531 36.9929 67.5546 37.009C67.4531 36.9934 67.3511 36.9816 67.248 36.9746Z" fill="white"/>
<path d="M65.7236 37.1624C65.8332 37.1285 65.9443 37.0985 66.056 37.0732C65.9443 37.0985 65.8337 37.1285 65.7236 37.1624Z" fill="white"/>
<path d="M67.5908 37.0146C67.63 37.0211 67.6687 37.0286 67.7073 37.0361C67.6687 37.0286 67.6295 37.0211 67.5908 37.0146Z" fill="white"/>
<path d="M67.085 36.9668C67.1295 36.9679 67.1741 36.97 67.2181 36.9727C67.1741 36.97 67.1295 36.9679 67.085 36.9668Z" fill="white"/>
<path d="M65.735 40.8887C65.7265 40.7964 65.7232 40.7035 65.7254 40.6106C65.7608 40.5553 65.7952 40.4984 65.8274 40.4409C65.7979 40.4935 65.7667 40.5445 65.735 40.595C65.7345 39.4509 65.7313 38.3062 65.7238 37.1621C63.9703 37.7049 62.5164 39.3102 63.1655 41.2216C63.5638 42.3947 64.5759 43.1995 65.7318 43.5624C65.734 42.6712 65.7356 41.7799 65.735 40.8887ZM65.1794 41.2345C65.1949 41.2216 65.211 41.2098 65.2261 41.1969C65.254 41.3483 65.2932 41.4948 65.3426 41.6334C65.2867 41.5963 65.2325 41.5571 65.182 41.5147C65.174 41.4218 65.1729 41.3279 65.1794 41.2345Z" fill="white"/>
<path d="M79.5721 38.5891C79.5394 38.551 79.5061 38.514 79.4722 38.4774C79.461 38.4651 79.4492 38.4533 79.4373 38.4409C79.4143 38.4168 79.3917 38.3926 79.3681 38.3695C79.3541 38.3556 79.3391 38.3416 79.3246 38.3276C79.3031 38.3067 79.2816 38.2863 79.2602 38.2659C79.2441 38.2514 79.228 38.2369 79.2119 38.2224C79.1909 38.2036 79.17 38.1848 79.1485 38.1666C79.1313 38.1515 79.1136 38.1376 79.0964 38.1226C79.0755 38.1054 79.0545 38.0882 79.0331 38.071C79.0148 38.0565 78.9966 38.042 78.9778 38.0275C78.9568 38.0114 78.9359 37.9953 78.9144 37.9797C78.8951 37.9652 78.8758 37.9513 78.8559 37.9373C78.835 37.9223 78.814 37.9078 78.7925 37.8933C78.7721 37.8793 78.7517 37.8654 78.7313 37.852C78.7104 37.838 78.6895 37.8246 78.6685 37.8112C78.647 37.7972 78.6256 37.7838 78.6041 37.7704C78.5837 37.758 78.5633 37.7457 78.5429 37.7338C78.5198 37.7204 78.4967 37.7065 78.4736 37.6936C78.4548 37.6828 78.4355 37.6726 78.4167 37.6619C78.3915 37.6479 78.3662 37.634 78.341 37.6211C78.326 37.613 78.3104 37.6055 78.2948 37.598C78.144 37.5212 77.9883 37.453 77.8293 37.3935C77.8208 37.3902 77.8122 37.387 77.8041 37.3838C77.7681 37.3704 77.7322 37.358 77.6962 37.3457C77.6855 37.3419 77.6747 37.3382 77.664 37.3344C77.628 37.3226 77.592 37.3113 77.5561 37.3006C77.5448 37.2974 77.5341 37.2936 77.5228 37.2904C77.4863 37.2796 77.4498 37.2694 77.4133 37.2598C77.4025 37.2571 77.3918 37.2539 77.381 37.2512C77.3435 37.2415 77.3059 37.2324 77.2683 37.2233C77.2586 37.2211 77.249 37.219 77.2393 37.2163C77.2001 37.2072 77.1615 37.1991 77.1223 37.191C77.1142 37.1894 77.1067 37.1878 77.0986 37.1862C77.0573 37.1782 77.016 37.1706 76.9746 37.1637C76.9698 37.1626 76.9649 37.1621 76.9601 37.1615C76.4399 37.0761 75.9062 37.0804 75.394 37.1841C75.4015 38.5805 75.3892 39.9781 75.3908 41.374C75.3918 42.1842 75.3967 42.9949 75.3994 43.8051C75.4504 43.8147 75.5024 43.8233 75.5545 43.8314C75.5615 43.8324 75.5679 43.8335 75.5749 43.8346C75.6254 43.8421 75.6759 43.8491 75.7269 43.8555C75.7349 43.8566 75.743 43.8577 75.751 43.8587C75.8026 43.8652 75.8541 43.8706 75.9062 43.8754C75.9121 43.8759 75.918 43.8765 75.9239 43.877C76.0324 43.8872 76.1424 43.8942 76.2536 43.8985C76.2605 43.8985 76.2675 43.899 76.2745 43.8995C76.3271 43.9017 76.3803 43.9028 76.4334 43.9033C76.442 43.9033 76.4506 43.9033 76.4592 43.9033C76.5129 43.9038 76.566 43.9033 76.6197 43.9022C76.6262 43.9022 76.6326 43.9017 76.6391 43.9017C76.6949 43.9006 76.7513 43.8985 76.8071 43.8958H76.8076C76.8635 43.8931 76.9188 43.8893 76.9746 43.885C76.9821 43.8845 76.9896 43.884 76.9972 43.8834C77.0503 43.8791 77.1035 43.8743 77.1566 43.8684C77.1657 43.8673 77.1749 43.8663 77.1835 43.8652C77.2366 43.8593 77.2898 43.8528 77.3429 43.8453C77.3499 43.8442 77.3569 43.8432 77.3633 43.8421C77.4186 43.834 77.4734 43.8255 77.5281 43.8163C77.5287 43.8163 77.5292 43.8163 77.5298 43.8163C77.5845 43.8067 77.6388 43.7965 77.693 43.7852C77.7005 43.7836 77.708 43.782 77.7161 43.7804C77.7676 43.7696 77.8191 43.7578 77.8702 43.7455C77.8793 43.7433 77.8884 43.7412 77.8975 43.739C77.9485 43.7261 77.9995 43.7132 78.0506 43.6987C78.0575 43.6966 78.0645 43.695 78.0709 43.6928C78.1236 43.6778 78.1756 43.6622 78.2277 43.6456C78.2283 43.6456 78.2288 43.6451 78.2293 43.6451C78.2809 43.6284 78.3319 43.6107 78.3824 43.5924C78.3899 43.5898 78.3974 43.5871 78.4049 43.5844C78.4532 43.5667 78.501 43.5479 78.5482 43.5285C78.5568 43.5248 78.5654 43.5216 78.574 43.5178C78.6213 43.4979 78.668 43.4775 78.7142 43.4561C78.7206 43.4528 78.7276 43.4496 78.734 43.4464C78.7818 43.4239 78.829 43.4008 78.8758 43.3766C78.8763 43.3766 78.8768 43.3761 78.8774 43.3761C78.9241 43.3519 78.9692 43.3261 79.0143 43.3004C79.0207 43.2966 79.0277 43.2929 79.0347 43.2886C79.0776 43.2633 79.1195 43.237 79.1608 43.2102C79.1684 43.2053 79.1764 43.2 79.1839 43.1951C79.2253 43.1678 79.2661 43.1398 79.3058 43.1108C79.3117 43.1066 79.3176 43.1023 79.3235 43.098C79.3649 43.0674 79.4051 43.0362 79.4449 43.0035C79.4454 43.0029 79.4454 43.0029 79.4459 43.0024C79.4851 42.9702 79.5238 42.9364 79.5614 42.902C79.5667 42.8966 79.5726 42.8918 79.578 42.887C79.6134 42.8537 79.6483 42.8198 79.6816 42.785C79.6881 42.7785 79.6945 42.7721 79.7004 42.7651C79.7337 42.7297 79.7665 42.6937 79.7981 42.6566C79.803 42.6513 79.8073 42.6454 79.8121 42.6395C79.8449 42.6003 79.8765 42.5605 79.9071 42.5192L79.9077 42.5187C79.9383 42.4773 79.9667 42.4349 79.9946 42.3919C79.9989 42.3855 80.0032 42.3791 80.007 42.3732C80.0333 42.3318 80.0585 42.2889 80.0827 42.2459C80.087 42.2379 80.0918 42.2298 80.0961 42.2217C80.1197 42.1777 80.1423 42.1332 80.1638 42.0875C80.167 42.0805 80.1702 42.0736 80.1734 42.0666C80.1954 42.0183 80.2164 41.9694 80.2357 41.9189C80.4977 41.2323 80.4773 40.4656 80.2405 39.7671C80.094 39.3359 79.8663 38.9322 79.5721 38.5891ZM76.9558 41.8883C76.9252 41.8937 76.8946 41.898 76.864 41.9012C76.8919 41.8089 76.9225 41.7176 76.9542 41.6269C76.9789 41.6167 77.0031 41.6038 77.0251 41.5882C77.0004 41.6875 76.9773 41.7879 76.9558 41.8883ZM78.3179 39.6404C78.2675 39.5647 78.2127 39.4916 78.1542 39.4213C78.1687 39.4261 78.1832 39.4315 78.1977 39.4363C78.2605 39.4879 78.3185 39.5448 78.3738 39.6044C78.3759 39.6135 78.3775 39.6232 78.3791 39.6323C78.3587 39.6328 78.3378 39.635 78.3179 39.6404Z" fill="#24193A"/>
<path d="M68.3567 37.242C68.3116 37.2221 68.2659 37.2033 68.2198 37.1856C68.2063 37.1802 68.1924 37.1754 68.1789 37.1706C68.1441 37.1577 68.1097 37.1453 68.0743 37.1341C68.0608 37.1298 68.0474 37.1249 68.034 37.1206C67.939 37.0906 67.8423 37.0653 67.7446 37.0444C67.7317 37.0417 67.7194 37.039 67.7065 37.0363C67.6678 37.0283 67.6292 37.0213 67.59 37.0149C67.5782 37.0127 67.5664 37.0106 67.554 37.009C67.4531 36.9934 67.3505 36.9816 67.2474 36.9746C67.2372 36.9741 67.2276 36.9735 67.2174 36.973C67.1728 36.9703 67.1288 36.9682 67.0842 36.9671C67.0756 36.9671 67.0676 36.9665 67.059 36.9665C66.9521 36.9644 66.8448 36.9671 66.7374 36.9741C66.7315 36.9746 66.7261 36.9746 66.7202 36.9751C66.6697 36.9784 66.6193 36.9826 66.5683 36.988C66.5645 36.9886 66.5607 36.9886 66.557 36.9891C66.4464 37.0009 66.3353 37.0175 66.2252 37.0379C66.2236 37.0385 66.222 37.0385 66.2198 37.039C66.1645 37.0492 66.1098 37.061 66.055 37.0734C65.9433 37.0986 65.8322 37.1287 65.7227 37.1625C65.7296 38.3066 65.7334 39.4508 65.7339 40.5954C65.7656 40.5449 65.7967 40.4939 65.8263 40.4413C65.7908 40.6244 65.7645 40.8102 65.7463 40.9959C65.7414 40.9605 65.7372 40.9245 65.7339 40.8891C65.7339 41.7803 65.7329 42.6716 65.7307 43.5628C65.8526 43.6009 65.9766 43.6348 66.1012 43.6632C66.1022 43.6632 66.1033 43.6638 66.1039 43.6638C66.1629 43.6772 66.2225 43.6895 66.2821 43.7008C66.2875 43.7019 66.2928 43.703 66.2977 43.7035C66.4829 43.7373 66.6692 43.7609 66.856 43.7728C66.8603 43.7728 66.8646 43.7733 66.8684 43.7733C66.9253 43.7765 66.9817 43.7792 67.0386 43.7803C67.0461 43.7803 67.0536 43.7808 67.0611 43.7808C67.1207 43.7819 67.1803 43.7819 67.2399 43.7808C67.2405 43.7808 67.241 43.7808 67.2415 43.7808C67.3645 43.7781 67.4874 43.7706 67.6088 43.7577C67.6168 43.7566 67.6254 43.7556 67.6335 43.755C67.6845 43.7497 67.7355 43.7427 67.7859 43.7352C67.7961 43.7336 67.8063 43.732 67.8171 43.7303C67.8718 43.7218 67.9261 43.7126 67.9803 43.7019C67.9835 43.7014 67.9867 43.7008 67.99 43.7003C68.0501 43.6885 68.1097 43.675 68.1687 43.6605C68.1693 43.6605 68.1698 43.66 68.1704 43.66C68.2251 43.6466 68.2793 43.6316 68.333 43.6154C68.3448 43.6117 68.3567 43.6079 68.369 43.6047C68.4125 43.5913 68.456 43.5773 68.4989 43.5623C68.5118 43.558 68.5242 43.5537 68.5371 43.5489C68.5848 43.5317 68.6326 43.5134 68.6793 43.4941C68.6847 43.492 68.6901 43.4898 68.696 43.4877C68.7497 43.4657 68.8023 43.442 68.8549 43.4173C68.8619 43.4141 68.8689 43.4104 68.8764 43.4066C68.9193 43.3857 68.9617 43.3642 69.0042 43.3416C69.0181 43.3341 69.0315 43.3266 69.045 43.3191C69.0815 43.2987 69.1174 43.2777 69.1529 43.2563C69.1663 43.2482 69.1797 43.2402 69.1931 43.2316C69.2339 43.2058 69.2742 43.1795 69.3139 43.1521C69.3204 43.1478 69.3263 43.1435 69.3327 43.1392C69.3784 43.107 69.4235 43.0732 69.4675 43.0383C69.4772 43.0302 69.4868 43.0222 69.4965 43.0141C69.5298 42.9873 69.5631 42.9594 69.5953 42.9309C69.6087 42.9191 69.6216 42.9073 69.635 42.8949C69.664 42.8681 69.693 42.8407 69.7209 42.8128C69.7333 42.8004 69.7456 42.7886 69.758 42.7763C69.7918 42.7414 69.8251 42.7054 69.8573 42.6689C69.8621 42.663 69.8675 42.6576 69.8723 42.6523C69.9094 42.6098 69.9448 42.5653 69.9797 42.5202C69.9894 42.5078 69.9985 42.4949 70.0076 42.4821C70.0323 42.4488 70.057 42.4144 70.0806 42.3795C70.0919 42.3634 70.1026 42.3468 70.1134 42.3301C70.1354 42.2963 70.1569 42.2614 70.1778 42.2265C70.1875 42.2104 70.1971 42.1948 70.2063 42.1782C70.2326 42.1315 70.2583 42.0842 70.2825 42.0354C70.2852 42.0305 70.2879 42.0257 70.29 42.0209C70.3163 41.9672 70.3416 41.9124 70.3652 41.856C70.3722 41.8394 70.3791 41.8217 70.3856 41.805C70.4022 41.7642 70.4178 41.7234 70.4328 41.6816C70.4403 41.6611 70.4473 41.6407 70.4543 41.6198C70.4683 41.5779 70.4817 41.535 70.4946 41.492C70.5005 41.4727 70.5064 41.4539 70.5118 41.434C70.5289 41.3718 70.545 41.3084 70.5595 41.2429C70.7228 40.4945 70.5821 39.7251 70.2379 39.0486C69.8342 38.2605 69.1534 37.5969 68.3567 37.242ZM67.0638 41.6493C67.0885 41.5758 67.1116 41.5028 67.1336 41.4314C67.1449 41.3959 67.1556 41.3605 67.1664 41.3256C67.1771 41.2907 67.1873 41.2563 67.1975 41.2225C67.248 41.055 67.2931 40.8843 67.3355 40.7114C67.3779 40.5385 67.4182 40.364 67.4595 40.1895C67.4504 40.291 67.4391 40.3919 67.4246 40.4913C67.4176 40.5396 67.4101 40.589 67.4015 40.6384C67.343 40.9841 67.248 41.3481 67.0638 41.6493ZM68.2938 41.3417C68.2708 41.4206 68.2412 41.4942 68.2036 41.5602C68.238 41.4743 68.2697 41.383 68.2992 41.2891C68.2976 41.3068 68.2955 41.324 68.2938 41.3417Z" fill="#24193A"/>
<path d="M68.629 49.3655C69.6856 49.6463 71.0622 49.3902 71.482 48.3035C71.5878 48.4264 71.7172 48.5354 71.8756 48.6245C72.3926 48.9155 73.0374 48.9139 73.6146 48.9C74.1439 48.8871 74.6132 48.7287 74.9122 48.267C75.1012 47.9754 75.1769 47.6404 75.2226 47.3022C75.2253 47.3194 75.2279 47.3371 75.2312 47.3542C75.2993 47.7553 75.4271 48.1091 75.6413 48.4549C75.9957 49.0267 76.487 49.3928 77.1833 49.2361C77.8797 49.0793 78.532 48.6025 78.8976 47.9926C79.2214 47.4525 79.3277 46.8174 79.3164 46.194C78.0284 45.9621 76.495 46.1613 75.454 46.1661C72.5639 46.179 69.6308 45.7334 66.8271 46.4684C66.8545 47.6989 67.3173 49.0165 68.629 49.3655Z" fill="white"/>
<path d="M72.1541 50.9695C72.2884 51.0081 72.4231 51.0505 72.5579 51.0956C72.5933 51.0414 72.647 50.9958 72.7216 50.9679C74.087 50.4616 75.6203 50.0798 77.0141 50.6978C77.0275 50.7037 77.0404 50.7102 77.0538 50.7161C77.0581 50.7139 77.0624 50.7118 77.0667 50.7096C78.5292 49.9655 80.075 49.1789 81.7034 48.8589C81.7082 48.5336 81.6588 48.2061 81.56 47.899C81.2207 46.8413 80.3466 46.3801 79.3163 46.1943C79.3276 46.8177 79.2213 47.4523 78.8975 47.9929C78.5319 48.6034 77.8801 49.0801 77.1832 49.2364C76.4869 49.3932 75.9956 49.027 75.6413 48.4552C75.4271 48.1094 75.2993 47.7556 75.2311 47.3546C75.2284 47.3374 75.2252 47.3197 75.2225 47.3025C75.1769 47.6413 75.1012 47.9758 74.9122 48.2673C74.6131 48.729 74.1439 48.8869 73.6145 48.9003C73.0373 48.9142 72.3925 48.9159 71.8755 48.6249C71.7171 48.5357 71.5877 48.4267 71.482 48.3038C71.0621 49.3905 69.6855 49.6466 68.6289 49.3658C67.3173 49.0168 66.8545 47.6998 66.8271 46.4692C66.3503 46.5943 65.8768 46.7527 65.4081 46.954C64.8594 47.1903 64.3235 47.5135 63.974 48.0107C63.5977 48.5459 63.5789 49.2154 63.8844 49.7867C64.155 50.2925 64.6188 50.6881 65.101 51.0022C65.6728 50.7665 66.2816 50.62 66.8947 50.5362C68.6327 50.2989 70.4731 50.4831 72.1541 50.9695Z" fill="#24193A"/>
<path d="M67.6458 51.3457C68.893 50.6821 70.7748 50.1339 71.7568 51.5164C72.0752 51.9652 72.1471 52.478 72.0242 52.9644C72.0344 52.9655 72.0451 52.966 72.0553 52.9671C72.0784 52.9687 72.102 52.9703 72.1251 52.9719C72.1997 52.9086 72.2728 52.8436 72.3436 52.7765C72.6416 52.4935 73.0475 52.7244 73.1178 53.0272C73.1801 53.0294 73.2429 53.0315 73.3052 53.0331C73.3847 52.9816 73.4641 52.9295 73.5436 52.878C74.6952 52.1242 75.8259 51.3424 77.0544 50.7159C77.0409 50.71 77.028 50.7035 77.0146 50.6976C75.6208 50.0797 74.0869 50.4614 72.7221 50.9677C72.6475 50.9951 72.5938 51.0407 72.5584 51.0955C72.4236 51.0504 72.2889 51.008 72.1547 50.9693C70.4736 50.4829 68.6332 50.2982 66.8963 50.536C66.2832 50.6198 65.6743 50.7658 65.1025 51.002C65.1825 51.0541 65.2631 51.1041 65.3436 51.1518C65.8 51.4224 66.2891 51.6447 66.7868 51.838C67.0686 51.6656 67.3548 51.5008 67.6458 51.3457Z" fill="#FF7761"/>
<path d="M81.3185 20.8945C80.5083 20.7082 79.6525 20.6937 78.8364 20.8585C78.7408 20.8778 78.6458 20.8988 78.5519 20.9235C78.1009 21.0394 77.6697 21.2204 77.2596 21.4421C76.8397 21.6692 76.4413 21.9398 76.0671 22.2292C75.3353 22.7946 74.6878 23.4512 74.0441 24.1116C73.7832 24.3789 73.5228 24.6474 73.2581 24.9105C72.8581 25.3078 72.4468 25.6927 72.0076 26.0471C71.9464 26.0965 71.8852 26.1464 71.8224 26.1947C71.1121 26.7413 70.3578 27.1815 69.4354 27.1509C68.5946 27.123 67.7925 26.7686 67.0645 26.374C66.3466 25.9848 65.668 25.53 64.9792 25.0935C64.8874 25.0355 64.7955 24.9776 64.7032 24.9201C64.0294 24.5013 63.3116 24.0659 62.5358 23.8673C61.1414 23.5102 59.4674 23.8989 58.3877 24.8525C57.8567 25.3217 57.5061 25.9606 57.4465 26.6699C57.3762 27.5026 57.723 28.2591 58.2712 28.8668C59.1469 29.8375 60.2497 30.1935 60.7345 31.2131C60.8354 31.168 60.9439 31.1406 61.0545 31.1357C62.1288 31.0864 63.1999 30.9811 64.2764 30.9747C64.7279 30.972 65.0624 31.3457 65.0817 31.78C65.101 32.2165 64.6973 32.5827 64.2764 32.5854C63.2004 32.5918 62.1288 32.697 61.0545 32.7464C60.9949 32.7491 60.9369 32.7437 60.8816 32.7325C60.8247 32.8162 60.749 32.8876 60.6743 32.9574C60.2609 33.3413 59.8432 33.7354 59.564 34.2256C59.2849 34.7158 59.1608 35.3257 59.3691 35.8497C59.4325 36.0086 59.8427 36.0655 60.3323 36.072C61.0582 36.0811 61.9586 35.9791 62.1648 35.9313C63.1441 35.7036 63.9832 35.6231 65.0264 35.6049C67.2862 35.5651 69.5449 35.5007 71.8052 35.4749C73.7719 35.4529 75.7401 35.4604 77.7057 35.5404C78.663 35.5791 79.6187 35.6199 80.577 35.6269C80.6694 35.6274 80.7666 35.6355 80.8664 35.6457C81.4387 35.7047 82.0927 35.8422 82.3354 35.1603C82.4927 34.7184 82.337 34.2245 82.1093 33.8143C81.9982 33.6146 81.8699 33.424 81.726 33.2457C81.5907 33.0777 81.4387 32.915 81.2991 32.7459C81.261 32.7523 81.2229 32.7572 81.1848 32.7599C80.8643 32.7808 80.519 32.6992 80.205 32.6541C80.0203 32.6278 79.8361 32.5999 79.6514 32.5741C79.6412 32.5725 79.5274 32.5585 79.5424 32.5601C79.4689 32.5515 79.3953 32.5429 79.3212 32.5376C78.7119 32.4909 78.095 32.5306 77.4845 32.5322C77.033 32.5338 76.6985 32.1623 76.6792 31.7269C76.6598 31.2909 77.0631 30.9226 77.4845 30.9215C78.3301 30.9188 79.1564 30.8931 79.995 31.0096C80.14 31.0294 80.2844 31.0509 80.4288 31.0719C80.4874 31.0804 80.5453 31.089 80.6039 31.0971C80.6286 31.1008 80.7059 31.111 80.7472 31.1164C80.8025 31.1234 80.8578 31.1304 80.9131 31.1363C80.933 31.1288 80.9534 31.1229 80.9738 31.1164C81.0216 30.9994 81.0785 30.8856 81.1408 30.7766C81.9187 29.408 82.9705 28.2999 83.6749 26.963C84.0234 26.3015 84.287 25.5843 84.3895 24.7515C84.4078 24.6039 84.4164 24.4568 84.418 24.3102C84.4212 23.8775 84.3492 23.4528 84.1914 23.0592C84.0706 22.758 83.9004 22.474 83.6744 22.2185C83.0698 21.5323 82.1995 21.0974 81.3185 20.8945Z" fill="#24193A"/>
<path d="M81.0424 62.8713C80.6413 63.3024 79.9976 62.656 80.3971 62.2259C80.9731 61.6058 81.9358 61.1226 82.2123 60.2797C82.2993 60.0145 82.5452 59.9302 82.7583 59.9753C82.7427 59.6322 82.717 59.3025 82.6837 58.9933C82.6407 58.5976 82.5591 58.1729 82.4738 57.7348C82.3519 58.1831 82.1377 58.6115 81.8934 59.0035C81.4644 59.6912 80.9028 60.3747 80.1979 60.7946C79.6916 61.0963 79.2331 60.3071 79.7372 60.0064C80.2865 59.6794 80.7246 59.1377 81.065 58.6056C81.371 58.1278 81.7543 57.4229 81.6749 56.8709C81.6394 56.6261 81.7312 56.3818 81.9938 56.3093C82.0673 56.2889 82.1522 56.2916 82.2327 56.3131C82.171 55.788 82.157 55.2694 82.2483 54.784C81.0789 55.9244 79.8618 57.0073 78.4793 57.8953C77.9832 58.2142 77.5257 57.4239 78.0186 57.1072C79.5643 56.1139 80.9109 54.863 82.1935 53.5556C82.6542 53.0864 83.1309 52.6327 83.5449 52.12C83.8745 51.7114 84.3303 51.0956 84.2514 50.535C84.2171 50.2902 84.3073 50.0459 84.5703 49.9735C84.6766 49.9439 84.8066 49.9622 84.915 50.0169C84.8495 49.8011 84.7341 49.5955 84.5596 49.407C83.9798 48.7815 83.1137 48.6634 82.3063 48.7606C82.1038 48.7848 81.9025 48.8175 81.7022 48.8567C80.0738 49.1767 78.5281 49.9627 77.0656 50.7074C77.0613 50.7095 77.057 50.7117 77.0527 50.7138C75.8243 51.3404 74.6936 52.1221 73.542 52.8759C73.4631 52.9274 73.3836 52.9795 73.3036 53.0311C73.2445 53.0697 73.1849 53.1078 73.1254 53.146C73.1184 53.2399 73.0765 53.3349 72.9868 53.4198C72.4564 53.9228 71.8228 54.3137 71.2307 54.7373C70.7775 55.0616 70.0806 55.5228 69.883 56.0103C69.7902 56.2395 69.5824 56.4006 69.3215 56.3292C69.1035 56.2691 68.9102 55.9963 69.0025 55.7676C69.2909 55.0557 69.9201 54.5741 70.5209 54.1301C71.0014 53.7747 71.52 53.4574 71.9877 53.0815C72.0006 53.0418 72.0118 53.0026 72.022 52.9623C72.145 52.4759 72.0736 51.9632 71.7547 51.5143C70.7727 50.1318 68.8909 50.68 67.6437 51.3436C67.3527 51.4982 67.0665 51.6631 66.7841 51.8349C65.2572 52.7632 63.8505 53.918 62.5228 55.0965C61.0474 56.4065 59.6112 57.7804 58.2217 59.1812C56.7742 60.6405 55.556 62.3328 54.2739 63.9349C54.2578 63.9547 54.2417 63.9751 54.2256 63.9955H82.4228C82.6434 63.0855 82.747 62.1019 82.7696 61.1591C82.3159 61.8249 81.5976 62.2742 81.0424 62.8713Z" fill="#9FA9FF"/>
<path d="M73.1173 53.0274C73.0464 52.7246 72.641 52.4938 72.3431 52.7767C72.2722 52.8438 72.1992 52.9088 72.1245 52.9721C72.08 53.0097 72.0349 53.0468 71.9892 53.0838C71.5216 53.4596 71.003 53.7769 70.5224 54.1324C69.9217 54.5764 69.2924 55.058 69.0041 55.7699C68.9118 55.9986 69.105 56.2714 69.323 56.3315C69.584 56.4029 69.7917 56.2424 69.8846 56.0126C70.0822 55.5251 70.7791 55.0639 71.2322 54.7396C71.825 54.316 72.4585 53.9251 72.9884 53.422C73.0775 53.3372 73.1194 53.2422 73.1269 53.1482C73.1301 53.1074 73.1264 53.0666 73.1173 53.0274Z" fill="#24193A"/>
<path d="M84.571 49.9747C84.3079 50.0472 84.2177 50.291 84.2521 50.5363C84.331 51.0968 83.8752 51.7127 83.5455 52.1212C83.1316 52.6334 82.6548 53.0871 82.1941 53.5569C80.9115 54.8642 79.565 56.1152 78.0193 57.1084C77.5264 57.4247 77.9838 58.2155 78.4799 57.8966C79.8624 57.0086 81.0796 55.9262 82.2489 54.7853C82.4894 54.5507 82.7278 54.3139 82.9651 54.0755C83.953 53.0839 85.35 51.8415 85.1326 50.2936C85.1154 50.1701 85.0268 50.0751 84.9162 50.0187C84.8072 49.9634 84.6773 49.9457 84.571 49.9747Z" fill="#24193A"/>
<path d="M81.9937 56.3103C81.7317 56.3823 81.6399 56.6266 81.6748 56.8719C81.7543 57.4239 81.3709 58.1293 81.0649 58.6066C80.7245 59.1382 80.2864 59.6799 79.7372 60.0074C79.233 60.3075 79.6915 61.0973 80.1978 60.7956C80.9022 60.3757 81.4643 59.6922 81.8933 59.0045C82.1381 58.612 82.3524 58.1836 82.4737 57.7358C82.5709 57.3771 82.609 57.0056 82.5548 56.6298C82.5317 56.4687 82.3889 56.3565 82.2326 56.3146C82.1521 56.2932 82.0673 56.2905 81.9937 56.3103Z" fill="#24193A"/>
<path d="M82.2126 60.2798C81.9361 61.1227 80.9734 61.6059 80.3973 62.2261C79.9979 62.6561 80.6416 63.3031 81.0427 62.8714C81.5978 62.2744 82.3162 61.825 82.7726 61.1619C82.9046 60.9697 83.0152 60.7593 83.0931 60.5225C83.1892 60.2299 82.9938 60.0248 82.7591 59.9754C82.5455 59.9303 82.2996 60.0146 82.2126 60.2798Z" fill="#24193A"/>
<path d="M56.3446 39.328C55.7573 39.3109 55.7578 40.2236 56.3446 40.2408C56.8971 40.2569 57.4748 40.193 58.0358 40.0496C59.042 39.7925 59.9934 39.277 60.6403 38.4964C60.7976 38.3069 60.8261 38.0368 60.6403 37.851C60.4787 37.6894 60.1528 37.6605 59.995 37.851C59.6342 38.2859 59.1708 38.6215 58.6576 38.862C58.4675 38.9511 58.2705 39.0274 58.0691 39.0907C57.5081 39.2668 56.9143 39.3447 56.3446 39.328Z" fill="#24193A"/>
<path d="M55.1636 41.7974C54.5762 41.799 54.5751 42.7117 55.1636 42.7101C55.7837 42.708 56.4119 42.5641 56.9955 42.3515C57.0518 42.3311 57.1077 42.3101 57.163 42.2886C57.8035 42.0379 58.4628 41.7083 58.9224 41.181C59.3068 40.7397 58.6636 40.0917 58.277 40.5357C58.0676 40.7762 57.8067 40.969 57.5254 41.1263C57.3074 41.2487 57.0771 41.3496 56.8484 41.4361C56.3131 41.6385 55.7397 41.7958 55.1636 41.7974Z" fill="#24193A"/>
<path d="M82.1003 39.2119C82.5744 39.4755 83.0716 39.6924 83.5865 39.8368C84.1164 39.9855 84.6661 40.058 85.2299 40.0258C85.814 39.9925 85.8178 39.0798 85.2299 39.1131C84.3848 39.1609 83.5993 38.9466 82.8557 38.5783C82.757 38.5295 82.6587 38.4779 82.561 38.4237C82.0472 38.1381 81.5865 38.9257 82.1003 39.2119Z" fill="#24193A"/>
<path d="M83.6996 40.8585C83.7104 41.1028 83.9004 41.3181 84.156 41.3149C84.2032 41.3143 84.2499 41.3143 84.2972 41.317C84.3213 41.3181 84.345 41.3208 84.3691 41.3229C84.3697 41.3229 84.3707 41.3229 84.3713 41.3229C84.375 41.3235 84.3793 41.3245 84.3847 41.3251C84.4846 41.3508 84.5817 41.3712 84.6795 41.4056C84.9049 41.4856 85.189 41.3154 85.241 41.0867C85.2996 40.8306 85.1637 40.611 84.9221 40.5251C84.6778 40.4381 84.4158 40.3978 84.1565 40.4016C84.0765 40.4027 83.9981 40.4268 83.9289 40.4671C83.7914 40.5476 83.6921 40.6931 83.6996 40.8585Z" fill="#24193A"/>
<path d="M80.7474 31.1161C80.7061 31.1108 80.6288 31.1006 80.6041 31.0968C80.5456 31.0882 80.4876 31.0796 80.4291 31.0716C80.2846 31.0506 80.1397 31.0292 79.9952 31.0093C79.1566 30.8928 78.3298 30.9186 77.4847 30.9212C77.0633 30.9223 76.6601 31.2906 76.6794 31.7266C76.6987 32.162 77.0332 32.5335 77.4847 32.5319C78.0952 32.5303 78.7121 32.4906 79.3214 32.5373C79.3955 32.5427 79.4691 32.5518 79.5426 32.5599C79.5276 32.5582 79.6414 32.5727 79.6516 32.5738C79.8363 32.5996 80.0205 32.6275 80.2052 32.6538C80.5192 32.6989 80.8645 32.7805 81.185 32.7596C81.2231 32.7569 81.2612 32.7521 81.2994 32.7456C81.6253 32.6903 81.9259 32.4922 82.0118 32.1497C82.1106 31.754 81.92 31.4061 81.5968 31.1918C81.411 31.0689 81.1823 31.0539 80.9751 31.1161C80.9547 31.122 80.9343 31.128 80.9144 31.136C80.858 31.1296 80.8027 31.1226 80.7474 31.1161Z" fill="#9FA9FF"/>
<path d="M60.2488 31.941C60.2649 32.305 60.5199 32.6583 60.8812 32.7324C60.9365 32.7437 60.994 32.7491 61.0541 32.7464C62.1285 32.697 63.1996 32.5918 64.276 32.5853C64.697 32.5826 65.1007 32.2165 65.0814 31.78C65.062 31.3456 64.7276 30.9719 64.276 30.9746C63.2001 30.9811 62.1285 31.0863 61.0541 31.1357C60.9441 31.1405 60.8351 31.1679 60.7341 31.213C60.4507 31.3397 60.2338 31.6098 60.2488 31.941Z" fill="#9FA9FF"/>
</g>
<path d="M37.853 100L37.673 98.788C37.541 98.824 37.385 98.836 37.217 98.836C36.665 98.836 36.461 98.584 36.461 98.116V95.38H37.817L37.637 94.204H36.461V92.152L35.033 92.368V94.204H34.217V95.38H35.033V98.356C35.033 99.676 35.801 100.096 36.941 100.096C37.361 100.096 37.625 100.048 37.853 100ZM43.8723 100V95.824C43.8723 94.744 43.2963 94.084 42.2163 94.084C41.4483 94.084 40.8483 94.492 40.3683 94.936V91.336L38.9283 91.564V100H40.3683V96.088C40.7883 95.644 41.2443 95.356 41.6883 95.356C42.2163 95.356 42.4323 95.704 42.4323 96.208V100H43.8723ZM47.619 95.08C48.315 95.08 48.675 95.584 48.771 96.484H46.455C46.563 95.548 47.043 95.08 47.619 95.08ZM50.163 99.412L49.995 98.284C49.359 98.728 48.747 99.004 48.003 99.004C47.115 99.004 46.503 98.512 46.443 97.384H50.163C50.163 97.3 50.175 97.156 50.175 97.036C50.175 95.392 49.395 94.084 47.655 94.084C46.143 94.084 45.015 95.224 45.015 97.108C45.015 99.196 46.227 100.12 47.847 100.12C48.783 100.12 49.539 99.844 50.163 99.412ZM54.4824 96.088C54.4824 96.724 54.0984 97.192 53.4624 97.192C52.8384 97.192 52.4544 96.736 52.4544 96.136C52.4544 95.5 52.8264 95.008 53.4624 95.008C54.0744 95.008 54.4824 95.476 54.4824 96.088ZM56.5344 100.24C56.5344 99.352 55.7904 98.98 54.6024 98.812L53.8584 98.74C52.9584 98.608 52.7784 98.56 52.7784 98.368C52.7784 98.272 52.8744 98.164 53.0184 98.056C53.1624 98.08 53.3184 98.092 53.4864 98.092C54.7344 98.092 55.8024 97.348 55.8024 96.1C55.8024 95.836 55.7544 95.572 55.6464 95.344L56.7024 95.272L56.5104 94.12L55.0944 94.624C54.6744 94.276 54.1224 94.084 53.4504 94.084C52.1544 94.084 51.1224 94.864 51.1224 96.136C51.1224 96.904 51.5304 97.504 52.2144 97.828C51.7344 98.116 51.4824 98.428 51.4824 98.752C51.4824 98.98 51.5904 99.196 51.8184 99.376C51.0984 99.784 50.7264 100.204 50.7264 100.744C50.7264 101.704 51.9144 102.184 53.4864 102.184C55.1664 102.184 56.5344 101.488 56.5344 100.24ZM53.5824 101.332C52.4904 101.332 51.9744 101.02 51.9744 100.588C51.9744 100.288 52.1664 100.012 52.5864 99.712C52.8744 99.772 53.0544 99.808 53.4504 99.856L54.2304 99.952C54.9504 100.06 55.2024 100.24 55.2024 100.552C55.2024 100.984 54.6144 101.332 53.5824 101.332ZM62.5051 100V95.824C62.5051 94.744 61.9291 94.084 60.8491 94.084C60.0691 94.084 59.4571 94.504 58.9171 95.02L58.7851 94.204H57.5611V100H59.0011V96.088C59.4211 95.644 59.8771 95.356 60.3211 95.356C60.8491 95.356 61.0651 95.704 61.0651 96.208V100H62.5051ZM67.1158 98.404C66.7198 98.788 66.2518 99.028 65.7598 99.028C65.3158 99.028 65.0518 98.776 65.0518 98.356C65.0518 97.804 65.4478 97.312 67.1158 97.108V98.404ZM68.5558 100V96.028C68.5558 94.636 67.8118 94.084 66.3118 94.084C65.3878 94.084 64.6798 94.288 64.0078 94.552L64.1878 95.704C64.8118 95.428 65.4478 95.236 66.1198 95.236C66.7558 95.236 67.1158 95.476 67.1158 96.1V96.268C64.7758 96.496 63.6238 97.108 63.6238 98.512C63.6238 99.52 64.2838 100.12 65.2678 100.12C66.1318 100.12 66.7318 99.736 67.1998 99.244L67.3198 100H68.5558ZM73.475 95.512L73.247 94.084C72.347 94.132 71.771 94.696 71.387 95.368L71.207 94.204H69.983V100H71.423V96.676C71.843 96.052 72.575 95.572 73.475 95.512ZM77.5795 92.632L77.3875 91.444C77.2195 91.42 77.0155 91.408 76.7995 91.408C75.6115 91.408 74.7955 91.876 74.7955 93.16V94.204H73.9555V95.38H74.7955V100H76.2235V95.38H77.5075L77.3275 94.204H76.2235V93.304C76.2235 92.8 76.4875 92.584 76.9795 92.584C77.2195 92.584 77.4355 92.608 77.5795 92.632ZM80.5696 96.928L80.8696 94.96H82.7176L82.4056 96.928H80.5696ZM81.9016 100.024H82.9096L83.2096 98.116H84.9496L84.7576 96.904H83.4016L83.7016 94.984H85.1656V93.772H83.8936L84.1696 92.008L83.2096 91.792L82.8976 93.772H81.0736L81.3736 91.864H80.3776L80.0776 93.772H78.3256L78.5296 94.984H79.8856L79.5736 96.904H78.1096V98.116H79.3816L79.1056 99.88L80.0656 100.096L80.3776 98.116H82.2136L81.9016 100.024ZM88.4415 100.084L91.5735 93.076V91.888H86.0295L86.2215 93.208H89.9415L86.9655 99.796L88.4415 100.084ZM94.8634 100.084L97.9954 93.076V91.888H92.4514L92.6434 93.208H96.3634L93.3874 99.796L94.8634 100.084ZM101.285 100.084L104.417 93.076V91.888H98.8733L99.0653 93.208H102.785L99.8093 99.796L101.285 100.084ZM107.707 100.084L110.839 93.076V91.888H105.295L105.487 93.208H109.207L106.231 99.796L107.707 100.084Z" fill="#B9BBBE"/>
<path d="M61.4185 79.436C61.4185 80.178 60.9705 80.724 60.2285 80.724C59.5005 80.724 59.0525 80.192 59.0525 79.492C59.0525 78.75 59.4865 78.176 60.2285 78.176C60.9425 78.176 61.4185 78.722 61.4185 79.436ZM63.8125 84.28C63.8125 83.244 62.9445 82.81 61.5585 82.614L60.6905 82.53C59.6405 82.376 59.4305 82.32 59.4305 82.096C59.4305 81.984 59.5425 81.858 59.7105 81.732C59.8785 81.76 60.0605 81.774 60.2565 81.774C61.7125 81.774 62.9585 80.906 62.9585 79.45C62.9585 79.142 62.9025 78.834 62.7765 78.568L64.0085 78.484L63.7845 77.14L62.1325 77.728C61.6425 77.322 60.9985 77.098 60.2145 77.098C58.7025 77.098 57.4985 78.008 57.4985 79.492C57.4985 80.388 57.9745 81.088 58.7725 81.466C58.2125 81.802 57.9185 82.166 57.9185 82.544C57.9185 82.81 58.0445 83.062 58.3105 83.272C57.4705 83.748 57.0365 84.238 57.0365 84.868C57.0365 85.988 58.4225 86.548 60.2565 86.548C62.2165 86.548 63.8125 85.736 63.8125 84.28ZM60.3685 85.554C59.0945 85.554 58.4925 85.19 58.4925 84.686C58.4925 84.336 58.7165 84.014 59.2065 83.664C59.5425 83.734 59.7525 83.776 60.2145 83.832L61.1245 83.944C61.9645 84.07 62.2585 84.28 62.2585 84.644C62.2585 85.148 61.5725 85.554 60.3685 85.554ZM70.7783 84V79.128C70.7783 77.868 70.1063 77.098 68.8463 77.098C67.9363 77.098 67.2223 77.588 66.5923 78.19L66.4383 77.238H65.0103V84H66.6903V79.436C67.1803 78.918 67.7123 78.582 68.2303 78.582C68.8463 78.582 69.0983 78.988 69.0983 79.576V84H70.7783ZM76.1574 82.138C75.6954 82.586 75.1494 82.866 74.5754 82.866C74.0574 82.866 73.7494 82.572 73.7494 82.082C73.7494 81.438 74.2114 80.864 76.1574 80.626V82.138ZM77.8374 84V79.366C77.8374 77.742 76.9694 77.098 75.2194 77.098C74.1414 77.098 73.3154 77.336 72.5314 77.644L72.7414 78.988C73.4694 78.666 74.2114 78.442 74.9954 78.442C75.7374 78.442 76.1574 78.722 76.1574 79.45V79.646C73.4274 79.912 72.0834 80.626 72.0834 82.264C72.0834 83.44 72.8534 84.14 74.0014 84.14C75.0094 84.14 75.7094 83.692 76.2554 83.118L76.3954 84H77.8374ZM83.5764 78.764L83.3104 77.098C82.2604 77.154 81.5884 77.812 81.1404 78.596L80.9304 77.238H79.5024V84H81.1824V80.122C81.6724 79.394 82.5264 78.834 83.5764 78.764ZM88.3651 75.404L88.1411 74.018C87.9451 73.99 87.7071 73.976 87.4551 73.976C86.0691 73.976 85.1171 74.522 85.1171 76.02V77.238H84.1371V78.61H85.1171V84H86.7831V78.61H88.2811L88.0711 77.238H86.7831V76.188C86.7831 75.6 87.0911 75.348 87.6651 75.348C87.9451 75.348 88.1971 75.376 88.3651 75.404Z" fill="white"/>
</svg>
