<svg width="193" height="113" viewBox="0 0 193 113" fill="none" xmlns="http://www.w3.org/2000/svg">
<rect width="193" height="113" rx="8" fill="#18191C"/>
<path d="M0 81.4414H193V105C193 109.418 189.418 113 185 113H8C3.58173 113 0 109.418 0 105V81.4414Z" fill="#292B2F"/>
<path d="M87.4367 30.3861L89.3967 30.0361L86.7787 26.2421C87.9827 25.8221 88.7387 24.9401 88.7387 23.5261C88.7387 21.6501 87.4367 20.6281 85.2807 20.6281H82.2847V30.2881H84.1327V26.5921H84.9167L87.4367 30.3861ZM86.9187 23.6241C86.9187 24.6321 86.2047 25.1781 85.0567 25.1781H84.1187V22.1121H85.1407C86.3027 22.1121 86.9187 22.6581 86.9187 23.6241ZM96.1894 26.9001C96.1894 24.7021 94.8454 23.3861 92.9974 23.3861C91.1634 23.3861 89.8194 24.7161 89.8194 26.9141C89.8194 29.1121 91.1494 30.4281 92.9834 30.4281C94.8314 30.4281 96.1894 29.0981 96.1894 26.9001ZM94.5514 26.9141C94.5514 28.1741 94.0194 29.0561 92.9834 29.0561C92.0034 29.0561 91.4574 28.1461 91.4574 26.9001C91.4574 25.6541 91.9894 24.7581 92.9834 24.7581C93.9914 24.7581 94.5514 25.6681 94.5514 26.9141ZM101.696 30.3861L103.488 30.1201L100.842 26.5781L103.334 23.5261H101.43L99.2322 26.3261V20.1801L97.5522 20.4461V30.2881H99.2322V26.9281L101.696 30.3861ZM108.029 28.4261C107.567 28.8741 107.021 29.1541 106.447 29.1541C105.929 29.1541 105.621 28.8601 105.621 28.3701C105.621 27.7261 106.083 27.1521 108.029 26.9141V28.4261ZM109.709 30.2881V25.6541C109.709 24.0301 108.841 23.3861 107.091 23.3861C106.013 23.3861 105.187 23.6241 104.403 23.9321L104.613 25.2761C105.341 24.9541 106.083 24.7301 106.867 24.7301C107.609 24.7301 108.029 25.0101 108.029 25.7381V25.9341C105.299 26.2001 103.955 26.9141 103.955 28.5521C103.955 29.7281 104.725 30.4281 105.873 30.4281C106.881 30.4281 107.581 29.9801 108.127 29.4061L108.267 30.2881H109.709Z" fill="white"/>
<path d="M115.321 27.3121H113.305L113.641 25.1521H115.657L115.321 27.3121ZM114.841 30.3121H115.693L116.029 28.2241H117.709L117.553 27.3121H116.173L116.509 25.1521H117.949V24.2401H116.653L116.965 22.2721L116.149 22.0921L115.801 24.2401H113.785L114.121 22.1521H113.269L112.933 24.2401H111.253L111.409 25.1521H112.789L112.453 27.3121H111.013V28.2241H112.309L111.997 30.1921L112.813 30.3721L113.161 28.2241H115.177L114.841 30.3121ZM121.598 30.2881V22.1521H120.662L118.718 23.0521L118.838 23.9161L120.53 23.2801V30.2881H121.598ZM125.467 30.4441C127.243 30.4441 128.359 29.4961 128.359 28.0681C128.359 26.9401 127.759 26.3161 126.715 26.0281C127.591 25.7401 128.203 25.1521 128.203 24.1441C128.203 23.0521 127.447 22.0201 125.623 22.0201C124.615 22.0201 123.895 22.3081 123.271 22.7641L123.427 23.7721C124.027 23.2921 124.735 22.9921 125.575 22.9921C126.595 22.9921 127.099 23.4961 127.099 24.1921C127.099 25.0681 126.463 25.5481 125.119 25.5481H124.507L124.663 26.5321H125.035C126.595 26.5321 127.255 27.0961 127.255 28.0801C127.255 28.9921 126.595 29.4721 125.527 29.4721C124.675 29.4721 124.003 29.2201 123.319 28.7521L123.139 29.8081C123.763 30.1921 124.615 30.4441 125.467 30.4441ZM131.631 30.4441C133.407 30.4441 134.523 29.4961 134.523 28.0681C134.523 26.9401 133.923 26.3161 132.879 26.0281C133.755 25.7401 134.367 25.1521 134.367 24.1441C134.367 23.0521 133.611 22.0201 131.787 22.0201C130.779 22.0201 130.059 22.3081 129.435 22.7641L129.591 23.7721C130.191 23.2921 130.899 22.9921 131.739 22.9921C132.759 22.9921 133.263 23.4961 133.263 24.1921C133.263 25.0681 132.627 25.5481 131.283 25.5481H130.671L130.827 26.5321H131.199C132.759 26.5321 133.419 27.0961 133.419 28.0801C133.419 28.9921 132.759 29.4721 131.691 29.4721C130.839 29.4721 130.167 29.2201 129.483 28.7521L129.303 29.8081C129.927 30.1921 130.779 30.4441 131.631 30.4441ZM137.463 30.3721L140.715 23.0161V22.1761H135.339L135.483 23.1481H139.503L136.407 30.1321L137.463 30.3721Z" fill="#B9BBBE"/>
<g clip-path="url(#clip0)">
<mask id="mask0" mask-type="alpha" maskUnits="userSpaceOnUse" x="16" y="16" width="50" height="50">
<ellipse cx="40.6319" cy="40.7205" rx="24.3789" ry="24.4324" fill="#24193A"/>
</mask>
<g mask="url(#mask0)">
<path d="M23.2963 60.6241C23.2 60.5877 23.1036 60.548 23.0066 60.5147C22.7047 60.4131 22.394 60.3382 22.0921 60.2365C21.3946 60.0012 20.8228 59.6321 20.2548 59.1768C19.5062 60.0568 18.8897 61.0609 18.4258 62.0977H24.5797C24.3232 61.6999 24.0864 61.2893 23.8713 60.8678C23.6735 60.8531 23.4776 60.7751 23.2963 60.6241Z" fill="#9AFFD8"/>
<path d="M19.3334 58.3101C18.819 57.7338 18.4061 57.0706 18.1879 56.3242C17.9243 55.423 17.9907 54.3888 18.5606 53.6162C19.4636 52.3921 21.0322 52.1324 22.4036 52.5526C22.4598 52.1088 22.5364 51.6675 22.6366 51.2313C23.172 48.8987 24.2607 46.8668 25.7292 45.147C25.7892 44.5937 26.0342 44.0578 26.3284 43.5966C26.9372 42.6411 27.7764 41.8282 28.6865 41.1266C27.5135 41.0511 26.3425 40.9373 25.1759 40.7755C24.7808 40.7205 24.6615 40.0783 24.7834 39.7861C24.9429 39.4042 26.0266 39.2968 26.3897 39.2175C27.5748 38.9584 28.7982 38.8919 29.9941 38.6905C30.3425 38.6316 30.6916 38.576 31.042 38.5267C31.6719 38.4385 32.3056 38.3739 32.9418 38.3259C33.3439 37.6384 33.6987 36.9297 34.162 36.2754C35.2973 34.6746 36.8296 33.256 38.7084 32.4834C40.4634 31.7619 42.6396 31.5477 44.3875 32.406C45.0346 32.7239 45.7564 33.1799 46.4661 33.7018C48.8962 32.6433 51.4859 31.9033 53.9148 30.8205C56.0636 29.863 58.2404 28.4579 59.0183 26.2341C59.9941 23.4443 58.3004 20.2425 55.7783 18.7095C53.2562 17.1764 50.1413 16.9941 47.2019 17.2417C45.2018 17.4099 43.175 17.7559 41.2043 17.3753C39.2336 16.9948 37.2744 15.6709 36.873 13.7003C36.8411 13.5455 36.8207 13.3901 36.8085 13.2354H23.2773C22.0514 13.8238 20.7482 14.2209 19.5153 14.4103C18.7609 14.526 18.0124 14.5759 17.2689 14.574L15.2373 38.176L17.2689 61.5796C17.7864 60.4149 18.461 59.3232 19.2951 58.3536C19.3079 58.3389 19.3206 58.3248 19.3334 58.3101Z" fill="#9AFFD8"/>
<path d="M41.1389 19.6034C43.1095 19.984 45.1364 19.6379 47.1364 19.4697C50.0759 19.2222 53.2552 17.1754 55.7773 18.7085C58.2993 20.2416 59.9931 23.4433 59.0173 26.2331C58.2393 28.4569 56.0625 29.8621 53.9138 30.8195C51.4849 31.9023 48.8952 32.6423 46.465 33.7008C47.5557 34.5015 48.6169 35.4564 49.3343 36.302C49.8244 36.8801 50.5091 37.6962 50.654 38.4592C51.0107 38.5462 51.3643 38.6492 51.7159 38.7688C52.0822 38.8929 52.4562 39.0304 52.8295 39.1826C54.0402 38.3806 55.3733 37.7442 56.7058 37.2249C59.6746 36.0672 62.8623 35.7372 66.0251 35.8824V13.2344H36.8075C36.8196 13.3892 36.7763 15.773 36.8076 15.9284C37.2096 17.8989 39.1682 19.2229 41.1389 19.6034Z" fill="#9FA9FF"/>
<path d="M54.1953 39.8269C55.0256 40.2816 55.792 40.8406 56.3836 41.5416C56.8973 42.1498 57.2892 42.902 57.2452 43.7206C57.212 44.3397 56.9605 44.9595 56.57 45.4577C56.5942 45.5018 56.6178 45.546 56.6408 45.5901C56.7442 45.789 56.8399 45.9911 56.9267 46.1977C57.5719 47.7295 58.0658 49.4039 58.3581 51.1237C58.7244 51.0354 59.1105 51.038 59.4832 51.1243C60.5209 51.3648 61.3014 52.2206 61.6505 53.1979C61.6562 53.2138 61.6607 53.2298 61.6658 53.2458C61.8151 53.6424 61.8936 54.0734 61.9121 54.5179C62.0008 56.6899 60.2988 58.2857 58.7691 59.5584C58.4896 59.7906 58.1597 59.8904 57.8438 59.829C57.8176 59.9057 57.7927 59.9825 57.7653 60.0579C57.4985 60.796 57.1762 61.4733 56.8061 62.0963H66.0252V37.1624C61.8987 36.9776 57.7851 37.6677 54.1953 39.8269Z" fill="#9FA9FF"/>
<path d="M20.2061 59.1385C19.8959 58.8871 19.6011 58.6095 19.3331 58.3096C19.3203 58.3243 19.3075 58.3384 19.2948 58.3531C18.4607 59.3227 17.7861 60.4144 17.2686 61.5791V62.0978H18.4256C18.8895 61.061 19.5054 60.0569 20.2546 59.1768C20.2386 59.1634 20.2227 59.1512 20.2061 59.1385Z" fill="white"/>
<path d="M56.7054 37.2248C55.3729 37.7441 54.0397 38.3805 52.8291 39.1825C53.2911 39.3718 53.7525 39.5848 54.1954 39.8278C57.7845 37.668 61.8989 36.9785 66.0253 37.1634V35.8829C62.8625 35.7371 59.6748 36.0671 56.7054 37.2248Z" fill="white"/>
<path d="M29.8307 14.637L10.9246 23.4148L10.8303 34.482C11.8688 34.2859 17.6824 37.4511 23.7771 33.379C36.1195 25.1327 28.2759 15.7873 29.8307 14.637Z" fill="#FAFFA0"/>
<path d="M61.9132 54.5193C61.8954 54.0754 61.8162 53.6444 61.6669 53.2478C61.6618 53.2318 61.6573 53.2159 61.6516 53.1999C61.3025 52.2226 60.522 51.3668 59.4843 51.1264C59.1116 51.04 58.7256 51.0375 58.3592 51.1257C58.0663 49.4059 57.573 47.7309 56.9278 46.1997C56.841 45.9931 56.7453 45.791 56.6419 45.5921C56.6189 45.5473 56.5947 45.5032 56.5711 45.4597C56.3777 45.7072 56.1505 45.9247 55.8972 46.0974C54.9699 46.7299 53.7274 46.6679 52.6788 46.4581C51.6603 46.2541 50.6545 45.8652 49.7471 45.3599C49.7005 45.3337 49.6539 45.3069 49.6079 45.2806C49.2238 45.06 48.8511 44.8189 48.493 44.5579C47.7119 43.9893 46.9978 43.3299 46.3705 42.5957C46.3596 42.7383 46.3475 42.8803 46.3328 43.0217C46.1835 44.4409 45.807 46.0859 44.5555 46.9435C43.6084 47.5921 42.1221 47.6452 41.5893 46.4607C41.1942 45.5832 41.2817 44.5221 41.4565 43.5544C41.454 43.5608 41.4514 43.5666 41.4489 43.573C41.0009 44.6839 40.5854 45.7974 39.9389 46.8124C39.048 48.2099 37.7053 49.7769 36.0371 50.1855C35.5942 50.2943 35.1284 50.3224 34.6414 50.2425C33.9439 50.1286 33.3064 49.773 33.0658 49.074C32.8673 48.4971 32.9905 47.8389 33.1787 47.2768C33.3568 46.744 33.5936 46.2304 33.8654 45.7328C33.4066 46.0795 32.9228 46.3967 32.4021 46.6704C30.7205 47.555 28.2776 48.5092 26.5896 47.1591C26.0663 46.7402 25.7331 46.139 25.7146 45.4623C25.7115 45.3574 25.7172 45.2525 25.7287 45.1482C24.2602 46.8681 23.1715 48.9 22.6361 51.2325C22.5359 51.6687 22.4593 52.11 22.4031 52.5539C21.0317 52.1337 19.4637 52.3934 18.5601 53.6175C17.9902 54.3895 17.9238 55.4243 18.1874 56.3255C18.4056 57.0719 18.8192 57.7351 19.3329 58.3114C19.6009 58.6113 19.8958 58.8889 20.2059 59.1402C20.2219 59.153 20.2385 59.1658 20.2544 59.1786C20.8224 59.634 21.3942 60.003 22.0917 60.2384C22.3936 60.3401 22.7044 60.4149 23.0062 60.5166C23.1039 60.5492 23.1996 60.5889 23.296 60.626C23.4772 60.7769 23.6731 60.8556 23.871 60.8697C24.086 61.2911 24.3228 61.7017 24.5793 62.0996L32.3108 67.1897H33.8654H44.0443H48.6315H49.9245L56.8066 62.0996C57.1767 61.4766 57.499 60.7987 57.7657 60.0612C57.7932 59.9851 57.8187 59.9084 57.8442 59.8323C58.1601 59.8937 58.4901 59.7939 58.7696 59.5617C60.2999 58.2877 62.0019 56.6919 61.9132 54.5193Z" fill="#24193A"/>
<path d="M56.3836 41.542C55.792 40.8411 55.0256 40.2821 54.1953 39.8273C53.7524 39.5843 53.291 39.3713 52.829 39.182C52.4556 39.0291 52.081 38.8923 51.7154 38.7676C51.3637 38.648 51.0102 38.545 50.6534 38.458C50.7358 38.8936 50.6439 39.3112 50.2373 39.6579C50.1831 39.7039 50.1238 39.7487 50.0587 39.7922C49.9999 39.8312 49.9368 39.8676 49.8723 39.9028C49.0108 40.3697 47.6642 40.4835 46.377 40.5245C45.8875 40.5398 45.4064 40.5456 44.9641 40.5558C44.5767 40.5648 44.2193 40.5776 43.9117 40.6044C41.7605 40.7931 39.5977 40.9741 37.4317 41.0956C35.1528 41.2229 32.87 41.283 30.5937 41.2146C29.9568 41.1954 29.3205 41.1666 28.6849 41.1257C27.7755 41.8273 26.9356 42.6402 26.3268 43.5957C26.0326 44.0569 25.7876 44.5928 25.7276 45.1461C25.7161 45.2503 25.711 45.3552 25.7135 45.4601C25.732 46.1368 26.0652 46.7386 26.5885 47.1569C28.2771 48.507 30.72 47.5528 32.401 46.6682C32.9217 46.3945 33.4055 46.0773 33.8643 45.7306C33.5925 46.2282 33.3557 46.7418 33.1776 47.2746C32.9894 47.8374 32.8662 48.4949 33.0647 49.0718C33.3053 49.7708 33.9428 50.1258 34.6403 50.2403C35.1273 50.3202 35.5925 50.2921 36.036 50.1833C37.7049 49.774 39.0476 48.2077 39.9378 46.8102C40.5843 45.7959 40.9998 44.6824 41.4478 43.5708C41.4503 43.5644 41.4529 43.5586 41.4554 43.5522C41.2806 44.5199 41.1931 45.581 41.5882 46.4585C42.121 47.6436 43.6073 47.5905 44.5544 46.9413C45.8059 46.0837 46.1824 44.4387 46.3317 43.0195C46.3464 42.8781 46.3585 42.7361 46.3694 42.5935C46.9961 43.3277 47.7108 43.9871 48.4919 44.5557C48.8506 44.8167 49.2226 45.0578 49.6068 45.2784C49.6534 45.3053 49.6994 45.3322 49.746 45.3578C50.6534 45.863 51.6592 46.2519 52.6777 46.4559C53.7263 46.6657 54.9694 46.7277 55.8961 46.0952C56.1488 45.9225 56.376 45.7044 56.57 45.4575C56.9605 44.9587 57.212 44.3395 57.2452 43.7204C57.2898 42.9024 56.8973 42.1503 56.3836 41.542Z" fill="#FFCD2E"/>
<path d="M50.6536 38.4586C50.5088 37.6956 49.8246 36.8795 49.3339 36.3013C48.6166 35.4558 47.5546 34.5009 46.4646 33.7002C45.755 33.1789 45.0332 32.7223 44.3861 32.4044C42.6381 31.5461 40.462 31.7604 38.707 32.4818C36.8282 33.2544 35.2959 34.673 34.1606 36.2738C33.6967 36.9281 33.3425 37.6361 32.9404 38.3243C32.3042 38.3723 31.6704 38.4369 31.0406 38.5251C30.6902 38.5744 30.3411 38.63 29.9927 38.6889C28.7967 38.891 27.574 38.9575 26.3883 39.2165C26.0245 39.2958 24.9409 39.4033 24.782 39.7851C24.6601 40.0774 24.7794 40.7195 25.1745 40.7745C26.341 40.9363 27.5121 41.0508 28.6851 41.1257C29.3207 41.1666 29.9569 41.1954 30.5938 41.2146C32.8702 41.283 35.153 41.2229 37.4319 41.0956C39.5979 40.9741 41.7606 40.7931 43.9119 40.6044C44.2195 40.5775 44.5769 40.5648 44.9643 40.5558C45.4065 40.5456 45.8871 40.5405 46.3772 40.5245C47.6644 40.4835 49.0103 40.369 49.8725 39.9028C49.937 39.8676 50.0001 39.8312 50.0588 39.7921C50.1239 39.7487 50.1839 39.7039 50.2375 39.6578C50.6434 39.3118 50.7359 38.8942 50.6536 38.4586ZM29.9397 40.245C30.2626 40.0365 30.5926 39.8388 30.9302 39.6559C30.5926 39.8388 30.2626 40.0365 29.9397 40.245ZM33.7924 38.6678C33.9073 38.6723 34.0011 38.7087 34.0732 38.7656C34.0011 38.7087 33.9073 38.6723 33.7924 38.6678Z" fill="#FF5CEF"/>
<path d="M37.5788 55.8561C37.5692 55.7889 37.5584 55.7218 37.5469 55.6553C37.5584 55.7224 37.5692 55.7896 37.5788 55.8561Z" fill="white"/>
<path d="M37.6031 56.0552C37.5967 55.9925 37.589 55.9299 37.5801 55.8672C37.589 55.9299 37.5967 55.9925 37.6031 56.0552Z" fill="white"/>
<path d="M37.5804 55.868C37.5797 55.8641 37.5797 55.8603 37.5791 55.8564C37.5797 55.8603 37.5797 55.8641 37.5804 55.868Z" fill="white"/>
<path d="M37.6035 56.0557C37.6035 56.0569 37.6035 56.0588 37.6041 56.0601C37.6041 56.0588 37.6035 56.0575 37.6035 56.0557Z" fill="white"/>
<path d="M37.6037 56.0605C36.2438 57.1139 34.5686 57.7676 32.8538 57.9428C32.2086 58.0087 31.5583 58.0061 30.9163 57.9326C29.8748 57.8123 28.8563 57.5034 27.9245 56.986C27.8307 56.9336 27.7376 56.8792 27.6469 56.8229C27.3738 56.6541 27.1141 56.468 26.8671 56.2659C26.7165 57.1536 26.8243 58.0771 27.2111 58.8977C27.6329 59.7925 28.4038 60.5043 29.2615 60.9744C30.7172 61.7713 32.5909 62.047 34.1997 61.5347C34.5201 61.4324 34.8309 61.3 35.1251 61.133C35.21 61.0851 35.2923 61.0333 35.374 60.9802C36.9879 59.9249 37.7984 57.9537 37.6037 56.0605Z" fill="white"/>
<path d="M53.504 55.8234C53.4817 55.4109 53.4064 55.0125 53.2819 54.6357C52.5697 55.3457 51.7325 55.9322 50.7643 56.3511C50.645 56.4029 50.5238 56.4515 50.4012 56.4988C50.0119 56.6478 49.608 56.7732 49.1951 56.8743C47.5294 57.2804 45.7176 57.2849 44.1011 56.848C43.5625 56.7022 43.0284 56.4873 42.5683 56.179C42.5446 56.4253 42.5434 56.6741 42.5663 56.9222C42.7252 58.6369 43.8918 59.989 45.4739 60.5908C45.9002 60.7526 46.3405 60.8364 46.7917 60.8921C46.8925 60.9049 46.9889 60.8742 47.0712 60.8192C48.1836 60.9925 49.3718 60.8575 50.4102 60.4578C50.8224 60.2992 51.2104 60.0984 51.5614 59.8592C51.6297 59.8125 51.6967 59.7651 51.7618 59.7153C52.9916 58.7796 53.587 57.3616 53.504 55.8234Z" fill="white"/>
<path d="M37.5474 55.6565C37.5461 55.6489 37.5442 55.6412 37.5429 55.6329C37.5321 55.574 37.5206 55.5152 37.5072 55.4563C37.4925 55.3885 37.4759 55.3214 37.4587 55.2549C37.0445 53.6841 35.9162 52.7324 34.5416 52.3128C34.2799 52.2329 34.0087 52.1721 33.7324 52.1305C33.525 52.0992 33.3144 52.0781 33.1019 52.0679C32.9602 52.0608 32.8179 52.0583 32.6749 52.0602C32.389 52.064 32.1018 52.0858 31.8159 52.1254C31.7445 52.135 31.673 52.1459 31.6022 52.158C31.4598 52.1823 31.3175 52.2105 31.1771 52.2425C31.1069 52.2585 31.0367 52.2757 30.9665 52.2943C30.8268 52.3307 30.6883 52.3717 30.5511 52.4171C30.3456 52.4849 30.1439 52.5616 29.9467 52.6473C29.8153 52.7042 29.6863 52.7656 29.56 52.8309C29.4336 52.8961 29.3098 52.9652 29.1886 53.0381C29.068 53.111 28.9499 53.1878 28.835 53.2683C28.5491 53.4698 28.2843 53.6943 28.0469 53.9418C27.9518 54.041 27.8618 54.1433 27.7756 54.2495C27.6474 54.4087 27.5293 54.5756 27.424 54.7502C27.387 54.811 27.3519 54.873 27.3181 54.9364C27.2874 54.9933 27.2581 55.0515 27.23 55.1097C27.1413 55.2945 27.066 55.4864 27.0054 55.6859C26.9875 55.7435 26.9715 55.8023 26.9562 55.8605C26.9505 55.8817 26.9454 55.9028 26.9403 55.9239C26.9307 55.961 26.9224 55.9987 26.9141 56.0364C26.9084 56.0614 26.9026 56.0863 26.8975 56.1119C26.8931 56.1324 26.8899 56.1528 26.886 56.1739C26.8803 56.2053 26.8739 56.2366 26.8682 56.2686C27.1145 56.4707 27.3742 56.6568 27.648 56.8257C27.7393 56.882 27.8318 56.9363 27.9256 56.9888C28.8574 57.5062 29.8759 57.8157 30.9174 57.9353C31.5594 58.0095 32.2097 58.0114 32.8549 57.9456C34.5697 57.7703 36.2449 57.1167 37.6048 56.0633C37.5902 55.9258 37.571 55.7908 37.5474 55.6565Z" fill="#427EFC"/>
<path d="M53.2811 54.6351C53.2645 54.5846 53.2466 54.5341 53.2281 54.4848C53.2256 54.4784 53.2237 54.4727 53.2211 54.4663C53.2052 54.4234 53.1879 54.3806 53.1707 54.3384C53.1675 54.3307 53.1643 54.323 53.1611 54.316C53.1216 54.2207 53.0782 54.1273 53.0316 54.0358C53.0271 54.0275 53.0233 54.0192 53.0188 54.0109C52.9984 53.9706 52.9767 53.9303 52.955 53.8907C52.9518 53.8855 52.9493 53.8798 52.9461 53.8747C52.9205 53.8293 52.895 53.7851 52.8682 53.7404C52.865 53.7352 52.8618 53.7301 52.8586 53.725C52.835 53.6866 52.8114 53.6489 52.7865 53.6118C52.7808 53.6029 52.7744 53.5933 52.768 53.5843C52.7406 53.5434 52.7125 53.5024 52.6831 53.4615C52.6825 53.4609 52.6825 53.4602 52.6819 53.4596C52.6519 53.418 52.6212 53.3777 52.59 53.3368C52.5829 53.3278 52.5759 53.3189 52.5689 53.3099C52.5434 53.278 52.5179 53.246 52.4917 53.214C52.4847 53.205 52.477 53.1967 52.47 53.1878C52.4374 53.1494 52.4043 53.111 52.3698 53.0733C52.366 53.0694 52.3621 53.065 52.3583 53.0611C52.3283 53.0279 52.297 52.9953 52.2658 52.9633C52.2562 52.9537 52.2466 52.9435 52.2364 52.9339C52.2071 52.9038 52.1771 52.8744 52.1464 52.8456C52.1401 52.8392 52.133 52.8328 52.1266 52.8264C52.0903 52.7919 52.0526 52.758 52.0143 52.7241C52.0048 52.7158 51.9958 52.7081 51.9863 52.6998C51.9563 52.6736 51.9256 52.648 51.8944 52.6224C51.8835 52.6134 51.872 52.6038 51.8612 52.5949C51.821 52.5629 51.7808 52.5309 51.7399 52.4996C51.6748 52.4503 51.6091 52.4037 51.5421 52.3582C50.939 51.9489 50.2574 51.6809 49.5465 51.5441C49.4884 51.5325 49.4297 51.5223 49.3716 51.5127C49.1917 51.4833 49.0098 51.4628 48.8279 51.45C48.5861 51.4328 48.3429 51.4302 48.0998 51.4411C48.094 51.4411 48.0883 51.4417 48.0825 51.4424C47.8451 51.4539 47.6084 51.4782 47.3735 51.5153C47.1329 51.5537 46.8949 51.6055 46.6607 51.6701C46.5043 51.7129 46.3499 51.7622 46.198 51.8172C45.8942 51.9265 45.5994 52.0589 45.318 52.2131C45.0365 52.3672 44.7691 52.5431 44.5196 52.7401L44.519 52.7407C44.4832 52.7688 44.4481 52.7976 44.413 52.8264C44.4015 52.836 44.3901 52.8456 44.3792 52.8552C44.3556 52.8757 44.332 52.8955 44.3084 52.9166C44.2956 52.9281 44.2822 52.9396 44.2694 52.9511C44.2477 52.9703 44.226 52.9901 44.205 53.01C44.1916 53.0221 44.1788 53.0343 44.1654 53.0471C44.1437 53.0675 44.1227 53.088 44.1016 53.1091C44.0895 53.1206 44.0773 53.1328 44.0652 53.1449C44.0403 53.1692 44.0161 53.1948 43.9918 53.2197C43.9835 53.2281 43.9759 53.2364 43.9676 53.2447C43.9357 53.278 43.9044 53.3118 43.8731 53.3464C43.8642 53.356 43.8559 53.3656 43.8476 53.3752C43.8253 53.4001 43.8029 53.4257 43.7812 53.4513C43.7697 53.4647 43.7583 53.4781 43.7468 53.4916C43.7276 53.514 43.7091 53.5363 43.6906 53.5594C43.6785 53.5741 43.667 53.5888 43.6555 53.6029C43.6376 53.6252 43.6198 53.6476 43.6025 53.6706C43.5911 53.6854 43.5796 53.7001 43.5687 53.7148C43.5502 53.7391 43.5323 53.764 43.5138 53.7883C43.5043 53.8018 43.4947 53.8146 43.4851 53.828C43.4583 53.8651 43.4322 53.9028 43.406 53.9412C43.4009 53.9482 43.3964 53.9559 43.3913 53.9629C43.3702 53.9943 43.3492 54.0263 43.3288 54.0582C43.3192 54.0729 43.3096 54.0883 43.3 54.1036C43.2847 54.1279 43.2694 54.1529 43.2541 54.1778C43.2439 54.1945 43.2337 54.2117 43.2241 54.2284C43.2101 54.252 43.1967 54.2757 43.1826 54.2994C43.1724 54.3166 43.1628 54.3339 43.1533 54.3518C43.1399 54.3761 43.1265 54.401 43.1131 54.4254C43.1041 54.442 43.0952 54.4586 43.0863 54.4759C43.0716 54.5047 43.0569 54.5334 43.0422 54.5622C43.0358 54.575 43.0288 54.5878 43.0224 54.6012C43.0027 54.6422 42.9835 54.6831 42.965 54.724C42.958 54.74 42.951 54.756 42.9439 54.7726C42.9325 54.7995 42.9203 54.8257 42.9095 54.8526C42.9018 54.8711 42.8942 54.8903 42.8865 54.9089C42.8763 54.9332 42.8667 54.9581 42.8572 54.9831C42.8495 55.0022 42.8425 55.0221 42.8348 55.0413C42.8259 55.0656 42.8169 55.0905 42.808 55.1155C42.801 55.1346 42.794 55.1538 42.7876 55.1737C42.7787 55.1999 42.7704 55.2261 42.7614 55.253C42.7557 55.2709 42.7499 55.2888 42.7442 55.3067C42.7308 55.3495 42.7187 55.3917 42.7065 55.4346C42.7027 55.4493 42.6989 55.464 42.6951 55.4794C42.6874 55.5094 42.6791 55.5395 42.6721 55.5695C42.6676 55.5894 42.6631 55.6086 42.6587 55.6284C42.6529 55.654 42.6472 55.6796 42.6415 55.7051C42.637 55.7256 42.6332 55.7461 42.6293 55.7672C42.6242 55.7921 42.6198 55.8177 42.6153 55.8426C42.6115 55.8631 42.6083 55.8842 42.6044 55.9047C42.6 55.9309 42.5961 55.9565 42.5929 55.9827C42.5904 56.0025 42.5872 56.0224 42.5847 56.0422C42.5808 56.0723 42.5776 56.103 42.5744 56.1337C42.5725 56.149 42.5706 56.1644 42.5693 56.1803C43.0295 56.4886 43.5636 56.7035 44.1022 56.8493C45.7187 57.2862 47.5305 57.2817 49.1961 56.8756C49.609 56.7752 50.0124 56.6498 50.4023 56.5001C50.5248 56.4534 50.6461 56.4042 50.7654 56.3524C51.7323 55.9322 52.5695 55.3451 53.2811 54.6351C53.2817 54.6351 53.2811 54.6351 53.2811 54.6351Z" fill="#427EFC"/>
</g>
</g>
<ellipse cx="96.5" cy="48.8649" rx="6.09474" ry="6.10811" fill="white"/>
<path fill-rule="evenodd" clip-rule="evenodd" d="M83.5055 46.9549C83.9386 46.9549 84.2995 46.6004 84.2995 46.1749C84.2995 45.7494 83.9386 45.3949 83.5055 45.3949H83.0724C82.6393 45.3949 82.2783 45.7494 82.2783 46.1749C82.2783 46.6004 82.6393 46.9549 83.0724 46.9549H83.5055ZM99.8906 56.386C104.005 54.5424 105.737 49.8623 103.861 45.9622C102.561 43.1966 99.8185 41.5658 96.9312 41.4238H88.7748C88.0529 41.4238 87.5476 41.9912 87.5476 42.6294C87.5476 43.3384 88.1251 43.8348 88.7748 43.8348H90.868C91.301 43.8348 91.6619 44.1893 91.6619 44.6148C91.6619 45.0403 91.301 45.3949 90.868 45.3949H85.7431C85.31 45.3949 84.949 45.7494 84.949 46.1749C84.949 46.6004 85.31 46.9549 85.7431 46.9549H89.4244C89.8575 46.9549 90.2183 47.3095 90.2183 47.735C90.2183 48.1604 89.8575 48.5149 89.4244 48.5149H87.1145C86.6814 48.5149 86.3205 48.8694 86.3205 49.2949C86.3205 49.7204 86.6814 50.075 87.1145 50.075H88.7025C88.7748 50.926 88.9913 51.7769 89.3521 52.5568C91.1567 56.457 95.9207 58.1588 99.8906 56.386ZM92.5033 51.1041C91.4552 48.8619 92.456 46.2096 94.7383 45.18C97.0207 44.1503 99.7206 45.1335 100.769 47.3757C101.817 49.6179 100.816 52.2702 98.5336 53.2998C96.2512 54.3295 93.5513 53.3463 92.5033 51.1041Z" fill="#4F5D7F"/>
<path d="M98.3424 46.693L99.786 49.1041C99.8582 49.2458 99.8582 49.3168 99.786 49.4586L98.3424 51.8696C98.2702 52.0113 98.1259 52.0113 98.0536 52.0113H95.2386C95.0942 52.0113 95.022 51.9404 94.9499 51.8696L93.5062 49.4586C93.4341 49.3168 93.4341 49.2458 93.5062 49.1041L94.9499 46.693C95.022 46.5513 95.1665 46.5513 95.2386 46.5513H98.0536C98.1981 46.4803 98.2702 46.5513 98.3424 46.693Z" fill="#C5CEDD"/>
<path fill-rule="evenodd" clip-rule="evenodd" d="M112.689 40.6484H126.659C126.777 40.6484 126.874 40.7484 126.874 40.8715V50.8502C126.874 50.9198 126.843 50.9844 126.79 51.0268L119.805 56.602C119.766 56.6333 119.72 56.6484 119.674 56.6484C119.627 56.6484 119.581 56.6333 119.542 56.602L112.557 51.0268C112.505 50.9844 112.474 50.9198 112.474 50.8502V40.8715C112.474 40.7484 112.57 40.6484 112.689 40.6484ZM120.713 47.9456L124.905 45.1837C125.011 45.1139 125.139 45.23 125.081 45.343L123.342 48.7655C123.301 48.8477 123.361 48.9442 123.452 48.9442H124.493C124.612 48.9442 124.662 49.0973 124.564 49.1672L119.865 52.5445C119.823 52.5753 119.765 52.5753 119.722 52.5445L115.022 49.1672C114.926 49.0973 114.975 48.9442 115.094 48.9442H116.134C116.226 48.9442 116.285 48.8477 116.243 48.7655L114.505 45.342C114.448 45.23 114.576 45.1149 114.681 45.1837L118.875 47.9456C118.948 47.9938 119.006 48.0596 119.045 48.1377L119.684 49.4241C119.729 49.5145 119.858 49.5145 119.903 49.4241L120.543 48.1377C120.582 48.0596 120.64 47.9928 120.713 47.9456Z" fill="#9C84EF"/>
<path d="M150.667 39.2861C150.667 39.2861 158.339 44.5224 155.423 51.8748C152.508 59.2273 146.709 57.1878 148.876 55.0396C151.044 52.8914 146.319 51.4337 143.295 48.6461L150.66 39.2861" fill="#43B581"/>
<path d="M150.2 46.4856C148.582 48.5443 146.3 49.5736 144.535 49.2028L138.378 57.0476C138.274 57.1799 138.146 57.2905 137.999 57.3731C137.853 57.4557 137.692 57.5085 137.525 57.5287C137.358 57.5489 137.189 57.536 137.027 57.4907C136.865 57.4455 136.714 57.3688 136.581 57.265C136.448 57.1617 136.336 57.0331 136.252 56.8863C136.168 56.7396 136.115 56.5778 136.094 56.4101C136.073 56.2425 136.086 56.0724 136.131 55.9096C136.176 55.7469 136.253 55.5948 136.358 55.462L142.483 47.63C141.671 46.0061 142.118 43.519 143.761 41.4412C145.801 38.8582 148.876 37.8928 150.66 39.2866C152.444 40.6804 152.226 43.9027 150.2 46.4856Z" fill="#B4E1CD"/>
<defs>
<clipPath id="clip0">
<rect x="16.2529" y="16.2881" width="48.7579" height="48.8649" fill="white"/>
</clipPath>
</defs>
</svg>
