<svg width="41" height="50" viewBox="0 0 41 50" xmlns="http://www.w3.org/2000/svg" xmlns:xlink="http://www.w3.org/1999/xlink"><title>icon-android</title><defs><path id="a" d="M0 .43h41.425V50H0"/><path id="c" d="M0 0h40.625v50H0V0z"/></defs><g fill="none" fill-rule="evenodd"><path d="M-4.813 0h50v50h-50z"/><path d="M27.314 8.45c.87 0 1.45.576 1.45 1.435 0 .862-.58 1.436-1.45 1.436s-1.448-.573-1.448-1.435c0-.86.577-1.434 1.448-1.434zm-13.338 0c.87 0 1.452.576 1.452 1.435 0 .862-.58 1.436-1.452 1.436-.87 0-1.448-.86-1.448-1.435 0-.572.577-1.434 1.448-1.434zM11.366.416l2.32 4.02c-4.35 2.295-7.248 6.6-7.248 11.19h28.125c0-4.878-2.9-8.895-7.25-11.19l2.32-4.02V.128h-.29l-2.32 4.307c-2.318-.862-4.347-1.15-6.376-1.15-2.323 0-4.352.575-6.09 1.15L11.947.128s0-.288-.29 0l-.29.287z" fill="#FFF"/><g transform="translate(.188)"><mask id="b" fill="#fff"><use xlink:href="#a"/></mask><path d="M4.687 20.498V32.63c0 1.654-1.166 3.307-2.33 3.307C.963 35.938.03 34.56.03 32.632V20.5c-.234-1.657.932-3.31 2.328-3.31 1.397 0 2.33 1.377 2.33 3.31z" fill="#FFF" mask="url(#b)"/></g><path d="M38.47 17.188c1.404 0 2.343 1.377 2.343 3.31V32.63c0 1.654-1.174 3.307-2.344 3.307-1.406 0-2.345-1.377-2.345-3.306V20.5c0-1.657 1.173-3.31 2.344-3.31" fill="#FFF"/><g transform="translate(.188)"><mask id="d" fill="#fff"><use xlink:href="#c"/></mask><path d="M6.25 17.188v20.3c0 1.11 1.967 3.137 3.125 3.137H12.5v6.25c0 1.67.708 3.125 2.16 3.125 1.738 0 2.527-1.18 2.527-3.125v-6.25h6.25v6.25c0 1.67.5 3.125 1.95 3.125 1.74 0 2.9-1.18 2.738-3.125v-6.25h3.125c1.16 0 3.125-2.303 3.125-3.138v-20.3H6.25z" fill="#FFF" mask="url(#d)"/></g></g></svg>
