<svg width="40" height="48" viewBox="0 0 40 48" xmlns="http://www.w3.org/2000/svg"><title>icon-ios</title><g fill="none" fill-rule="evenodd"><path d="M-4.063 0h50v50h-50z"/><path d="M32.938 25.94c-.056-5.957 4.862-8.816 5.082-8.963-2.764-4.044-7.067-4.594-8.603-4.66-3.667-.367-7.15 2.16-9.005 2.16-1.86 0-4.727-2.103-7.768-2.05-3.997.056-7.674 2.326-9.732 5.903-4.156 7.194-1.068 17.867 2.976 23.71 1.977 2.86 4.33 6.07 7.427 5.957 2.98-.12 4.108-1.93 7.71-1.93 3.604 0 4.616 1.93 7.77 1.866 3.205-.056 5.237-2.912 7.196-5.78 2.27-3.32 3.207-6.526 3.263-6.69-.065-.03-6.25-2.4-6.315-9.524M27.02 8.457c1.634-1.994 2.746-4.762 2.443-7.518-2.362.09-5.23 1.57-6.93 3.564-1.526 1.765-2.858 4.576-2.5 7.28 2.648.202 5.342-1.342 6.986-3.327" fill="#FFF"/></g></svg>
