<svg width="174" height="50" viewBox="0 0 174 50" xmlns="http://www.w3.org/2000/svg" xmlns:xlink="http://www.w3.org/1999/xlink"><title>Artboard 8</title><defs><path id="a" d="M0 0h50v50H0"/><path id="c" d="M0 0h50v50H0"/></defs><g fill="none" fill-rule="evenodd"><path d="M124 0h50v50h-50z"/><path d="M148.24 0C134.717 0 125 9.91 125 24.766 125 37.99 134.45 50 148.242 50c13.926 0 23.425-12.008 23.425-25.234C171.667 9.792 161.64 0 148.24 0zm-8.736 24.352c0-9.03 1.254-20.28 8.738-20.28s8.918 10.578 8.918 20.28c0 8.425-.736 20.946-8.918 20.946-8.068 0-8.742-12.598-8.738-20.946z" fill="#FFF"/><path d="M63 0h50v50H63z"/><path d="M88 15.625c5.177 0 9.375 4.198 9.375 9.375S93.177 34.375 88 34.375 78.625 30.177 78.625 25s4.198-9.375 9.375-9.375" fill="#FFF"/><g transform="translate(63)"><mask id="b" fill="#fff"><use xlink:href="#a"/></mask><path d="M25.105 13.95h22.55C43.558 5.682 35.026 0 25.162 0 17.178 0 10.065 3.725 5.47 9.528l8.604 14.69c.426-5.724 5.198-10.24 11.033-10.268" fill="#FFF" mask="url(#b)"/></g><path d="M111.22 15.625H94.095c3.03 1.98 5.034 5.414 5.034 9.32 0 1.92-.484 3.726-1.337 5.302l.006.004-11.362 19.694c.546.036 1.097.056 1.653.056C101.85 50 113 38.782 113 24.945c0-3.294-.633-6.44-1.78-9.32" fill="#FFF"/><g transform="translate(63)"><mask id="d" fill="#fff"><use xlink:href="#c"/></mask><path d="M25.37 36.198c-4.865 0-9.01-3.077-10.575-7.384l-10.5-17.876C1.583 14.958 0 19.796 0 25.003 0 37.718 9.436 48.235 21.716 50l8.753-15.016c-1.532.776-3.265 1.214-5.1 1.214" fill="#FFF" mask="url(#d)"/></g><g><path d="M0 0h50v50H0z"/><path d="M47.054 24.885c-.002.033-.006.064-.01.097v.002l-.006.068c0 .015-.003.027-.004.04-.047.424-.103.84-.17 1.252v.002c-.085.068-.173.134-.265.2-.094.07-.184.132-.266.193.06-.377.112-.75.152-1.114l-.045.006c.246-.526.485-1.152.67-1.876.012-.05.025-.102.04-.15-.02.43-.052.86-.096 1.28M43.858 6.243c.028.022.057.047.085.075-.033-.03-.06-.056-.085-.076M43.68 35.75l-.164.256c.096-.172.198-.36.306-.565-.05.112-.095.214-.14.31m-.576.953c.128-.236.262-.46.4-.68-.153.276-.29.504-.4.68m-.12.214c0-.002.003-.002.003-.004l.027-.014-.03.017m-10.327 3.26l-.08.038h-.004c.03-.01.056-.024.084-.038.636-.292 1.25-.643 1.822-1.062-.524.392-1.13.76-1.822 1.062m-3.394 4.193c.016-.085.043-.173.08-.265.694-.13.98-.247 1.017-.26-.043.028-.42.274-1.097.525M15.99 23.91c.04.063.086.128.136.193-.05-.065-.097-.128-.137-.192M10.774 8.926c-.152-.054-.305-.1-.458-.14.7-.196 1.268-.248 1.565-.213 0 .002-.364.03-1.107.353M8.67 8.542c.05-.02.1-.04.15-.058.04.033.078.063.112.088-.098-.013-.186-.022-.263-.03M4.177 6.405c0 .016-.016.016 0 0m-.127.24c-.007.043-.01-.042-.015-.13v-.002l.013-.05.008.155-.005.028m-.022-.248c.002-.008.005-.012.007-.017v.043c0 .005-.002.01-.004.014 0-.015 0-.028-.002-.04M1.284 18.464c-.01.024-.017.05-.022.075-.015.027-.032.054-.05.08l.033-.09c0-.003 0-.004.002-.005.04-.112.08-.22.122-.325-.033.087-.06.176-.086.265M22.86 15.54c.052-.033.137-.097.238-.184v-.002l.017-.01c.03-.025.072-.06.123-.105-.106.103-.214.195-.322.273-.024.017-.072.046-.14.088.038-.026.067-.046.084-.06m.8-.794v-.012l.003-.003c.014-.057.028-.12.042-.19h.002c.017-.087.034-.182.048-.28l.137-.14c.022-.025.043-.05.064-.072-.035.13-.05.224-.062.303l-.003.018c-.005.046-.01.087-.017.125-.073.115-.15.22-.23.317l.016-.064m.307-1.117c.006.016.008.06 0 .122-.002.03-.005.065-.013.105l-.01-.103c-.004-.098 0-.182.023-.125m.14.18c.007.002.016.002.024.002.007 0 .013-.002.02-.003-.008.016-.02.033-.035.052l-.034.044c.01-.033.018-.063.026-.097m23.41 16.694c-.002.01-.006.016-.01.023-.05.092-.1.185-.158.28.053-.1.105-.204.162-.314l.007.01c1.506-2.846 3.245-8.285 1.907-13.125l-.06-.21c-.025-.09-.054-.176-.082-.264 0 0 0-.002-.002-.003.002 0 0-.002 0-.002l-.018-.057-.02-.057c-.014-.045-.03-.09-.045-.134l-.006-.018v.005c-.03.094-.435 1.313-.965 3.1.29-2.683.087-5.48-.847-8.063-.442-1.23-.99-2.253-1.528-3.07l-.004-.006c-.69-1.13-1.45-1.99-2.05-2.408-.007-.004-.01-.01-.014-.01l.037.042c-.038-.03-.06-.05-.066-.055.005.034.056.315.143.788-1.24-1.973-3.097-2.978-3.38-3.124-.004 0-.01-.003-.013-.006l-.038-.025s.102.58.256 1.82c-1.96-1.565-4.325-2.845-7.14-3.62 4.604 3.03 6.317 5.61 7.394 7.904-1.232-1.26-3.33-2.564-4.76-2.677 2.103 1.57 5.618 6.188 5.324 13.185-.95-2.384-2.235-3.37-2.235-3.37 0 .02.002.04.005.06l-.034-.03c.276 2.527.367 4.34.346 5.707 0 .047 0 .095-.003.144-.002.11-.007.22-.01.327-.004.104-.008.203-.014.3-.005.12-.012.238-.02.355-.007.082-.012.163-.02.24-.006.103-.016.203-.028.304-.13 1.217-.364 1.986-.572 2.784-.258-1.107-.6-1.72-.6-1.72l-.008.074c-.007-.016-.014-.03-.02-.047 0 0-.086 2.182-1.502 5.3-.166.364-.333.69-.497.98-.027.047-.055.094-.084.14-.026.047-.053.092-.082.136l-.124.2c-.04.057-.075.113-.114.167-.035.053-.07.104-.107.153-.525.715-1.003 1.075-1.354 1.19-.122.04-.23.05-.317.035-.093-.01-.156-.04-.183-.058l-.017-.01c.03-.313.07-.625-.014-.837 0 0-.453.156-.75.566-.114.17-.27.327-.468.483.01-.023.324-.452.298-.44-.17.143-.37.313-.553.51-.694.723-1.33 1.53-1.657 1.304.297-.1.552-.482.61-.864-.27.198-.964.708-2.522.95-.638.098-3.343.594-6.955-1.22.523-.056 1.316-.24 1.91.114-.594-.65-2.053-.524-3.087-.85-.906-.283-2.082-1.558-2.762-2.195 2.418.592 4.965.293 6.704-.56.093-.048.186-.095.275-.143.166-.09.323-.188.472-.29 1.044-.722 2.513-1.762 3.333-1.845.1 0 .197.01.293.032.906.2 1.515-.708.807-1.53-.708-.82-2.436-1.912-4.773-1.33-1.8.452-3.315 1.883-5.836.89-.156-.055-.31-.126-.467-.21-.157-.086.523.098.353 0-.482-.185-1.36-.582-1.587-.738-.042-.03.37.07.326.042-.48-.285-.858-.557-1.154-.816-.038-.034-.075-.068-.11-.102-.05-.045-.097-.09-.14-.136-.04-.04-.077-.08-.114-.12l-.05-.058c-.018-.02-.034-.037-.05-.057-.856-1.04-.598-2-.45-2.52.132-.47.49-.888.724-1.055.03-.023.058-.04.084-.05.34.126.552.24.552.24s-.156-.24-.255-.37c.027-.013.042-.013.07-.027.283.1.92.327 1.232.497.44.212.58.44.58.44s.1-.072 0-.284c-.042-.1-.197-.37-.622-.624h.014c.227.084.467.198.722.354.085-.383.24-.78.142-1.474-.085-.495-.07-.61-.184-.793-.1-.156.028-.212.184-.085-.043-.127-.1-.24-.156-.368l.002-.007c-.04-.084-.1-.26-.23-.448-.024-.038-.052-.074-.084-.113l-.18-.262c-.073-.09-.148-.178-.216-.29l.008-.013.007-.01c.223.337.448.64.62.9.062.062.106.097.14.107.238-.332 1.05-.87 1.875-1.366.138-.082.275-.164.41-.242-.51.317-1.04.658-1.46.966l-.018.013c-.447.33-.77.617-.804.792.75-.906 3.71-2.28 4.377-2.988.085-.092.155-.172.212-.24-.004.016-.01.03-.014.04.382-.296.552-.58.722-.99.17-.425.37-1.417-.198-1.63-.442-.107-.833-.187-1.52-.185h-.037c-.592-.045-1.39-.064-2.466-.056-1.573.014-2.31-1.36-2.564-1.94l-.014.05-.015-.036C17.93 8.6 18.85 7.156 20.282 5.98c.085-.07-.34.043-.255-.028.1-.085.708-.383.82-.44.143-.084-.664-.297-1.344-.155-.66.135-.808.218-1.136.384h-.002c-.017.01-.034.02-.052.028.004-.005.007-.01.01-.012.154-.155.596-.37.486-.357-.752.17-1.644.665-2.395 1.19 0-.072 0-.128.014-.227-.355.184-1.22.85-1.43 1.345 0-.113 0-.17-.016-.283-.24.227-.48.496-.694.78 0 0 0 .005-.004.01 0 .002-.006.003-.01.003-.708-.174-1.38-.282-2.02-.33-.093-.007-.184-.013-.274-.017-.054 0-.108-.002-.16-.005-.125-.004-.248-.005-.367-.004-.082 0-.165.003-.244.005h-.016l-.22.01c-.067.003-.134.007-.2.012-.788.05-1.52.192-2.2.405-.536-.436-1.328-1.196-1.932-2.17-.01-.016-.02-.02-.027-.013-.007.003-.013.016-.017.03-.02.053-.03.14-.058.11h-.002c-.007.004-.014 0-.024-.015 0 0 0-.003-.003-.004.003-.003.006-.01.007-.015-.377-.682-.683-1.83-.725-2.643l-.014.01c-.01.004-.023.014-.04.027V3.6c0-.01-.003-.02-.003-.028 0 0-.623.354-1.02 1.63-.04.127-.075.223-.106.305-.005.054-.01.108-.01.142.032-.092.07-.188.117-.324.01-.038.022-.078.04-.125-.013.046-.028.088-.04.126-.006.02-.012.04-.016.06v.025c-.037.11-.07.19-.098.273-.003.01-.003-.006 0-.034-.007.01-.01.02-.014.033-.006.017-.003-.047.003-.126l-.045.126c-.008.027.005-.145.013-.264-.05.08-.12.178-.18.284.01-.03.023-.058.037-.085 0-.004 0-.005.003-.007.052-.082.103-.157.14-.22.004-.056.006-.093 0-.08-.07.157-.296.412-.367.695-.043.168-.105.28-.143.452-.003-.063-.006-.11-.012-.083v.003c-.002-.01-.007-.017-.014-.017h-.013l-.014.036c-.004-.033-.01-.052-.014-.037-.185.467-.34 1.005-.483 1.614-.14.675-.277 1.523-.303 2.544v.015c-.055.947-.018 1.653.034 1.79l.01-.01c.003-.002.004-.003.004-.005.03-.028.053-.055.074-.08 0 .02.003.04.006.06-.017.02-.034.04-.05.064-.013.013-.023 0-.033-.038-.608.834-.99 1.54-1.145 1.894C1.358 15.64.608 17.848 0 21.273l.035-.11c.003-.004.005-.01.006-.014l-.02.12s-.002 0-.002.002c0 .01-.004.023-.005.034 0 0 .014-.057.056-.156-.015.043-.015.1-.03.142 0 0 .058-.156.157-.44.01-.052.018-.104.03-.157.19-.497.51-1.252.96-2.07-.582 1.845-1.043 4.68-.763 8.9 0-.014.004-.036.007-.065 0-.004 0-.005.002-.007 0 .033.003.065.006.1 0-.022.005-.064.012-.128.002-.01.002-.018.002-.028v.015c0 .05 0 .09.014.14 0-.056.028-.297.085-.665-.002-.05-.005-.098-.006-.148v-.002c.07-.462.18-1.09.338-1.814.165 2.844.853 6.308 3.054 10.08 1.7 2.903 6.162 9.645 17.366 12.166-.048-.014-.097-.028-.143-.044.06.016.122.03.184.044-.51-.142-.95-.354-1.275-.552-.03-.01-.06-.016-.088-.025-.41-.246-.65-.46-.675-.484.03.008.285.09.7.206l.006.004c1.303.368 4.263 1.12 6.586 1.034l-.07-.014-.036-.01c-.01 0-.022-.004-.035-.006h-.005c-.237-.05-.42-.114-.565-.184-.4-.194-.495-.423-.495-.423s.12.007.337.012l.017.015c1.543.043 8.894.1 12.93-3.088 1.007-.75 1.66-1.63 1.87-2.422 0 0-.005.006-.02.013.003-.006.004-.01.004-.017-.01.008-.02.014-.04.02-.068.03-.192.09-.382.178.14-.067.28-.138.423-.213l-.004-.044-.007-.105h-.015l.07-.037c-.007.044-.016.088-.026.132l-.007.03.003.018.003.013s-.003.005-.013.01v.005c.467-.24.935-.524 1.416-.85.83-.562 1.78-1.28 2.67-2.14.16-.154.316-.313.47-.476l.023-.025c.014-.016.03-.03.044-.047.082-.088.164-.178.245-.27l.03-.036c.102-.116.204-.23.3-.35.417-.504.742-.997.997-1.458l.037-.067.035-.067.01-.017c.004-.007.008-.012.01-.02.538-.997.897-2.11.964-3.342-.02.287-.087.57-.194.846-.018.05-.038.098-.06.146.028-.08.053-.158.076-.236.27-.927.245-1.754-.095-2.322" fill="#FFF"/></g></g></svg>
