<svg xmlns="http://www.w3.org/2000/svg" width="212" height="212" viewBox="0 0 212 212">
  <g fill="none" fill-rule="evenodd" transform="translate(22 26)">
    <path fill="#FF6F57" d="M29.9996,115.5452 L29.9996,46.7812 C29.9996,44.7812 31.0676,42.9312 32.7996,41.9312 L97.1996,4.7512 C98.9316,3.7512 101.0676,3.7512 102.7996,4.7512 L167.1996,41.9312 C168.9316,42.9312 169.9996,44.7812 169.9996,46.7812 L169.9996,115.5452 C169.9996,117.5452 168.9316,119.3952 167.1996,120.3952 L102.7996,157.5752 C101.0676,158.5772 98.9316,158.5772 97.1996,157.5752 L32.7996,120.3952 C31.0676,119.3952 29.9996,117.5452 29.9996,115.5452"/>
    <path stroke="#1E2126" stroke-linecap="round" stroke-linejoin="round" stroke-width="4" d="M29.9996,115.5452 L29.9996,46.7812 C29.9996,44.7812 31.0676,42.9312 32.7996,41.9312 L97.1996,4.7512 C98.9316,3.7512 101.0676,3.7512 102.7996,4.7512 L167.1996,41.9312 C168.9316,42.9312 169.9996,44.7812 169.9996,46.7812 L169.9996,115.5452 C169.9996,117.5452 168.9316,119.3952 167.1996,120.3952 L102.7996,157.5752 C101.0676,158.5772 98.9316,158.5772 97.1996,157.5752 L32.7996,120.3952 C31.0676,119.3952 29.9996,117.5452 29.9996,115.5452 Z"/>
    <path fill="#F3F8FF" d="M1.9996,111.5452 L1.9996,42.7812 C1.9996,40.7812 3.0676,38.9312 4.7996,37.9312 L69.1996,0.7512 C70.9316,-0.2488 73.0676,-0.2488 74.7996,0.7512 L139.1996,37.9312 C140.9316,38.9312 141.9996,40.7812 141.9996,42.7812 L141.9996,111.5452 C141.9996,113.5452 140.9316,115.3952 139.1996,116.3952 L74.7996,153.5752 C73.0676,154.5772 70.9316,154.5772 69.1996,153.5752 L4.7996,116.3952 C3.0676,115.3952 1.9996,113.5452 1.9996,111.5452"/>
    <path fill="#C9D2F0" d="M68.0094,137.6214 C57.5834,131.6154 29.6214,115.4794 19.1934,109.4614 C16.7174,108.0334 15.2014,105.3974 15.2014,102.5374 L15.2014,51.7894 C15.2014,48.9294 16.7254,46.2894 19.2014,44.8594 L67.8874,16.7494 C70.3594,15.3234 73.4034,15.3214 75.8754,16.7434 L124.7874,44.8634 C127.2694,46.2894 128.8014,48.9354 128.8014,51.7994 L128.8014,102.5354 C128.8014,105.3954 127.2734,108.0374 124.7974,109.4674 L75.9894,137.6134 C73.5174,139.0394 70.4814,139.0454 68.0094,137.6214"/>
    <path stroke="#1E2126" stroke-linecap="round" stroke-linejoin="round" stroke-width="4" d="M112.2642 131.9456L110.0142 133.2436M100.0006 139.0256L74.8006 153.5736C73.0666 154.5756 70.9326 154.5756 69.2006 153.5736L4.8006 116.3956C3.0666 115.3956 1.9986 113.5456 1.9986 111.5456L1.9986 42.7816C1.9986 40.7816 3.0666 38.9316 4.8006 37.9316L69.2006.7496C70.9326-.2504 73.0666-.2504 74.8006.7496L139.2006 37.9316C140.9326 38.9316 142.0006 40.7816 142.0006 42.7816L142.0006 111.5456C142.0006 113.5456 140.9326 115.3956 139.2006 116.3956L118.8726 128.1316"/>
    <path fill="#FFD671" d="M113.5718,51.0236 L79.4718,73.4176 C78.8818,73.8056 78.4058,74.3416 78.0918,74.9736 L72.8918,85.4016 C72.5258,86.1396 71.4758,86.1396 71.1078,85.4016 L65.9078,74.9736 C65.5938,74.3416 65.1178,73.8056 64.5298,73.4176 L30.4278,51.0236 C29.5718,50.4636 28.5278,51.3976 28.9918,52.3116 L43.1298,80.0636 C43.4678,80.7256 42.9878,81.5116 42.2418,81.5116 L33.7798,81.5116 C32.8118,81.5116 32.4118,82.7536 33.1998,83.3176 L71.4198,110.6996 C71.7658,110.9476 72.2338,110.9476 72.5798,110.6996 L110.7998,83.3176 C111.5878,82.7536 111.1898,81.5116 110.2198,81.5116 L101.7578,81.5116 C101.0138,81.5116 100.5318,80.7256 100.8698,80.0636 L115.0078,52.3116 C115.4718,51.3976 114.4278,50.4636 113.5718,51.0236"/>
    <path stroke="#1E2126" stroke-linecap="round" stroke-linejoin="round" stroke-width="4" d="M113.5718,51.0236 L79.4718,73.4176 C78.8818,73.8056 78.4058,74.3416 78.0918,74.9736 L72.8918,85.4016 C72.5258,86.1396 71.4758,86.1396 71.1078,85.4016 L65.9078,74.9736 C65.5938,74.3416 65.1178,73.8056 64.5298,73.4176 L30.4278,51.0236 C29.5718,50.4636 28.5278,51.3976 28.9918,52.3116 L43.1298,80.0636 C43.4678,80.7256 42.9878,81.5116 42.2418,81.5116 L33.7798,81.5116 C32.8118,81.5116 32.4118,82.7536 33.1998,83.3176 L71.4198,110.6996 C71.7658,110.9476 72.2338,110.9476 72.5798,110.6996 L110.7998,83.3176 C111.5878,82.7536 111.1898,81.5116 110.2198,81.5116 L101.7578,81.5116 C101.0138,81.5116 100.5318,80.7256 100.8698,80.0636 L115.0078,52.3116 C115.4718,51.3976 114.4278,50.4636 113.5718,51.0236 Z"/>
  </g>
</svg>
