<svg xmlns="http://www.w3.org/2000/svg" width="212" height="212" viewBox="0 0 212 212">
  <g fill="none" fill-rule="evenodd" transform="translate(20 30)">
    <path fill="#FFD671" d="M49.6078,76.7684 C38.7958,72.5784 33.4258,60.4204 37.6138,49.6084 C41.8018,38.7964 53.9618,33.4244 64.7738,37.6144 C75.5858,41.8024 80.9558,53.9624 76.7678,64.7744 C72.5798,75.5844 60.4198,80.9564 49.6078,76.7684 L49.6078,76.7684 Z M106.0018,88.5364 C108.0658,85.3144 109.8398,81.8444 111.2738,78.1404 C112.7098,74.4344 113.7358,70.6724 114.3818,66.9024 L105.1358,63.3204 C105.7638,58.4404 105.6358,53.5624 104.8038,48.8444 L113.8578,44.8464 C112.1898,37.2204 108.9978,29.9924 104.4858,23.6244 L95.4318,27.6224 C92.5038,23.8284 88.9858,20.4504 84.9558,17.6264 L88.5358,8.3804 C85.3158,6.3144 81.8438,4.5424 78.1398,3.1064 C74.4358,1.6704 70.6738,0.6424 66.9018,0.0004 L63.3218,9.2464 C58.4418,8.6184 53.5658,8.7464 48.8458,9.5764 L44.8478,0.5244 C37.2198,2.1924 29.9938,5.3844 23.6238,9.8944 L27.6218,18.9504 C23.8278,21.8784 20.4498,25.3944 17.6258,29.4264 L8.3798,25.8444 C6.3158,29.0644 4.5418,32.5364 3.1058,36.2404 C1.6718,39.9464 0.6458,43.7084 -0.0002,47.4784 L9.2458,51.0604 C8.6178,55.9404 8.7458,60.8164 9.5778,65.5364 L0.5238,69.5344 C2.1918,77.1604 5.3838,84.3884 9.8958,90.7564 L18.9498,86.7584 C21.8778,90.5524 25.3958,93.9324 29.4258,96.7544 L25.8438,106.0004 C29.0658,108.0644 32.5358,109.8404 36.2418,111.2764 C39.9458,112.7104 43.7078,113.7364 47.4798,114.3824 L51.0598,105.1364 C55.9418,105.7624 60.8158,105.6364 65.5358,104.8044 L69.5338,113.8584 C77.1598,112.1884 84.3878,108.9964 90.7578,104.4844 L86.7598,95.4304 C90.5518,92.5024 93.9318,88.9844 96.7558,84.9564 L106.0018,88.5364 Z"/>
    <path stroke="#1E2126" stroke-linecap="round" stroke-linejoin="round" stroke-width="4" d="M3.8968,34.3036 C3.8088,34.5076 3.7228,34.7136 3.6368,34.9196 M1.5628,40.7616 C0.9028,42.9916 0.3848,45.2336 0.0008,47.4796 L9.2468,51.0596 C8.6188,55.9396 8.7468,60.8176 9.5788,65.5356 L0.5228,69.5336 C2.1908,77.1616 5.3828,84.3876 9.8968,90.7576 L18.9508,86.7596 C21.8788,90.5516 25.3968,93.9316 29.4268,96.7556 L25.8448,106.0016 C29.0648,108.0656 32.5368,109.8416 36.2408,111.2756 C39.9468,112.7096 43.7088,113.7376 47.4788,114.3816 L51.0608,105.1356 C55.9408,105.7616 60.8168,105.6356 65.5368,104.8036 L69.5348,113.8576 C77.1608,112.1876 84.3868,108.9976 90.7568,104.4856 L86.7588,95.4296 C90.5528,92.5036 93.9328,88.9856 96.7548,84.9556 L106.0008,88.5356 C108.0648,85.3156 109.8408,81.8456 111.2748,78.1396 C112.7108,74.4336 113.7368,70.6736 114.3808,66.9036 L105.1348,63.3216 C105.7628,58.4396 105.6348,53.5636 104.8028,48.8456 L113.8568,44.8456 C112.1888,37.2196 108.9968,29.9936 104.4848,23.6236 L95.4308,27.6216 C92.5028,23.8296 88.9848,20.4496 84.9548,17.6256 L88.5368,8.3796 C85.3148,6.3156 81.8448,4.5416 78.1388,3.1056 C74.4348,1.6716 70.6728,0.6436 66.9028,0.0016 L63.3208,9.2476 C58.4408,8.6176 53.5648,8.7476 48.8448,9.5776 L44.8468,0.5236 C37.2208,2.1916 29.9948,5.3836 23.6228,9.8956 L27.6228,18.9496 C23.8288,21.8776 20.4488,25.3956 17.6248,29.4276 L8.3788,25.8456 C7.6288,27.0156 6.9148,28.2236 6.2428,29.4616"/>
    <path fill="#FFAD45" d="M50.2464,75.118 C40.3444,71.282 35.4284,60.148 39.2624,50.246 C43.0984,40.344 54.2344,35.428 64.1344,39.262 C74.0364,43.098 78.9544,54.234 75.1184,64.134 C71.2844,74.036 60.1484,78.954 50.2464,75.118 M69.1064,26.426 C52.1164,19.844 33.0064,28.284 26.4264,45.274 C19.8444,62.264 28.2844,81.374 45.2744,87.954 C62.2644,94.536 81.3724,86.096 87.9544,69.106 C94.5364,52.116 86.0964,33.006 69.1064,26.426"/>
    <path stroke="#1E2126" stroke-linecap="round" stroke-linejoin="round" stroke-width="4" d="M49.969,75.8348 C39.671,71.8468 34.557,60.2668 38.545,49.9688 C42.535,39.6708 54.115,34.5568 64.413,38.5448 C74.709,42.5348 79.823,54.1148 75.835,64.4128 C71.847,74.7108 60.265,79.8228 49.969,75.8348 Z"/>
    <path fill="#7289DA" d="M126.2318,127.3094 C121.6718,121.7654 122.4718,113.5734 128.0198,109.0134 C133.5658,104.4534 141.7578,105.2554 146.3158,110.7994 C150.8758,116.3474 150.0738,124.5374 144.5278,129.0974 C138.9818,133.6574 130.7898,132.8554 126.2318,127.3094 L126.2318,127.3094 Z M163.2998,120.6154 C163.5298,116.6394 162.9178,112.6054 161.3758,108.8254 L167.1018,104.1174 L156.8938,91.6994 L151.1678,96.4074 C147.7558,94.1614 143.9178,92.7814 139.9718,92.2394 L138.7518,84.8894 L122.8938,87.5194 L124.1098,94.8534 C122.3498,95.7414 120.6498,96.8154 119.0638,98.1194 C117.4778,99.4254 116.0938,100.8834 114.8838,102.4374 L107.9238,99.8254 L102.2738,114.8754 L109.2478,117.4954 C109.0178,121.4714 109.6298,125.5054 111.1718,129.2854 L105.4458,133.9914 L115.6538,146.4114 L121.3798,141.7034 C124.7898,143.9474 128.6278,145.3294 132.5758,145.8714 L133.7958,153.2214 L149.6538,150.5914 L148.4378,143.2574 C150.1978,142.3694 151.8958,141.2954 153.4818,139.9914 C155.0698,138.6854 156.4518,137.2274 157.6638,135.6734 L164.6218,138.2834 L170.2738,123.2354 L163.2998,120.6154 Z"/>
    <path stroke="#1E2126" stroke-linecap="round" stroke-linejoin="round" stroke-width="4" d="M144.5286,129.0966 C138.9826,133.6566 130.7906,132.8566 126.2326,127.3086 C121.6726,121.7646 122.4726,113.5726 128.0186,109.0126 C133.5646,104.4546 141.7566,105.2546 146.3166,110.8006 C149.0486,114.1266 149.8566,118.4006 148.8686,122.2766 L144.5286,129.0966 Z M163.2986,120.6166 C163.5286,116.6386 162.9186,112.6066 161.3766,108.8246 L167.1026,104.1186 L156.8926,91.7006 L151.1666,96.4066 C147.7566,94.1606 143.9186,92.7826 139.9706,92.2386 L138.7526,84.8886 L122.8926,87.5206 L124.1106,94.8546 C122.3486,95.7406 120.6506,96.8146 119.0646,98.1206 C117.4766,99.4246 116.0946,100.8846 114.8826,102.4386 L107.9246,99.8246 L102.2746,114.8766 L109.2466,117.4946 C109.0166,121.4706 109.6286,125.5046 111.1706,129.2866 L105.4446,133.9906 L115.6526,146.4106 L121.3786,141.7046 C124.7906,143.9486 128.6286,145.3286 132.5746,145.8726 L133.7946,153.2226 L149.6546,150.5906 L148.4366,143.2566 C150.1966,142.3706 151.8966,141.2966 153.4826,139.9906 C155.0706,138.6866 156.4526,137.2266 157.6626,135.6726 L164.6226,138.2846 L170.2746,123.2346 L163.2986,120.6166 Z"/>
    <path stroke="#D5DBED" stroke-linecap="round" stroke-linejoin="round" stroke-width="2" d="M154.6742 39.5244L152.6862 41.9984M144.6702 49.8602L142.6822 52.3342M155.0834 52.0204L152.9374 49.6504M144.4192 42.208L142.2732 39.838M129.0706 5.6922L129.0706 16.0982M134.2738 10.8954L123.8658 10.8954"/>
  </g>
</svg>
