<?xml version="1.0" encoding="utf-8"?>
<!-- Generator: Adobe Illustrator 22.1.0, SVG Export Plug-In . SVG Version: 6.00 Build 0)  -->
<svg version="1.1" id="Layer_1" xmlns="http://www.w3.org/2000/svg" xmlns:xlink="http://www.w3.org/1999/xlink" x="0px" y="0px"
	 viewBox="0 0 212 212" style="enable-background:new 0 0 212 212;" xml:space="preserve">
<style type="text/css">
	.st0{fill:#7289DA;}
	.st1{fill:#1E2126;}
	.st2{fill:#FFFFFF;}
	.st3{fill:#C9D2F0;}
	.st4{fill:#D5DBED;}
</style>
<g>
	<g>
		<path class="st0" d="M153.7,160H47.1c-9,0-16.4-7.3-16.4-16.4V37.1c0-9,7.3-16.4,16.4-16.4h106.6c9,0,16.4,7.3,16.4,16.4v106.6
			C170,152.7,162.7,160,153.7,160z"/>
	</g>
	<g>
		<path class="st1" d="M153.7,162H47.1c-10.1,0-18.4-8.2-18.4-18.4V37.1c0-10.1,8.2-18.4,18.4-18.4h106.6c10.1,0,18.4,8.2,18.4,18.4
			v106.6C172,153.8,163.8,162,153.7,162z M47.1,22.7c-7.9,0-14.4,6.5-14.4,14.4v106.6c0,7.9,6.5,14.4,14.4,14.4h106.6
			c7.9,0,14.4-6.5,14.4-14.4V37.1c0-7.9-6.5-14.4-14.4-14.4H47.1z"/>
	</g>
	<g>
		<rect x="58.7" y="60.3" class="st2" width="110.1" height="85.1"/>
	</g>
	<g>
		<g>
			<path class="st1" d="M129.4,99.2c-4.5,0-8.2,3.9-8.2,8.8c0,4.9,3.7,8.8,8.2,8.8c4.5,0,8.2-3.9,8.2-8.8
				C137.6,103.2,134,99.2,129.4,99.2z"/>
		</g>
		<g>
			<path class="st1" d="M100.3,99.2c-4.5,0-8.2,3.9-8.2,8.8c0,4.9,3.7,8.8,8.2,8.8c4.5,0,8.2-3.9,8.2-8.8
				C108.5,103.2,104.8,99.2,100.3,99.2z"/>
		</g>
		<g>
			<path class="st3" d="M168.4,32.7H61.1c-9,0-16.4,7.3-16.4,16.4v107.2c0,9,7.3,16.4,16.4,16.4h90.7l-4.2-14.7l10.2,9.4l9.6,8.9
				l17.3,15v-35v-8V49C184.7,40,177.4,32.7,168.4,32.7z M137.5,136.3c0,0-2.9-3.4-5.2-6.4c10.5-2.9,14.5-9.4,14.5-9.4
				c-3.3,2.1-6.4,3.6-9.2,4.7c-4,1.6-7.9,2.8-11.6,3.4c-7.7,1.4-14.7,1.1-20.7,0c-4.5-0.8-8.5-2.1-11.7-3.4
				c-1.8-0.7-3.8-1.6-5.9-2.7c-0.3-0.1-0.5-0.3-0.7-0.4c-0.1-0.1-0.2-0.1-0.4-0.2c-1.4-0.8-2.2-1.4-2.2-1.4s3.8,6.3,14,9.3
				c-2.4,3-5.3,6.6-5.3,6.6c-17.7-0.5-24.4-12.1-24.4-12.1C68.4,98.7,79.9,78,79.9,78c11.5-8.6,22.4-8.3,22.4-8.3l0.8,0.9
				c-14.4,4.1-21,10.4-21,10.4s1.7-1,4.8-2.3c8.6-3.7,15.4-4.7,18.2-5c0.4-0.1,0.9-0.1,1.3-0.2c4.9-0.6,10.4-0.8,16.2-0.1
				c7.6,0.9,15.8,3.1,24.1,7.6c0,0-6.3-6-19.9-10.1l1.1-1.3c0,0,10.9-0.3,22.4,8.3c0,0,11.5,20.7,11.5,46.2
				C161.9,124.2,155.1,135.8,137.5,136.3z"/>
		</g>
		<g>
			<path class="st1" d="M184.7,193.3c-0.5,0-0.9-0.2-1.3-0.5l-17.3-15l-14.6-13.5l2.2,7.8c0.2,0.6,0.1,1.3-0.3,1.8
				c-0.4,0.5-1,0.8-1.6,0.8H61.1c-10.1,0-18.4-8.2-18.4-18.4V49.1c0-10.1,8.2-18.4,18.4-18.4h107.2c10.1,0,18.4,8.2,18.4,18.4v142.3
				c0,0.8-0.5,1.5-1.2,1.8C185.3,193.3,185,193.3,184.7,193.3z M147.6,156c0.5,0,1,0.2,1.4,0.5l19.9,18.3l13.9,12.1V49
				c0-7.9-6.4-14.4-14.4-14.4H61.1c-7.9,0-14.4,6.5-14.4,14.4v107.2c0,7.9,6.4,14.4,14.4,14.4h88.1l-3.5-12.1
				c-0.2-0.9,0.1-1.8,0.9-2.3C146.9,156.1,147.2,156,147.6,156z"/>
		</g>
	</g>
	<g>
		<path class="st1" d="M128,69.6c1.2,0,11.5,0.2,22.3,8.3c0,0,11.5,20.7,11.5,46.2c0,0-6.8,11.6-24.4,12.1c0,0-2.9-3.4-5.2-6.4
			c10.5-2.9,14.5-9.4,14.5-9.4c-3.3,2.1-6.4,3.6-9.2,4.7c-4,1.6-7.9,2.8-11.6,3.4c-3.5,0.7-6.9,0.9-10.2,0.9c-3.8,0-7.3-0.4-10.5-1
			c-4.5-0.8-8.5-2.1-11.7-3.4c-1.8-0.7-3.8-1.6-5.9-2.7c-0.3-0.1-0.5-0.3-0.7-0.4c-0.1-0.1-0.2-0.1-0.4-0.2
			c-1.4-0.8-2.2-1.4-2.2-1.4s3.8,6.3,14,9.3c-2.4,3-5.3,6.6-5.3,6.6c-17.7-0.5-24.4-12.1-24.4-12.1C68.4,98.7,79.9,78,79.9,78
			c10.8-8.1,21.1-8.3,22.3-8.3c0.1,0,0.1,0,0.1,0l0.8,0.9c-14.4,4.1-21,10.4-21,10.4s1.7-1,4.8-2.3c8.6-3.7,15.4-4.7,18.2-5
			c0.4-0.1,0.9-0.1,1.3-0.2c2.8-0.3,5.7-0.6,8.8-0.6c2.4,0,4.9,0.1,7.4,0.4c7.6,0.9,15.8,3.1,24.1,7.6c0,0-6.3-6-19.9-10.1l1.1-1.3
			C127.9,69.6,128,69.6,128,69.6 M128,65.6l-0.2,0c-1.1,0-2.2,0.5-2.9,1.4l-1.1,1.3c-0.3,0.3-0.5,0.7-0.7,1.1c0,0,0,0,0,0
			c-2.6-0.3-5.2-0.4-7.9-0.4c-2.7,0-5.4,0.2-8.2,0.5c-0.2-0.5-0.4-1.1-0.8-1.5l-0.8-0.9c-0.7-0.8-1.8-1.3-2.9-1.3l-0.2,0
			c-2.1,0-13.1,0.4-24.7,9.1c-0.5,0.3-0.8,0.8-1.1,1.3c-0.5,0.9-12,21.9-12,48.2c0,0.7,0.2,1.4,0.5,2c0.3,0.6,8.1,13.5,27.8,14.1
			c0,0,0.1,0,0.1,0c1.2,0,2.3-0.5,3.1-1.4c0,0,3-3.6,5.4-6.6c0.1-0.1,0.2-0.2,0.3-0.4c0.9,0.2,1.9,0.4,2.8,0.6c3.7,0.7,7.5,1,11.3,1
			c3.7,0,7.3-0.3,10.9-1c0.8-0.1,1.5-0.3,2.3-0.5c0.1,0.1,0.1,0.2,0.2,0.3c2.4,3,5.3,6.5,5.3,6.5c0.8,0.9,1.9,1.4,3.1,1.4
			c0,0,0.1,0,0.1,0c19.7-0.6,27.4-13.5,27.8-14.1c0.4-0.6,0.5-1.3,0.5-2c0-26.3-11.5-47.3-12-48.2c-0.3-0.5-0.7-0.9-1.1-1.3
			C141.1,66.1,130.1,65.6,128,65.6L128,65.6z"/>
	</g>
	<g>
		<g>
			<g>
				<path class="st4" d="M206.4,67.7c-0.2,0-0.4-0.1-0.6-0.2c-0.4-0.3-0.5-1-0.2-1.4l2-2.5c0.3-0.4,1-0.5,1.4-0.2
					c0.4,0.3,0.5,1,0.2,1.4l-2,2.5C207,67.6,206.7,67.7,206.4,67.7z"/>
			</g>
			<g>
				<path class="st4" d="M196.4,78.1c-0.2,0-0.4-0.1-0.6-0.2c-0.4-0.3-0.5-1-0.2-1.4l2-2.5c0.3-0.4,1-0.5,1.4-0.2
					c0.4,0.3,0.5,1,0.2,1.4l-2,2.5C197,78,196.7,78.1,196.4,78.1z"/>
			</g>
			<g>
				<path class="st4" d="M208.8,77.8c-0.3,0-0.5-0.1-0.7-0.3l-2.1-2.4c-0.4-0.4-0.3-1,0.1-1.4c0.4-0.4,1-0.3,1.4,0.1l2.1,2.4
					c0.4,0.4,0.3,1-0.1,1.4C209.3,77.7,209.1,77.8,208.8,77.8z"/>
			</g>
			<g>
				<path class="st4" d="M198.2,68c-0.3,0-0.5-0.1-0.7-0.3l-2.1-2.4c-0.4-0.4-0.3-1,0.1-1.4c0.4-0.4,1-0.3,1.4,0.1l2.1,2.4
					c0.4,0.4,0.3,1-0.1,1.4C198.6,67.9,198.4,68,198.2,68z"/>
			</g>
		</g>
		<g>
			<g>
				<path class="st4" d="M15.7,130.3c-0.6,0-1-0.4-1-1v-10.4c0-0.6,0.4-1,1-1s1,0.4,1,1v10.4C16.7,129.8,16.3,130.3,15.7,130.3z"/>
			</g>
			<g>
				<path class="st4" d="M20.9,125.1H10.5c-0.6,0-1-0.4-1-1s0.4-1,1-1h10.4c0.6,0,1,0.4,1,1S21.5,125.1,20.9,125.1z"/>
			</g>
		</g>
	</g>
	<g>
		<path class="st4" d="M8.9,109.2c-3.9,0-7-3.1-7-7s3.1-7,7-7s7,3.1,7,7S12.8,109.2,8.9,109.2z M8.9,97.2c-2.8,0-5,2.2-5,5
			s2.2,5,5,5s5-2.2,5-5S11.7,97.2,8.9,97.2z"/>
	</g>
</g>
</svg>
