<svg xmlns="http://www.w3.org/2000/svg" width="212" height="212" viewBox="0 0 212 212">
  <g fill="none" fill-rule="evenodd" transform="translate(24 32)">
    <path stroke="#1E2126" stroke-linecap="round" stroke-linejoin="round" stroke-width="4" d="M134.8488,134.8484 L92.6788,92.6784"/>
    <g transform="translate(0 1.371)">
      <path fill="#FFD671" d="M104.4268,18.202 C127.8568,41.634 127.8568,79.624 104.4268,103.056 C80.9948,126.488 43.0048,126.488 19.5728,103.056 C-3.8592,79.624 -3.8592,41.634 19.5728,18.202 C43.0048,-5.23 80.9948,-5.23 104.4268,18.202"/>
      <path stroke="#1E2126" stroke-linecap="round" stroke-linejoin="round" stroke-width="4" d="M104.4268,18.202 C127.8568,41.634 127.8568,79.624 104.4268,103.056 C80.9948,126.488 43.0048,126.488 19.5728,103.056 C-3.8592,79.624 -3.8592,41.634 19.5728,18.202 C43.0048,-5.23 80.9948,-5.23 104.4268,18.202 Z"/>
      <path fill="#FFFFFF" d="M93.8194,28.8094 C111.3934,46.3834 111.3934,74.8754 93.8194,92.4474 C76.2454,110.0214 47.7534,110.0214 30.1794,92.4474 C12.6074,74.8754 12.6074,46.3834 30.1794,28.8094 C47.7534,11.2354 76.2454,11.2354 93.8194,28.8094"/>
      <path stroke="#1E2126" stroke-linecap="round" stroke-linejoin="round" stroke-width="4" d="M18.2804 71.3152C14.6884 56.5552 18.6544 40.3352 30.1804 28.8092 47.7544 11.2352 76.2464 11.2352 93.8204 28.8092 111.3944 46.3832 111.3944 74.8752 93.8204 92.4472 79.6924 106.5772 58.5064 109.3472 41.6104 100.7592M30.1798 92.448C28.6518 90.92 27.2578 89.312 25.9958 87.634"/>
      <path fill="#FF6F57" d="M146.1622,144.7918 L146.1622,144.7918 C141.8842,149.0698 134.8842,149.0698 130.6062,144.7918 L115.0502,129.2358 C110.7722,124.9578 110.7722,117.9558 115.0502,113.6778 C119.3282,109.4018 126.3282,109.4018 130.6062,113.6778 L146.1622,129.2358 C150.4402,133.5118 150.4402,140.5138 146.1622,144.7918"/>
      <path stroke="#1E2126" stroke-linecap="round" stroke-linejoin="round" stroke-width="4" d="M146.1622,144.7918 L146.1622,144.7918 C141.8842,149.0698 134.8842,149.0698 130.6062,144.7918 L115.0502,129.2358 C110.7722,124.9578 110.7722,117.9558 115.0502,113.6778 C119.3282,109.4018 126.3282,109.4018 130.6062,113.6778 L146.1622,129.2358 C150.4402,133.5118 150.4402,140.5138 146.1622,144.7918 Z"/>
      <path fill="#7289DA" d="M62.8908,74.7996 C67.6388,74.7996 71.0968,79.5316 68.3068,85.1836 C68.1688,85.4676 67.9568,85.7236 67.7028,85.9096 C62.2648,89.9236 56.4748,86.3136 56.4748,81.2136 C56.4748,77.4796 59.3188,74.7996 62.8908,74.7996 L62.8908,74.7996 Z M49.0128,43.5436 C48.1368,42.8056 48.0308,41.4776 48.7968,40.6236 C53.2648,35.6376 58.6168,33.6296 63.7028,33.6296 C85.3168,33.6296 89.5888,62.4816 69.5928,66.6796 C68.7748,66.8516 68.1528,67.5216 68.0208,68.3476 L67.7128,70.2836 C67.5548,71.2756 66.6988,72.0076 65.6928,72.0076 L59.5428,72.0076 C58.4608,72.0076 57.5648,71.1616 57.5028,70.0796 L57.0308,61.8676 C56.9568,60.5936 58.0568,59.5816 59.3248,59.7236 C60.4908,59.8556 61.4188,59.8556 61.9168,59.8556 C73.2848,59.8556 73.6888,43.2916 61.6728,44.3456 C59.6608,44.5416 57.6488,45.3596 55.9688,47.0076 C55.2188,47.7416 54.0328,47.7836 53.2308,47.1056 L49.0128,43.5436 Z"/>
      <path stroke="#D5DBED" stroke-linecap="round" stroke-linejoin="round" stroke-width="2" d="M164.0372 87.1648L162.0492 89.6388M154.0334 97.5008L152.0454 99.9748M164.4464 99.661L162.3004 97.291M153.7824 89.8484L151.6364 87.4784M146.4338 51.995L146.4338 62.401M151.6368 57.198L141.2288 57.198M85.383 139.4774C85.383 142.7914 82.697 145.4774 79.383 145.4774 76.069 145.4774 73.383 142.7914 73.383 139.4774 73.383 136.1654 76.069 133.4774 79.383 133.4774 82.697 133.4774 85.383 136.1654 85.383 139.4774z"/>
    </g>
  </g>
</svg>
