<svg xmlns="http://www.w3.org/2000/svg" width="212" height="212" viewBox="0 0 212 212">
  <g fill="none" fill-rule="evenodd" transform="translate(5 30)">
    <path stroke="#D5DBED" stroke-linecap="round" stroke-linejoin="round" stroke-width="2" d="M94.9956 24.5806L93.0076 27.0546M104.9918 34.9164L103.0038 37.3904M115.4048 37.0766L113.2588 34.7066M84.7408 27.2642L82.5948 24.8942"/>
    <g transform="translate(0 .57)">
      <path fill="#7289DA" d="M179.066,81.9154 L179.066,49.4954 L198,34.1334 L179.066,18.7734 L179.066,4.4314 C179.066,2.2214 177.274,0.4314 175.066,0.4314 L52.618,0.4314 C50.408,0.4314 48.618,2.2214 48.618,4.4314 L48.618,82.3454 C48.618,84.3174 50.216,85.9154 52.188,85.9154 L175.066,85.9154 C177.274,85.9154 179.066,84.1234 179.066,81.9154"/>
      <path stroke="#1E2126" stroke-linecap="round" stroke-linejoin="round" stroke-width="4" d="M81.686.431L52.618.431C50.408.431 48.618 2.223 48.618 4.431L48.618 82.345C48.618 84.317 50.216 85.915 52.188 85.915L122.544 85.915M92.2466.431L90.7626.431M127.941 85.9154L175.065 85.9154C177.275 85.9154 179.065 84.1234 179.065 81.9154L179.065 49.4954 197.999 34.1334 179.065 18.7734 179.065 4.4314C179.065 2.2214 177.275.4314 175.065.4314L107.885.4314M71.395 21.6556L158.785 21.6556M71.395 39.308L158.785 39.308M71.395 56.9604L158.785 56.9604"/>
      <path fill="#F3F8FF" d="M135.984,71.6616 L149.044,71.6616 C151.254,71.6616 153.044,73.4536 153.044,75.6616 L153.044,147.9996 C153.044,150.2076 151.254,151.9996 149.044,151.9996 L22.934,151.9996 C20.726,151.9996 18.934,150.2076 18.934,147.9996 L18.934,122.7256 L0,107.3656 L18.934,92.0036 L18.934,75.6616 C18.934,73.4536 20.726,71.6616 22.934,71.6616 L40.922,71.6616 L135.984,71.6616 Z"/>
      <path stroke="#1E2126" stroke-linecap="round" stroke-linejoin="round" stroke-width="4" d="M43.1684 151.9994L22.9344 151.9994C20.7244 151.9994 18.9344 150.2074 18.9344 147.9994L18.9344 122.7254.0004 107.3654 18.9344 92.0034 18.9344 75.6614C18.9344 73.4534 20.7244 71.6614 22.9344 71.6614L64.6184 71.6614M99.687 71.6616L149.475 71.6616C151.445 71.6616 153.045 73.2596 153.045 75.2316L153.045 147.9996C153.045 150.2076 151.253 151.9996 149.045 151.9996L53.729 151.9996"/>
      <path fill="#FFD671" d="M135.3346,86.1128 C135.3346,113.7188 112.9566,136.0948 85.3506,136.0948 C57.7446,136.0948 35.3666,113.7188 35.3666,86.1128 C35.3666,58.5068 57.7446,36.1288 85.3506,36.1288 C112.9566,36.1288 135.3346,58.5068 135.3346,86.1128"/>
      <path stroke="#1E2126" stroke-linecap="round" stroke-linejoin="round" stroke-width="4" d="M135.3346,86.1128 C135.3346,113.7188 112.9566,136.0948 85.3506,136.0948 C57.7446,136.0948 35.3666,113.7188 35.3666,86.1128 C35.3666,58.5068 57.7446,36.1288 85.3506,36.1288 C112.9566,36.1288 135.3346,58.5068 135.3346,86.1128 Z"/>
      <path stroke="#1E2126" stroke-linecap="round" stroke-linejoin="round" stroke-width="4" d="M76.5758,93.7064 C78.6818,95.0444 81.8358,95.9004 85.3498,95.9004 C88.8638,95.9004 92.0198,95.0444 94.1238,93.7064"/>
      <path fill="#1E2126" d="M57.938 81.808C57.938 84.838 55.482 87.292 52.454 87.292 49.426 87.292 46.97 84.838 46.97 81.808 46.97 78.778 49.426 76.324 52.454 76.324 55.482 76.324 57.938 78.778 57.938 81.808M123.731 81.808C123.731 84.838 121.275 87.292 118.247 87.292 115.219 87.292 112.763 84.838 112.763 81.808 112.763 78.778 115.219 76.324 118.247 76.324 121.275 76.324 123.731 78.778 123.731 81.808"/>
    </g>
  </g>
</svg>
