<svg xmlns="http://www.w3.org/2000/svg" width="212" height="212" viewBox="0 0 212 212">
  <g fill="none" fill-rule="evenodd" transform="translate(16 20)">
    <path fill="#F3F8FF" d="M120.147,0.6666 L120.147,0.6666 C116.697,2.1486 113.525,4.2086 110.769,6.7606 L5.721,103.9406 C0.181,109.0646 -1.531,117.1226 1.447,124.0546 C4.425,130.9886 11.445,135.2946 18.977,134.8066 L161.781,125.5466 C165.529,125.3046 169.207,124.4226 172.657,122.9426"/>
    <path fill="#FF6F57" d="M21.5376,89.3072 L5.7196,103.9392 C0.1816,109.0652 -1.5304,117.1212 1.4476,124.0552 C4.4236,130.9892 11.4456,135.2952 18.9756,134.8072 L40.5256,133.4112 C38.4816,131.1272 33.0516,124.4352 27.9936,112.6552 C22.9436,100.8952 21.7976,92.3712 21.5376,89.3072"/>
    <path fill="#F3F8FF" d="M71.4186,43.1628 L21.5386,89.3068 C21.7986,92.3708 22.9426,100.8948 27.9946,112.6548 C33.0526,124.4368 38.4806,131.1268 40.5266,133.4108 L108.3786,129.0108 C104.1786,124.2708 93.7686,111.2128 84.0486,88.5828 C74.3466,65.9888 71.9906,49.4868 71.4186,43.1628"/>
    <path fill="#7289DA" d="M167.3638,52.8034 C181.8638,86.5674 184.2338,117.9694 172.6578,122.9414 C161.0798,127.9134 139.9418,104.5714 125.4418,70.8074 C110.9418,37.0414 108.5718,5.6394 120.1478,0.6674 C131.7238,-4.3046 152.8638,19.0374 167.3638,52.8034"/>
    <path fill="#FFD671" d="M121.855,57.6588 C128.703,54.7168 136.641,57.8848 139.581,64.7328 C142.523,71.5828 139.355,79.5188 132.507,82.4588"/>
    <path stroke="#1E2126" stroke-linecap="round" stroke-linejoin="round" stroke-width="4" d="M167.3638,52.8034 C181.8638,86.5674 184.2338,117.9694 172.6578,122.9414 C161.0798,127.9134 139.9418,104.5714 125.4418,70.8074 C110.9418,37.0414 108.5718,5.6394 120.1478,0.6674 C131.7238,-4.3046 152.8638,19.0374 167.3638,52.8034 Z"/>
    <path stroke="#1E2126" stroke-linecap="round" stroke-linejoin="round" stroke-width="4" d="M101.565 15.274L5.721 103.94C.181 109.066-1.531 117.122 1.447 124.056 4.425 130.988 11.445 135.296 18.977 134.808L161.781 125.548C165.529 125.306 169.207 124.422 172.657 122.942M22.4614 123.9888C20.0034 124.5448 17.5414 125.0948 15.0614 125.6268M19.1372 116.4596L12.3092 119.2216M15.812 108.9284L9.56 112.8124M57.0992 150.2134L63.1232 164.2414C65.4672 169.6974 71.7892 172.2214 77.2472 169.8774 82.7032 167.5334 85.2272 161.2114 82.8832 155.7554L72.5912 131.7894"/>
    <path stroke="#1E2126" stroke-linecap="round" stroke-linejoin="round" stroke-width="4" d="M40.7642 132.8874C40.7642 132.8874 33.9842 126.6074 27.9942 112.6554 22.0022 98.7034 22.0742 89.4794 22.0742 89.4794M109.107 128.2818C109.107 128.2818 95.807 115.9578 84.049 88.5818 72.293 61.2058 72.437 43.1098 72.437 43.1098M52.0962 138.565L50.3182 134.425"/>
  </g>
</svg>
