<?xml version="1.0" encoding="utf-8"?>
<!-- Generator: Adobe Illustrator 22.1.0, SVG Export Plug-In . SVG Version: 6.00 Build 0)  -->
<svg version="1.1" id="Layer_1" xmlns="http://www.w3.org/2000/svg" xmlns:xlink="http://www.w3.org/1999/xlink" x="0px" y="0px"
	 viewBox="0 0 212 212" style="enable-background:new 0 0 212 212;" xml:space="preserve">
<style type="text/css">
	.st0{fill:none;stroke:#1E2126;stroke-width:6;stroke-linecap:round;stroke-linejoin:round;stroke-miterlimit:10;}
	.st1{fill:#1E2126;}
	.st2{fill:#7289DA;}
	.st3{fill:none;stroke:#1E2126;stroke-width:4;stroke-linecap:round;stroke-linejoin:round;stroke-miterlimit:10;}
	.st4{fill:#C9D2F0;}
	.st5{fill:#F3F8FF;}
	.st6{fill:#FFFFFF;}
	.st7{fill:#FFD671;}
	.st8{fill:#FFAD45;}
	.st9{fill:none;stroke:#D5DBED;stroke-width:2;stroke-linecap:round;stroke-linejoin:round;stroke-miterlimit:10;}
</style>
<g>
	<g>
		<path class="st0" d="M82.8,120.7c0,0,2,28,18.2,28"/>
		<path class="st1" d="M112.5,176h-3.2c-12.4,0-22.4-10-22.4-22.4v0c0-2.9,0.6-5.9,1.7-8.6l3.6-8.7c1.1-2.7,1.7-5.6,1.7-8.6V117
			c0-9.4,7.6-17,17-17h0c9.4,0,17,7.6,17,17v10.8c0,2.9,0.6,5.9,1.7,8.6l3.6,8.7c1.1,2.7,1.7,5.6,1.7,8.6v0
			C134.9,166,124.9,176,112.5,176z"/>
	</g>
	<g>
		<g>
			<rect x="36.9" y="72" class="st2" width="12" height="70"/>
			<polyline class="st3" points="48.9,105 48.9,142 36.9,142 36.9,72 48.9,72 			"/>
		</g>
		<g>
			<rect x="33.9" y="133" class="st4" width="18" height="20"/>
			<rect x="33.9" y="133" class="st3" width="18" height="20"/>
		</g>
	</g>
	<g>
		<g>
			<rect x="168.9" y="72" class="st2" width="12" height="70"/>
			<rect x="168.9" y="72" class="st3" width="12" height="70"/>
		</g>
		<g>
			<rect x="165.9" y="133" class="st4" width="18" height="20"/>
			<rect x="165.9" y="133" class="st3" width="18" height="20"/>
		</g>
	</g>
	<path class="st5" d="M179.9,192h-142c-2.2,0-4-1.8-4-4v-40c0-2.2,1.8-4,4-4h142c2.2,0,4,1.8,4,4v40
		C183.9,190.2,182.1,192,179.9,192z"/>
	<path class="st3" d="M126.9,192h-89c-2.2,0-4-1.8-4-4v-40c0-2.2,1.8-4,4-4h142c2.2,0,4,1.8,4,4v40c0,2.2-1.8,4-4,4h-19.7"/>
	<line class="st3" x1="142.7" y1="192" x2="137.7" y2="192"/>
	<g>
		<path class="st6" d="M54.9,92.4L54.9,92.4c-9.9,0-18-8.1-18-18V68h36v6.4C72.9,84.3,64.8,92.4,54.9,92.4z"/>
		<path class="st7" d="M90.9,92.4L90.9,92.4c-9.9,0-18-8.1-18-18V68h36v6.4C108.9,84.3,100.8,92.4,90.9,92.4z"/>
		<path class="st6" d="M126.9,92.4L126.9,92.4c-9.9,0-18-8.1-18-18V68h36v6.4C144.9,84.3,136.8,92.4,126.9,92.4z"/>
		<path class="st7" d="M162.9,92.4L162.9,92.4c-9.9,0-18-8.1-18-18V68h36v6.4C180.9,84.3,172.8,92.4,162.9,92.4z"/>
		<path class="st4" d="M72.9,68.4h-36V28c0-4.4,3.6-8,8-8h28V68.4z"/>
		<rect x="72.9" y="20" class="st8" width="36" height="48.4"/>
		<rect x="108.9" y="20" class="st4" width="36" height="48.4"/>
		<path class="st8" d="M180.9,68.4h-36V20h28c4.4,0,8,3.6,8,8V68.4z"/>
		<path class="st3" d="M144.9,20v48v0.4v6c0,9.9,8.1,18,18,18l0,0c9.9,0,18-8.1,18-18v-6V68V28c0-4.4-3.6-8-8-8H144.9z"/>
		<path class="st3" d="M108.9,20v48v0.4v6c0,9.9,8.1,18,18,18l0,0c9.9,0,18-8.1,18-18v-6V68V20H108.9z"/>
		<path class="st3" d="M72.9,20v48v0.4v6c0,9.9,8.1,18,18,18l0,0c9.9,0,18-8.1,18-18v-6V68V20H72.9z"/>
		<path class="st3" d="M44.9,20c-4.4,0-8,3.6-8,8v40v0.4v6c0,9.9,8.1,18,18,18l0,0c9.9,0,18-8.1,18-18v-6V68V20H44.9z"/>
	</g>
	<g>
		<g>
			<line class="st9" x1="7.5" y1="92.4" x2="7.5" y2="102.8"/>
			<line class="st9" x1="12.8" y1="97.6" x2="2.3" y2="97.6"/>
		</g>
		<g>
			<line class="st9" x1="196.5" y1="115.5" x2="196.5" y2="125.9"/>
			<line class="st9" x1="201.7" y1="120.7" x2="191.2" y2="120.7"/>
		</g>
		<g>
			<line class="st9" x1="24.7" y1="110.7" x2="22.8" y2="113.2"/>
			<line class="st9" x1="14.7" y1="121" x2="12.8" y2="123.5"/>
			<line class="st9" x1="25.2" y1="123.2" x2="23" y2="120.8"/>
			<line class="st9" x1="14.5" y1="113.4" x2="12.3" y2="111"/>
		</g>
	</g>
</g>
</svg>
