<svg xmlns="http://www.w3.org/2000/svg" width="212" height="212" viewBox="0 0 212 212">
  <g fill="none" fill-rule="evenodd" transform="translate(26 22)">
    <path fill="#C9D2F0" d="M74.4222,169.9994 C52.2082,156.5714 33.6322,137.6254 20.6522,115.1434 C7.1422,91.7414 0.0002,65.0874 0.0002,38.0654 L0.0002,18.1774 L74.4222,-0.0006 L148.8442,18.1774 L148.8442,38.0654 C148.8442,65.0874 141.7042,91.7414 128.1922,115.1434 C115.2122,137.6254 96.6362,156.5714 74.4222,169.9994"/>
    <path fill="#7289DA" d="M74.4222,169.9994 L74.4222,-0.0006 L148.8442,18.1774 L148.8442,38.0654 C148.8442,65.0874 141.7042,91.7414 128.1922,115.1434 C115.2122,137.6254 96.6362,156.5714 74.4222,169.9994"/>
    <path fill="#F3F8FF" d="M74.4222,16.4702 L16.0002,30.7402 L16.0002,38.0642 C16.0002,62.2822 22.4002,86.1702 34.5082,107.1422 C44.4802,124.4162 58.1642,139.3842 74.4222,150.8882 C90.6802,139.3842 104.3642,124.4162 114.3362,107.1422 C126.4442,86.1702 132.8442,62.2822 132.8442,38.0642 L132.8442,30.7402 L74.4222,16.4702 Z"/>
    <path stroke="#1E2126" stroke-linecap="round" stroke-linejoin="round" stroke-width="4" d="M47.8176 6.4976L74.4216-.0004 148.8456 18.1776 148.8456 38.0656C148.8456 65.0876 141.7036 91.7416 128.1916 115.1436 115.2116 137.6236 96.6356 156.5716 74.4216 169.9996 52.2076 156.5716 33.6316 137.6236 20.6516 115.1436 7.1416 91.7416-.0004 65.0876-.0004 38.0656L-.0004 18.1776 15.9996 14.2696M29.5316 10.9644L34.3156 9.7964"/>
    <path stroke="#D5DBED" stroke-linecap="round" stroke-linejoin="round" stroke-width="2" d="M154.0442 137.0014L152.0562 139.4734M144.0394 147.3374L142.0514 149.8094M154.4524 149.4956L152.3064 147.1256M143.7894 139.683L141.6434 137.313M5.2034 147.9604L5.2034 158.3664M10.4066 153.1636L.0006 153.1636M161.7992 118.5132C161.7992 121.8272 159.1132 124.5132 155.7992 124.5132 152.4852 124.5132 149.7992 121.8272 149.7992 118.5132 149.7992 115.2012 152.4852 112.5132 155.7992 112.5132 159.1132 112.5132 161.7992 115.2012 161.7992 118.5132z"/>
    <polygon fill="#FFD671" points="39.365 93.208 74.423 34.15 109.481 93.208"/>
    <polygon fill="#FFAD45" points="74.422 93.208 74.422 34.15 109.48 93.208"/>
    <polygon stroke="#1E2126" stroke-linecap="round" stroke-linejoin="round" stroke-width="4" points="39.365 93.208 74.423 34.15 109.481 93.208"/>
  </g>
</svg>
