<svg xmlns="http://www.w3.org/2000/svg" width="212" height="212" viewBox="0 0 212 212">
  <g fill="none" fill-rule="evenodd" transform="translate(30 30)">
    <path fill="#F3F8FF" d="M142,150.001 L8,150.001 C3.582,150.001 0,146.419 0,142.001 L0,8.001 C0,3.581 3.582,0.001 8,0.001 L142,0.001 C146.418,0.001 150,3.581 150,8.001 L150,142.001 C150,146.419 146.418,150.001 142,150.001"/>
    <path fill="#C9D2F0" d="M73.583,132.376 L73.583,132.376 C70.269,132.376 67.583,129.69 67.583,126.376 L67.583,28.376 C67.583,25.064 70.269,22.376 73.583,22.376 C76.897,22.376 79.583,25.064 79.583,28.376 L79.583,126.376 C79.583,129.69 76.897,132.376 73.583,132.376"/>
    <path stroke="#1E2126" stroke-linecap="round" stroke-linejoin="round" stroke-width="4" d="M73.583,132.376 L73.583,132.376 C70.269,132.376 67.583,129.69 67.583,126.376 L67.583,28.376 C67.583,25.064 70.269,22.376 73.583,22.376 C76.897,22.376 79.583,25.064 79.583,28.376 L79.583,126.376 C79.583,129.69 76.897,132.376 73.583,132.376 Z"/>
    <path fill="#FFFFFF" d="M80.583,92.376 L66.583,92.376 C62.717,92.376 59.583,89.244 59.583,85.376 C59.583,81.51 62.717,78.376 66.583,78.376 L80.583,78.376 C84.449,78.376 87.583,81.51 87.583,85.376 C87.583,89.244 84.449,92.376 80.583,92.376"/>
    <path stroke="#1E2126" stroke-linecap="round" stroke-linejoin="round" stroke-width="4" d="M80.583 92.376L66.583 92.376C62.717 92.376 59.583 89.244 59.583 85.376 59.583 81.51 62.717 78.376 66.583 78.376L80.583 78.376C84.449 78.376 87.583 81.51 87.583 85.376 87.583 89.244 84.449 92.376 80.583 92.376zM89.25 41.704L93.25 41.704M89.25 27.4346L93.25 27.4346M89.25 55.9736L93.25 55.9736M89.25 70.2412L93.25 70.2412M89.25 84.5106L93.25 84.5106M89.25 98.7802L93.25 98.7802M89.25 113.0498L93.25 113.0498M89.25 127.3192L93.25 127.3192"/>
    <path fill="#C9D2F0" d="M28,132.376 L28,132.376 C24.686,132.376 22,129.69 22,126.376 L22,28.376 C22,25.064 24.686,22.376 28,22.376 C31.314,22.376 34,25.064 34,28.376 L34,126.376 C34,129.69 31.314,132.376 28,132.376"/>
    <path stroke="#1E2126" stroke-linecap="round" stroke-linejoin="round" stroke-width="4" d="M28,132.376 L28,132.376 C24.686,132.376 22,129.69 22,126.376 L22,28.376 C22,25.064 24.686,22.376 28,22.376 C31.314,22.376 34,25.064 34,28.376 L34,126.376 C34,129.69 31.314,132.376 28,132.376 Z"/>
    <path fill="#FFFFFF" d="M35,118.376 L21,118.376 C17.134,118.376 14,115.244 14,111.376 C14,107.51 17.134,104.376 21,104.376 L35,104.376 C38.866,104.376 42,107.51 42,111.376 C42,115.244 38.866,118.376 35,118.376"/>
    <path stroke="#1E2126" stroke-linecap="round" stroke-linejoin="round" stroke-width="4" d="M35 118.376L21 118.376C17.134 118.376 14 115.244 14 111.376 14 107.51 17.134 104.376 21 104.376L35 104.376C38.866 104.376 42 107.51 42 111.376 42 115.244 38.866 118.376 35 118.376zM43.667 41.704L47.667 41.704M43.667 27.4346L47.667 27.4346M43.667 55.9736L47.667 55.9736M43.667 70.2412L47.667 70.2412M43.667 84.5106L47.667 84.5106M43.667 98.7802L47.667 98.7802M43.667 113.0498L47.667 113.0498M43.667 127.3192L47.667 127.3192"/>
    <path stroke="#1E2126" stroke-linecap="round" stroke-linejoin="round" stroke-width="4" d="M150 122.542L150 142C150 146.418 146.418 150 142 150L8 150C3.582 150 0 146.418 0 142L0 8C0 3.582 3.582 0 8 0L29.666 0M150 108.372L150 108.468M38.333.001L141.999.001C146.417.001 149.999 3.581 149.999 8.001L149.999 100.929"/>
    <path fill="#FFD671" d="M132 37.4346L112 37.4346C110.896 37.4346 110 36.5386 110 35.4346L110 27.4346C110 26.3286 110.896 25.4346 112 25.4346L132 25.4346C133.104 25.4346 134 26.3286 134 27.4346L134 35.4346C134 36.5386 133.104 37.4346 132 37.4346M132 57.4346L112 57.4346C110.896 57.4346 110 56.5386 110 55.4346L110 47.4346C110 46.3286 110.896 45.4346 112 45.4346L132 45.4346C133.104 45.4346 134 46.3286 134 47.4346L134 55.4346C134 56.5386 133.104 57.4346 132 57.4346"/>
    <path fill="#7289DA" d="M132,77.4346 L112,77.4346 C110.896,77.4346 110,76.5386 110,75.4346 L110,67.4346 C110,66.3286 110.896,65.4346 112,65.4346 L132,65.4346 C133.104,65.4346 134,66.3286 134,67.4346 L134,75.4346 C134,76.5386 133.104,77.4346 132,77.4346"/>
    <path fill="#FF6F57" d="M132,128.376 L112,128.376 C110.896,128.376 110,127.482 110,126.376 L110,101.434 C110,100.33 110.896,99.434 112,99.434 L132,99.434 C133.104,99.434 134,100.33 134,101.434 L134,126.376 C134,127.482 133.104,128.376 132,128.376"/>
  </g>
</svg>
