<?xml version="1.0" encoding="utf-8"?>
<!-- Generator: Adobe Illustrator 26.5.0, SVG Export Plug-In . SVG Version: 6.00 Build 0)  -->
<!DOCTYPE svg PUBLIC "-//W3C//DTD SVG 1.1//EN" "http://www.w3.org/Graphics/SVG/1.1/DTD/svg11.dtd" [
	<!ENTITY ns_extend "http://ns.adobe.com/Extensibility/1.0/">
	<!ENTITY ns_ai "http://ns.adobe.com/AdobeIllustrator/10.0/">
	<!ENTITY ns_graphs "http://ns.adobe.com/Graphs/1.0/">
	<!ENTITY ns_vars "http://ns.adobe.com/Variables/1.0/">
	<!ENTITY ns_imrep "http://ns.adobe.com/ImageReplacement/1.0/">
	<!ENTITY ns_sfw "http://ns.adobe.com/SaveForWeb/1.0/">
	<!ENTITY ns_custom "http://ns.adobe.com/GenericCustomNamespace/1.0/">
	<!ENTITY ns_adobe_xpath "http://ns.adobe.com/XPath/1.0/">
]>
<svg version="1.1" id="Layer_1" xmlns:x="&ns_extend;" xmlns:i="&ns_ai;" xmlns:graph="&ns_graphs;"
	 xmlns="http://www.w3.org/2000/svg" xmlns:xlink="http://www.w3.org/1999/xlink" x="0px" y="0px" viewBox="0 0 1094 114"
	 style="enable-background:new 0 0 1094 114;" xml:space="preserve">
<style type="text/css">
	.st0{fill:#C7CCF6;}
	.st1{fill:#77DBCB;}
	.st2{fill:#FD80BC;}
	.st3{fill:#6992F5;}
</style>
<metadata>
	<sfw  xmlns="&ns_sfw;">
		<slices></slices>
		<sliceSourceBounds  bottomLeftOrigin="true" height="97.7" width="1061" x="19" y="9.3"></sliceSourceBounds>
	</sfw>
</metadata>
<path class="st0" d="M623,7c-0.8,2.7-2.7,6.7-2.7,6.7s-5,1.5-7.3,2.3v1l6.6,3.8L622,26l1,2.5l3.6-7.3L633,17l-6.9-3.3L623,7
	 M1069,23l2,2L1069,23z"/>
<path class="st1" d="M1069,24l-9,11l10,9l10-10L1069,24z"/>
<path class="st0" d="M1068,25l1,1L1068,25 M1071,26l1,1L1071,26 M1067,27l1,1L1067,27 M1073,30l1,1L1073,30 M1063,31l1,1L1063,31
	 M1075,31l1,1L1075,31 M1061,32l1,1L1061,32 M1059,33l1,1L1059,33 M1079,34l1,1L1079,34 M1062,35l1,1L1062,35 M1064,36l1,1L1064,36
	 M1066,37l1,1L1066,37 M41.7,45.3l0.7,0.3L41.7,45.3z"/>
<path class="st2" d="M41,46c-2.3,6.6-6,16-6,16l-16,6c4.8,3.3,16,8,16,8s3,6.3,6,14h2l7.4-14.4L65,68c-6-3.5-14-6-14-6
	s-5.4-9.7-8-16H41z"/>
<path class="st0" d="M43,47l1,1L43,47 M39,50l1,1L39,50 M38,52l1,1L38,52 M37,54l1,1L37,54 M46,54l1,1L46,54 M47,56l1,1L47,56
	 M48,58l1,1L48,58 M35,59l1,1L35,59 M30,62l1,1L30,62 M28,63l1,1L28,63 M55,63l1,1L55,63 M21,66l1,1L21,66 M62,66l1,1L62,66 M19,67
	l1,1L19,67 M64,67l1,1L64,67 M21,69l1,1L21,69 M23,70l1,1L23,70 M60,70l1,1L60,70 M58,71l1,1L58,71 M30,73l1,1L30,73 M53,73l1,1
	L53,73 M32,74l1,1L32,74 M51,74l1,1L51,74 M49,75l1,1L49,75 M1025.7,75.3l0.7,0.3L1025.7,75.3 M35,76l1,1L35,76z"/>
<path class="st3" d="M1025,76c-2.5,7.3-5.9,10.2-13,13v2c7.2,2.5,10.5,5.8,13,13h2c2.5-7.2,5.8-10.5,13-13v-2
	c-7.2-2.5-10.5-5.8-13-13H1025z"/>
<path class="st0" d="M48,77l1,1L48,77 M1024,77l1,1L1024,77 M1027,77l1,1L1027,77 M47,79l1,1L47,79 M1023.3,79.7l0.3,0.7
	L1023.3,79.7 M1028,80l1,1L1028,80 M37,81l1,1L37,81 M1022,82l1,1L1022,82 M1029,82l1,1L1029,82 M38,83l1,1L38,83 M1021,84l1,1
	L1021,84 M1030,84l1,1L1030,84 M1020,85l1,1L1020,85 M1031,85l1,1L1031,85 M44,86l1,1L44,86 M1018,86l1,1L1018,86 M1033,86l1,1
	L1033,86 M1015,87l1,1L1015,87 M1035.7,87.3l0.7,0.3L1035.7,87.3 M40,88l1,1L40,88 M43,88l1,1L43,88 M1013,88l1,1L1013,88 M1038,88
	l1,1L1038,88 M1011.3,89.7l0.3,0.7L1011.3,89.7 M1040.3,89.7l0.3,0.7L1040.3,89.7 M41.7,90.3l0.7,0.3L41.7,90.3 M1013,91l1,1
	L1013,91 M1038,91l1,1L1038,91 M1015.7,92.3l0.7,0.3L1015.7,92.3 M1035.7,92.3l0.7,0.3L1035.7,92.3 M1018,93l1,1L1018,93 M1033,93
	l1,1L1033,93 M1020,94l1,1L1020,94 M1031,94l1,1L1031,94 M1021,95l1,1L1021,95 M1030,95l1,1L1030,95 M1022,97l1,1L1022,97 M1029,97
	l1,1L1029,97 M1023,99l1,1L1023,99 M1028,99l1,1L1028,99 M1024,102l1,1L1024,102 M1027,102l1,1L1027,102 M1025.7,104.3l0.7,0.3
	L1025.7,104.3z"/>
</svg>
