<?xml version="1.0" encoding="utf-8"?>
<!-- Generator: Adobe Illustrator 22.1.0, SVG Export Plug-In . SVG Version: 6.00 Build 0)  -->
<svg version="1.1" id="Layer_1" xmlns="http://www.w3.org/2000/svg" xmlns:xlink="http://www.w3.org/1999/xlink" x="0px" y="0px"
	 viewBox="0 0 212 212" style="enable-background:new 0 0 212 212;" xml:space="preserve">
<style type="text/css">
	.st0{fill:#FF6F57;}
	.st1{fill:#1E2126;}
	.st2{fill:#FFD671;}
	.st3{fill:#FFFFFF;}
	.st4{fill:#C9D2F0;}
	.st5{fill:#D5DBED;}
</style>
<g>
	<g>
		<g>
			<g>
				<circle class="st0" cx="104.6" cy="102.1" r="86"/>
			</g>
		</g>
		<g>
			<g>
				<path class="st1" d="M104.6,190.1c-48.5,0-88-39.5-88-88c0-48.5,39.5-88,88-88s88,39.5,88,88
					C192.6,150.6,153.1,190.1,104.6,190.1z M104.6,18.1c-46.3,0-84,37.7-84,84s37.7,84,84,84s84-37.7,84-84S150.9,18.1,104.6,18.1z"
					/>
			</g>
		</g>
		<g>
			<g>
				<path class="st2" d="M91.4,93.6c-9.6,0-18.5,2.9-26,7.9V100c0-5.7-4.7-10.4-10.4-10.4l0,0c-5.7,0-10.4,4.7-10.4,10.4v37.2
					c0,0.2,0.1,0.4,0.1,0.7c0,0.8-0.1,1.6-0.1,2.5v8.9c0,25.7,21,46.7,46.7,46.7s46.7-21,46.7-46.7v-8.9
					C138.2,114.6,117.1,93.6,91.4,93.6z"/>
			</g>
		</g>
		<g>
			<g>
				<path class="st1" d="M91.4,197.9c-26.9,0-48.7-21.9-48.7-48.7v-8.9c0-0.8,0-1.6,0.1-2.4c0-0.3-0.1-0.5-0.1-0.7V100
					c0-6.8,5.6-12.4,12.4-12.4c6.2,0,11.3,4.5,12.2,10.4c7.3-4.2,15.6-6.4,24.1-6.4c26.9,0,48.7,21.9,48.7,48.7v8.9
					C140.2,176.1,118.3,197.9,91.4,197.9z M55.1,91.6c-4.6,0-8.4,3.8-8.4,8.4v37.2c0,0.2,0.1,0.4,0.1,0.5c0,0.1,0,0.2,0,0.2
					c0,0.8-0.1,1.6-0.1,2.4v8.9c0,24.7,20.1,44.7,44.7,44.7c24.7,0,44.7-20.1,44.7-44.7v-8.9c0-24.7-20.1-44.7-44.7-44.7
					c-8.9,0-17.5,2.6-24.9,7.6c-0.6,0.4-1.4,0.5-2.1,0.1c-0.7-0.3-1.1-1-1.1-1.8V100C63.5,95.4,59.7,91.6,55.1,91.6z"/>
			</g>
		</g>
		<g>
			<g>
				<path class="st2" d="M154.8,68.8l-9.6,9.6c-3.6,3.6-9.5,3.6-13.1,0l0,0c-3.6-3.6-3.6-9.5,0-13.1l9.6-9.6c3.6-3.6,9.5-3.6,13.1,0
					l0,0C158.4,59.3,158.4,65.2,154.8,68.8z"/>
			</g>
		</g>
		<g>
			<g>
				<path class="st1" d="M138.7,83c-2.9,0-5.8-1.1-7.9-3.3c-4.4-4.4-4.4-11.5,0-15.9l9.6-9.6c4.4-4.4,11.5-4.4,15.9,0
					c4.4,4.4,4.4,11.5,0,15.9l-9.6,9.6C144.4,81.9,141.5,83,138.7,83z M148.2,55c-1.9,0-3.7,0.7-5.1,2.1l-9.6,9.6
					c-2.8,2.8-2.8,7.4,0,10.2c2.8,2.8,7.4,2.8,10.2,0l9.6-9.6c2.8-2.8,2.8-7.4,0-10.2C151.9,55.7,150.1,55,148.2,55z"/>
			</g>
		</g>
		<g>
			<g>
				<path class="st3" d="M137.5,173.6h-64c-4.4,0-8-3.6-8-8v-120c0-4.4,3.6-8,8-8h64c4.4,0,8,3.6,8,8v120
					C145.5,170,141.9,173.6,137.5,173.6z"/>
			</g>
		</g>
		<g>
			<g>
				<path class="st1" d="M137.5,175.6h-64c-5.5,0-10-4.5-10-10v-120c0-5.5,4.5-10,10-10h64c5.5,0,10,4.5,10,10v120
					C147.5,171.1,143,175.6,137.5,175.6z M73.5,39.6c-3.3,0-6,2.7-6,6v120c0,3.3,2.7,6,6,6h64c3.3,0,6-2.7,6-6v-120c0-3.3-2.7-6-6-6
					H73.5z"/>
			</g>
		</g>
		<g>
			<g>
				<path class="st4" d="M112.5,53.6h-14c-1.7,0-3-1.3-3-3v0c0-1.7,1.3-3,3-3h14c1.7,0,3,1.3,3,3v0
					C115.5,52.2,114.1,53.6,112.5,53.6z"/>
			</g>
		</g>
		<g>
			<g>
				<g>
					<path class="st1" d="M96.9,124.3c17.4,0,26.9-14.4,26.9-26.9c0-0.4,0-0.8,0-1.2c1.8-1.3,3.4-3,4.7-4.9
						c-1.7,0.8-3.5,1.3-5.4,1.5c1.9-1.2,3.4-3,4.1-5.2c-1.8,1.1-3.8,1.9-6,2.3c-1.7-1.8-4.2-3-6.9-3c-5.2,0-9.4,4.2-9.4,9.4
						c0,0.7,0.1,1.5,0.2,2.2c-7.8-0.4-14.8-4.1-19.5-9.9c-0.8,1.4-1.3,3-1.3,4.7c0,3.3,1.7,6.2,4.2,7.9c-1.5,0-3-0.5-4.3-1.2
						c0,0,0,0.1,0,0.1c0,4.6,3.3,8.4,7.6,9.3c-0.8,0.2-1.6,0.3-2.5,0.3c-0.6,0-1.2-0.1-1.8-0.2c1.2,3.7,4.7,6.5,8.8,6.6
						c-3.2,2.5-7.3,4-11.7,4c-0.8,0-1.5,0-2.3-0.1C86.6,122.7,91.6,124.3,96.9,124.3"/>
				</g>
			</g>
		</g>
		<g>
			<g>
				<circle class="st4" cx="105.5" cy="157.6" r="7"/>
			</g>
		</g>
		<g>
			<g>
				<path class="st2" d="M156.8,119.2l-9.6,9.6c-3.6,3.6-9.5,3.6-13.1,0l0,0c-3.6-3.6-3.6-9.5,0-13.1l9.6-9.6
					c3.6-3.6,9.5-3.6,13.1,0l0,0C160.4,109.8,160.4,115.6,156.8,119.2z"/>
			</g>
		</g>
		<g>
			<g>
				<path class="st1" d="M140.7,133.5c-2.9,0-5.8-1.1-7.9-3.3c-4.4-4.4-4.4-11.5,0-15.9l9.6-9.6c4.4-4.4,11.5-4.4,15.9,0
					s4.4,11.5,0,15.9c0,0,0,0,0,0l-9.6,9.6C146.5,132.4,143.6,133.5,140.7,133.5z M150.3,105.5c-1.9,0-3.7,0.7-5.1,2.1l-9.6,9.6
					c-2.8,2.8-2.8,7.4,0,10.2c2.8,2.8,7.4,2.8,10.2,0l9.6-9.6c2.8-2.8,2.8-7.4,0-10.2C154,106.2,152.1,105.5,150.3,105.5z
					 M156.8,119.2L156.8,119.2L156.8,119.2z"/>
			</g>
		</g>
		<g>
			<g>
				<path class="st2" d="M156.8,92.9l-9.6,9.6c-3.6,3.6-9.5,3.6-13.1,0l0,0c-3.6-3.6-3.6-9.5,0-13.1l9.6-9.6c3.6-3.6,9.5-3.6,13.1,0
					l0,0C160.4,83.4,160.4,89.3,156.8,92.9z"/>
			</g>
		</g>
		<g>
			<g>
				<path class="st2" d="M156.8,145.6l-9.6,9.6c-3.6,3.6-9.5,3.6-13.1,0l0,0c-3.6-3.6-3.6-9.5,0-13.1l9.6-9.6
					c3.6-3.6,9.5-3.6,13.1,0l0,0C160.4,136.2,160.4,142.1,156.8,145.6z"/>
			</g>
		</g>
		<g>
			<g>
				<path class="st1" d="M140.7,159.9c-2.9,0-5.8-1.1-7.9-3.3c-4.4-4.4-4.4-11.5,0-15.9l9.6-9.6c4.4-4.4,11.5-4.4,15.9,0
					c2.1,2.1,3.3,4.9,3.3,7.9s-1.2,5.8-3.3,7.9l0,0l-9.6,9.6C146.5,158.8,143.6,159.9,140.7,159.9z M150.3,131.9
					c-1.9,0-3.7,0.7-5.1,2.1l-9.6,9.6c-2.8,2.8-2.8,7.4,0,10.2c2.8,2.8,7.4,2.8,10.2,0l9.6-9.6c2.8-2.8,2.8-7.4,0-10.2
					C154,132.6,152.1,131.9,150.3,131.9z M156.8,145.6L156.8,145.6L156.8,145.6z"/>
			</g>
		</g>
		<g>
			<g>
				<path class="st1" d="M140.7,107.2c-2.9,0-5.8-1.1-7.9-3.3c-4.4-4.4-4.4-11.5,0-15.9l9.6-9.6c4.4-4.4,11.5-4.4,15.9,0
					c2.1,2.1,3.3,4.9,3.3,7.9c0,3-1.2,5.8-3.3,7.9l-9.6,9.6C146.5,106.1,143.6,107.2,140.7,107.2z M150.3,79.1
					c-1.9,0-3.7,0.7-5.1,2.1l-9.6,9.6c-2.8,2.8-2.8,7.4,0,10.2c2.8,2.8,7.4,2.8,10.2,0l9.6-9.6c2.8-2.8,2.8-7.4,0-10.2
					C154,79.8,152.1,79.1,150.3,79.1z"/>
			</g>
		</g>
	</g>
	<g>
		<g>
			<g>
				<path class="st5" d="M185.6,172.9c-0.6,0-1-0.4-1-1v-10.4c0-0.6,0.4-1,1-1s1,0.4,1,1v10.4C186.6,172.4,186.2,172.9,185.6,172.9z
					"/>
			</g>
			<g>
				<path class="st5" d="M190.8,167.6h-10.4c-0.6,0-1-0.4-1-1s0.4-1,1-1h10.4c0.6,0,1,0.4,1,1S191.4,167.6,190.8,167.6z"/>
			</g>
		</g>
		<g>
			<g>
				<path class="st5" d="M45.2,79.1c-0.6,0-1-0.4-1-1V67.7c0-0.6,0.4-1,1-1s1,0.4,1,1v10.4C46.2,78.6,45.8,79.1,45.2,79.1z"/>
			</g>
			<g>
				<path class="st5" d="M50.4,73.9H40c-0.6,0-1-0.4-1-1s0.4-1,1-1h10.4c0.6,0,1,0.4,1,1S51,73.9,50.4,73.9z"/>
			</g>
		</g>
	</g>
</g>
</svg>
