<svg width="512" height="512" xmlns="http://www.w3.org/2000/svg">

 <g>
  <title>Layer 1</title>
  <path fill="#ffffff" id="svg_1" d="m492,109.5c-17.4,7.7 -36,12.9 -55.6,15.3c20,-12 35.4,-31 42.6,-53.6c-18.7,11.1 -39.4,19.2 -61.5,23.5c-17.7,-18.9 -42.9,-30.7 -70.7,-30.7c-53.5,0 -96.8,43.4 -96.8,96.9c0,7.6 0.8,15 2.5,22.1c-80.5,-4 -151.9,-42.6 -199.6,-101.3c-8.3,14.3 -13.1,31 -13.1,48.7c0,33.6 17.1,63.3 43.1,80.7c-15.9,-0.4 -30.9,-4.8 -43.9,-12.1c0,0.4 0,0.8 0,1.2c0,47 33.4,86.1 77.7,95c-8.1,2.2 -16.7,3.4 -25.5,3.4c-6.2,0 -12.3,-0.6 -18.2,-1.8c12.3,38.5 48.1,66.5 90.5,67.3c-33.1,26 -74.9,41.5 -120.3,41.5c-7.8,0 -15.5,-0.5 -23.1,-1.4c42.8,27.8 93.7,43.8 148.3,43.8c178.2,0 275.6,-147.7 275.6,-275.8c0,-4.2 -0.1,-8.4 -0.3,-12.5c18.9,-13.7 35.3,-30.8 48.3,-50.2z"/>
 </g>
</svg>