<svg xmlns="http://www.w3.org/2000/svg" xmlns:xlink="http://www.w3.org/1999/xlink" width="212" height="212" viewBox="0 0 212 212">
  <defs>
    <polygon id="a" points="0 152 202.286 152 202.286 0 0 0"/>
  </defs>
  <g fill="none" fill-rule="evenodd" transform="translate(4 30)">
    <path fill="#F3F8FF" d="M196.286,1.9996 C198.494,1.9996 200.286,3.7916 200.286,5.9996 L200.286,145.9996 C200.286,148.2076 198.494,149.9996 196.286,149.9996 L6,149.9996 C3.79,149.9996 2,148.2076 2,145.9996 L2,5.9996 C2,3.7916 3.79,1.9996 6,1.9996 L196.286,1.9996 Z"/>
    <mask id="b" fill="white">
      <use xlink:href="#a"/>
    </mask>
    <polygon fill="#C9D2F0" points="30.142 150 71.714 150 71.714 2 30.142 2" mask="url(#b)"/>
    <path fill="#C9D2F0" d="M200.286,19.1148 L30.142,19.1148 L30.142,1.9988 L196.286,1.9988 C198.494,1.9988 200.286,3.7908 200.286,5.9988 L200.286,19.1148 Z" mask="url(#b)"/>
    <path fill="#7289DA" d="M30.1424,1.9996 L6.0004,1.9996 C3.7904,1.9996 2.0004,3.7916 2.0004,5.9996 L2.0004,145.9996 C2.0004,148.2076 3.7904,149.9996 6.0004,149.9996 L30.1424,149.9996 L30.1424,1.9996 Z" mask="url(#b)"/>
    <path stroke="#1E2126" stroke-linecap="round" stroke-linejoin="round" stroke-width="4" d="M145.1238 1.9996L5.9998 1.9996C3.7898 1.9996 1.9998 3.7916 1.9998 5.9996L1.9998 145.9996C1.9998 148.2076 3.7898 149.9996 5.9998 149.9996L196.2858 149.9996C198.4958 149.9996 200.2858 148.2076 200.2858 145.9996L200.2858 5.9996C200.2858 3.7916 198.4958 1.9996 196.2858 1.9996L174.0178 1.9996M163.0292 1.9996L165.1972 1.9996M71.7146 4.6052L71.7146 149.9992" mask="url(#b)"/>
    <path fill="#FF6F57" d="M112.7586,34.6032 L137.2586,34.6032 C138.9166,34.6032 140.2586,33.2592 140.2586,31.6032 C140.2586,29.9472 138.9166,28.6032 137.2586,28.6032 L112.7586,28.6032 C111.1026,28.6032 109.7586,29.9472 109.7586,31.6032 C109.7586,33.2592 111.1026,34.6032 112.7586,34.6032" mask="url(#b)"/>
    <path fill="#C9D2F0" d="M113.7586,46.6032 L162.9586,46.6032 C165.1686,46.6032 166.9586,44.8112 166.9586,42.6032 C166.9586,40.3952 165.1686,38.6032 162.9586,38.6032 L113.7586,38.6032 C111.5506,38.6032 109.7586,40.3952 109.7586,42.6032 C109.7586,44.8112 111.5506,46.6032 113.7586,46.6032" mask="url(#b)"/>
    <path fill="#FF6F57" d="M103.7586,37.6032 C103.7586,43.1272 99.2826,47.6032 93.7586,47.6032 C88.2366,47.6032 83.7586,43.1272 83.7586,37.6032 C83.7586,32.0792 88.2366,27.6032 93.7586,27.6032 C99.2826,27.6032 103.7586,32.0792 103.7586,37.6032" mask="url(#b)"/>
    <path fill="#C9D2F0" d="M23.0712 19.0114C23.0712 22.3254 20.3852 25.0114 17.0712 25.0114 13.7572 25.0114 11.0712 22.3254 11.0712 19.0114 11.0712 15.6974 13.7572 13.0114 17.0712 13.0114 20.3852 13.0114 23.0712 15.6974 23.0712 19.0114M23.0712 39.0114C23.0712 42.3254 20.3852 45.0114 17.0712 45.0114 13.7572 45.0114 11.0712 42.3254 11.0712 39.0114 11.0712 35.6974 13.7572 33.0114 17.0712 33.0114 20.3852 33.0114 23.0712 35.6974 23.0712 39.0114M23.0712 59.0114C23.0712 62.3254 20.3852 65.0114 17.0712 65.0114 13.7572 65.0114 11.0712 62.3254 11.0712 59.0114 11.0712 55.6974 13.7572 53.0114 17.0712 53.0114 20.3852 53.0114 23.0712 55.6974 23.0712 59.0114M23.0712 79.0114C23.0712 82.3254 20.3852 85.0114 17.0712 85.0114 13.7572 85.0114 11.0712 82.3254 11.0712 79.0114 11.0712 75.6974 13.7572 73.0114 17.0712 73.0114 20.3852 73.0114 23.0712 75.6974 23.0712 79.0114M23.0712 99.0114C23.0712 102.3254 20.3852 105.0114 17.0712 105.0114 13.7572 105.0114 11.0712 102.3254 11.0712 99.0114 11.0712 95.6974 13.7572 93.0114 17.0712 93.0114 20.3852 93.0114 23.0712 95.6974 23.0712 99.0114" mask="url(#b)"/>
    <path fill="#FFD671" d="M112.7586,64.6032 L150.7586,64.6032 C152.4166,64.6032 153.7586,63.2592 153.7586,61.6032 C153.7586,59.9472 152.4166,58.6032 150.7586,58.6032 L112.7586,58.6032 C111.1026,58.6032 109.7586,59.9472 109.7586,61.6032 C109.7586,63.2592 111.1026,64.6032 112.7586,64.6032" mask="url(#b)"/>
    <path fill="#C9D2F0" d="M113.7586,76.6032 L178.9586,76.6032 C181.1686,76.6032 182.9586,74.8112 182.9586,72.6032 C182.9586,70.3952 181.1686,68.6032 178.9586,68.6032 L113.7586,68.6032 C111.5506,68.6032 109.7586,70.3952 109.7586,72.6032 C109.7586,74.8112 111.5506,76.6032 113.7586,76.6032" mask="url(#b)"/>
    <path fill="#FFD671" d="M103.7586,67.6032 C103.7586,73.1272 99.2826,77.6032 93.7586,77.6032 C88.2366,77.6032 83.7586,73.1272 83.7586,67.6032 C83.7586,62.0792 88.2366,57.6032 93.7586,57.6032 C99.2826,57.6032 103.7586,62.0792 103.7586,67.6032" mask="url(#b)"/>
    <path fill="#FF6F57" d="M112.7586,94.6032 L119.2586,94.6032 C120.9166,94.6032 122.2586,93.2592 122.2586,91.6032 C122.2586,89.9472 120.9166,88.6032 119.2586,88.6032 L112.7586,88.6032 C111.1026,88.6032 109.7586,89.9472 109.7586,91.6032 C109.7586,93.2592 111.1026,94.6032 112.7586,94.6032" mask="url(#b)"/>
    <path fill="#C9D2F0" d="M113.7586,106.6032 L144.9586,106.6032 C147.1686,106.6032 148.9586,104.8112 148.9586,102.6032 C148.9586,100.3952 147.1686,98.6032 144.9586,98.6032 L113.7586,98.6032 C111.5506,98.6032 109.7586,100.3952 109.7586,102.6032 C109.7586,104.8112 111.5506,106.6032 113.7586,106.6032" mask="url(#b)"/>
    <path fill="#FF6F57" d="M103.7586,97.6032 C103.7586,103.1272 99.2826,107.6032 93.7586,107.6032 C88.2366,107.6032 83.7586,103.1272 83.7586,97.6032 C83.7586,92.0792 88.2366,87.6032 93.7586,87.6032 C99.2826,87.6032 103.7586,92.0792 103.7586,97.6032" mask="url(#b)"/>
    <path fill="#FFD671" d="M112.7586,124.6032 L137.2586,124.6032 C138.9166,124.6032 140.2586,123.2592 140.2586,121.6032 C140.2586,119.9472 138.9166,118.6032 137.2586,118.6032 L112.7586,118.6032 C111.1026,118.6032 109.7586,119.9472 109.7586,121.6032 C109.7586,123.2592 111.1026,124.6032 112.7586,124.6032" mask="url(#b)"/>
    <path fill="#C9D2F0" d="M113.7586,136.6032 L172.9586,136.6032 C175.1686,136.6032 176.9586,134.8112 176.9586,132.6032 C176.9586,130.3952 175.1686,128.6032 172.9586,128.6032 L113.7586,128.6032 C111.5506,128.6032 109.7586,130.3952 109.7586,132.6032 C109.7586,134.8112 111.5506,136.6032 113.7586,136.6032" mask="url(#b)"/>
    <path fill="#FFD671" d="M103.7586,127.6032 C103.7586,133.1272 99.2826,137.6032 93.7586,137.6032 C88.2366,137.6032 83.7586,133.1272 83.7586,127.6032 C83.7586,122.0792 88.2366,117.6032 93.7586,117.6032 C99.2826,117.6032 103.7586,122.0792 103.7586,127.6032" mask="url(#b)"/>
  </g>
</svg>
