<svg width="130" height="36" viewBox="0 0 130 36" fill="none" xmlns="http://www.w3.org/2000/svg">
<path d="M27.2596 7.28933C25.1635 6.33063 22.9373 5.63192 20.6137 5.24194C20.3212 5.74566 19.9962 6.42813 19.7687 6.96435C17.2972 6.60687 14.8436 6.60687 12.4062 6.96435C12.1787 6.42813 11.8375 5.74566 11.5612 5.24194C9.22136 5.63192 6.99521 6.33063 4.91369 7.28933C0.705146 13.4965 -0.432302 19.5575 0.13642 25.5372C2.93128 27.5683 5.62868 28.8033 8.27892 29.6157C8.92889 28.7383 9.51387 27.7958 10.0176 26.8046C9.05889 26.4471 8.14893 26.0084 7.27148 25.4884C7.49897 25.3259 7.72646 25.1472 7.9377 24.9685C13.2349 27.3896 18.9725 27.3896 24.2048 24.9685C24.4322 25.1472 24.6435 25.3259 24.871 25.4884C23.9935 26.0084 23.0836 26.4471 22.1249 26.8046C22.6286 27.7958 23.2136 28.7383 23.8635 29.6157C26.5122 28.8033 29.2257 27.5683 32.006 25.5372C32.7047 18.615 30.8994 12.6028 27.2596 7.28933ZM10.7488 21.8486C9.15636 21.8486 7.85643 20.4024 7.85643 18.6313C7.85643 16.8601 9.12386 15.4139 10.7488 15.4139C12.3575 15.4139 13.6736 16.8601 13.6411 18.6313C13.6411 20.4024 12.3575 21.8486 10.7488 21.8486ZM21.4262 21.8486C19.8337 21.8486 18.5322 20.4024 18.5322 18.6313C18.5322 16.8601 19.8012 15.4139 21.4262 15.4139C23.0348 15.4139 24.351 16.8601 24.3185 18.6313C24.3185 20.4024 23.0511 21.8486 21.4262 21.8486Z" fill="white"/>
<path d="M43.2666 10.3435H50.1741C51.8316 10.3435 53.2453 10.6035 54.3989 11.1235C55.5526 11.6435 56.4138 12.3584 56.9826 13.2846C57.5513 14.2108 57.8438 15.267 57.8438 16.4695C57.8438 17.6394 57.5513 18.6956 56.9501 19.6543C56.3489 20.5968 55.4389 21.3605 54.2202 21.913C53.0015 22.4654 51.4904 22.7417 49.6867 22.7417H43.2666V10.3435ZM49.6054 19.5893C50.7266 19.5893 51.5879 19.3131 52.1891 18.7444C52.7903 18.1919 53.099 17.4119 53.099 16.4532C53.099 15.5595 52.8228 14.8446 52.2866 14.3083C51.7503 13.7721 50.9379 13.4959 49.8492 13.4959H47.688V19.5893H49.6054Z" fill="white"/>
<path d="M68.6024 22.7262C67.6437 22.4825 66.7825 22.125 66.0188 21.6375V18.6964C66.6038 19.1514 67.3675 19.5089 68.3424 19.8014C69.3174 20.0939 70.2599 20.2401 71.1698 20.2401C71.5923 20.2401 71.9173 20.1914 72.1285 20.0776C72.3398 19.9639 72.4535 19.8339 72.4535 19.6714C72.4535 19.4927 72.3885 19.3464 72.2748 19.2327C72.161 19.1189 71.9335 19.0214 71.5923 18.9239L69.4636 18.4527C68.2449 18.1765 67.3837 17.7702 66.8637 17.2828C66.3438 16.7953 66.1 16.1291 66.1 15.3166C66.1 14.6341 66.3275 14.0329 66.7662 13.5292C67.2212 13.0255 67.855 12.6355 68.6837 12.3593C69.5124 12.083 70.4711 11.9368 71.5923 11.9368C72.5835 11.9368 73.4934 12.0343 74.3221 12.2618C75.1508 12.473 75.8333 12.7492 76.3695 13.0742V15.8528C75.8171 15.5279 75.1671 15.2679 74.4521 15.0729C73.7209 14.8779 72.9735 14.7804 72.2097 14.7804C71.1048 14.7804 70.5523 14.9754 70.5523 15.3491C70.5523 15.5279 70.6336 15.6578 70.8123 15.7553C70.9911 15.8528 71.2998 15.9341 71.7548 16.0316L73.5259 16.3566C74.6796 16.5516 75.5408 16.909 76.1095 17.4128C76.6783 17.9165 76.9545 18.6477 76.9545 19.6389C76.9545 20.7113 76.4833 21.5726 75.5408 22.19C74.5984 22.8237 73.2659 23.1325 71.5435 23.1325C70.5361 23.1 69.5611 22.97 68.6024 22.7262Z" fill="white"/>
<path d="M81.3434 22.353C80.336 21.8493 79.556 21.1831 79.0523 20.3381C78.5323 19.4931 78.2886 18.5344 78.2886 17.462C78.2886 16.4058 78.5485 15.4471 79.0848 14.6184C79.621 13.7734 80.401 13.1235 81.4247 12.636C82.4484 12.1648 83.6833 11.921 85.1133 11.921C86.8844 11.921 88.3468 12.2947 89.5168 13.0422V16.2758C89.1105 15.9996 88.6231 15.7558 88.0706 15.5933C87.5181 15.4146 86.9332 15.3333 86.3157 15.3333C85.2107 15.3333 84.3658 15.5283 83.7321 15.9346C83.1146 16.3408 82.8058 16.8608 82.8058 17.5107C82.8058 18.1445 83.0983 18.6644 83.7158 19.0707C84.317 19.4769 85.1945 19.6881 86.3319 19.6881C86.9169 19.6881 87.5019 19.6069 88.0706 19.4281C88.6393 19.2494 89.143 19.0544 89.5493 18.7944V21.9305C88.2493 22.7105 86.7381 23.1005 85.032 23.1005C83.5858 23.1005 82.3671 22.8405 81.3434 22.353Z" fill="white"/>
<path d="M94.1494 22.353C93.1257 21.8493 92.3458 21.1831 91.8095 20.3218C91.2733 19.4606 90.9971 18.5019 90.9971 17.4295C90.9971 16.3733 91.2733 15.4146 91.8095 14.5859C92.3458 13.7572 93.1257 13.1072 94.1332 12.636C95.1406 12.1648 96.3593 11.921 97.7583 11.921C99.1558 11.921 100.374 12.1485 101.382 12.636C102.389 13.1072 103.169 13.7572 103.706 14.5859C104.242 15.4146 104.502 16.357 104.502 17.4295C104.502 18.4857 104.242 19.4606 103.706 20.3218C103.169 21.1831 102.406 21.8655 101.382 22.353C100.358 22.8405 99.1558 23.1005 97.7583 23.1005C96.3755 23.1005 95.1731 22.8405 94.1494 22.353ZM99.5295 19.2169C99.952 18.7944 100.179 18.2095 100.179 17.5107C100.179 16.7958 99.9682 16.2433 99.5295 15.8208C99.0908 15.3983 98.5058 15.1871 97.7746 15.1871C97.0109 15.1871 96.4243 15.3983 95.9855 15.8208C95.5631 16.2433 95.3356 16.7958 95.3356 17.5107C95.3356 18.2257 95.5468 18.7944 95.9855 19.2169C96.4243 19.6556 97.0109 19.8669 97.7746 19.8669C98.5058 19.8506 99.107 19.6394 99.5295 19.2169Z" fill="white"/>
<path d="M115.372 12.5703V16.3889C114.917 16.0964 114.333 15.9502 113.618 15.9502C112.675 15.9502 111.944 16.2426 111.44 16.8114C110.936 17.3801 110.676 18.2738 110.676 19.4762V22.7261H106.338V12.3916H110.595V15.6902C110.823 14.4877 111.213 13.594 111.733 13.0253C112.253 12.4566 112.935 12.1478 113.764 12.1478C114.381 12.1478 114.917 12.2941 115.372 12.5703Z" fill="white"/>
<path d="M130 9.98655V22.7422H125.661V20.4185C125.288 21.296 124.735 21.9622 123.988 22.4172C123.239 22.8722 122.313 23.0997 121.208 23.0997C120.233 23.0997 119.371 22.8559 118.64 22.3847C117.909 21.9135 117.34 21.2472 116.95 20.4185C116.56 19.5736 116.365 18.6311 116.365 17.5912C116.349 16.5025 116.56 15.5275 116.999 14.6663C117.422 13.8051 118.039 13.1389 118.819 12.6514C119.599 12.1639 120.493 11.9202 121.5 11.9202C123.564 11.9202 124.947 12.8139 125.661 14.6176V9.98655H130ZM125.012 19.1348C125.45 18.7124 125.678 18.1436 125.678 17.4612C125.678 16.795 125.467 16.2587 125.028 15.8525C124.589 15.4463 124.004 15.235 123.271 15.235C122.54 15.235 121.955 15.4463 121.516 15.8688C121.078 16.2912 120.866 16.8275 120.866 17.5099C120.866 18.1924 121.078 18.7286 121.516 19.1511C121.955 19.5736 122.524 19.7848 123.255 19.7848C123.988 19.7848 124.573 19.5736 125.012 19.1348Z" fill="white"/>
<path d="M61.8427 13.0095C63.089 13.0095 64.1014 12.1001 64.1014 10.9784C64.1014 9.85653 63.089 8.94722 61.8427 8.94722C60.5948 8.94722 59.5841 9.85653 59.5841 10.9784C59.5841 12.1001 60.5948 13.0095 61.8427 13.0095Z" fill="white"/>
<path d="M64.1014 14.4058C62.7202 15.007 60.9978 15.0233 59.5841 14.4058V22.7417H64.1014V14.4058Z" fill="white"/>
</svg>
