<svg width="24" height="24" xmlns="http://www.w3.org/2000/svg">
 <g>
  <title>Layer 1</title>
  <g id="svg_1">
   <path fill="#ffffff" d="m23.3,7.3c0,-0.2 -0.3,-1.8 -1,-2.5c-0.9,-1 -1.9,-1.1 -2.4,-1.1l-0.1,0c-3.1,-0.2 -7.7,-0.2 -7.8,-0.2c0,0 -4.7,0 -7.8,0.2l-0.1,0c-0.5,0 -1.5,0.1 -2.4,1.1c-0.7,0.8 -1,2.4 -1,2.6c0,0.1 -0.2,1.9 -0.2,3.8l0,1.7c0,1.9 0.2,3.7 0.2,3.8c0,0.2 0.3,1.8 1,2.5c0.8,0.9 1.8,1 2.4,1.1c0.1,0 0.2,0 0.3,0c1.8,0.2 7.3,0.2 7.5,0.2c0,0 0,0 0,0c0,0 4.7,0 7.8,-0.2l0.1,0c0.5,-0.1 1.5,-0.2 2.4,-1.1c0.7,-0.8 1,-2.4 1,-2.6c0,-0.1 0.2,-1.9 0.2,-3.8l0,-1.7c0.1,-1.8 -0.1,-3.7 -0.1,-3.8zm-7.4,4.9l-6,3.2c-0.1,0 -0.1,0.1 -0.2,0.1c-0.1,0 -0.2,0 -0.2,-0.1c-0.1,-0.1 -0.2,-0.2 -0.2,-0.4l0,-6.5c0,-0.2 0.1,-0.3 0.2,-0.4s0.3,-0.1 0.5,0l6,3.2c0.2,0.1 0.3,0.2 0.3,0.4s-0.2,0.4 -0.4,0.5z" id="svg_2"/>
  </g>
 </g>

</svg>